<?xml version="1.0" encoding="UTF-8" standalone="no"?>
<!DOCTYPE svg PUBLIC "-//W3C//DTD SVG 1.1//EN"
 "http://www.w3.org/Graphics/SVG/1.1/DTD/svg11.dtd">
<!-- Generated by graphviz version 2.38.0 (20140413.2041)
 -->
<!-- Title: 00 Pages: 1 -->
<svg width="1061pt" height="736pt"
 viewBox="0.00 0.00 1061.00 735.74" xmlns="http://www.w3.org/2000/svg" xmlns:xlink="http://www.w3.org/1999/xlink">
<g id="graph0" class="graph" transform="scale(1 1) rotate(0) translate(4 731.74)">
<title>00</title>
<polygon fill="white" stroke="none" points="-4,4 -4,-731.74 1057,-731.74 1057,4 -4,4"/>
<text text-anchor="middle" x="526.5" y="-7.8" font-family="Times,serif" font-size="14.00">create tf.Session</text>
<g id="clust1" class="cluster"><title>cluster_python</title>
<polygon fill="none" stroke="black" points="8,-297.74 8,-719.74 243,-719.74 243,-297.74 8,-297.74"/>
<text text-anchor="middle" x="125.5" y="-704.54" font-family="Times,serif" font-size="14.00">Python</text>
</g>
<g id="clust2" class="cluster"><title>cluster_session_py</title>
<g id="a_clust2"><a xlink:href="https://github.com/ROCmSoftwarePlatform/tensorflow/blob/rocm-v1/tensorflow/python/client/session.py" xlink:title="tensorflow/python/client/session.py">
<polygon fill="none" stroke="black" points="19,-541.74 19,-688.74 235,-688.74 235,-541.74 19,-541.74"/>
<text text-anchor="middle" x="127" y="-673.54" font-family="Times,serif" font-size="14.00">tensorflow/python/client/session.py</text>
</a>
</g>
</g>
<g id="clust3" class="cluster"><title>cluster_ops_py</title>
<g id="a_clust3"><a xlink:href="https://github.com/ROCmSoftwarePlatform/tensorflow/blob/rocm-v1/tensorflow/python/framework/ops.py" xlink:title="tensorflow/python/framework/ops.py">
<polygon fill="none" stroke="black" points="16,-427.74 16,-502.74 235,-502.74 235,-427.74 16,-427.74"/>
<text text-anchor="middle" x="125.5" y="-487.54" font-family="Times,serif" font-size="14.00">tensorflow/python/framework/ops.py</text>
</a>
</g>
</g>
<g id="clust4" class="cluster"><title>cluster_user_model</title>
<polygon fill="none" stroke="black" points="67,-305.74 67,-380.74 187,-380.74 187,-305.74 67,-305.74"/>
<text text-anchor="middle" x="127" y="-365.54" font-family="Times,serif" font-size="14.00">User model</text>
</g>
<g id="clust5" class="cluster"><title>cluster_generated_python</title>
<polygon fill="none" stroke="black" points="282,-419.74 282,-533.74 538,-533.74 538,-419.74 282,-419.74"/>
<text text-anchor="middle" x="410" y="-518.54" font-family="Times,serif" font-size="14.00">Generated Python</text>
</g>
<g id="clust6" class="cluster"><title>cluster_tf_session_i</title>
<g id="a_clust6"><a xlink:href="https://github.com/ROCmSoftwarePlatform/tensorflow/blob/rocm-v1/tensorflow/python/client/tf_session.i" xlink:title="tensorflow/python/client/tf_session.i">
<polygon fill="none" stroke="black" points="290,-427.74 290,-502.74 530,-502.74 530,-427.74 290,-427.74"/>
<text text-anchor="middle" x="410" y="-487.54" font-family="Times,serif" font-size="14.00">tensorflow/python/client/tf_session.i</text>
</a>
</g>
</g>
<g id="clust7" class="cluster"><title>cluster_cxx</title>
<polygon fill="none" stroke="black" points="251,-31 251,-411.74 1045,-411.74 1045,-31 251,-31"/>
<text text-anchor="middle" x="648" y="-396.54" font-family="Times,serif" font-size="14.00">C++</text>
</g>
<g id="clust8" class="cluster"><title>cluster_c_api_cc</title>
<g id="a_clust8"><a xlink:href="https://github.com/ROCmSoftwarePlatform/tensorflow/blob/rocm-v1/tensorflow/c/c_api.cc" xlink:title="tensorflow/c/c_api.cc">
<polygon fill="none" stroke="black" points="358,-305.74 358,-380.74 524,-380.74 524,-305.74 358,-305.74"/>
<text text-anchor="middle" x="441" y="-365.54" font-family="Times,serif" font-size="14.00">tensorflow/c/c_api.cc</text>
</a>
</g>
</g>
<g id="clust9" class="cluster"><title>cluster_session_cc</title>
<g id="a_clust9"><a xlink:href="https://github.com/ROCmSoftwarePlatform/tensorflow/blob/rocm-v1/tensorflow/core/common_runtime/session.cc" xlink:title="tensorflow/core/commmon_runtime/session.cc">
<polygon fill="none" stroke="black" points="279,-214.74 279,-289.74 552,-289.74 552,-214.74 279,-214.74"/>
<text text-anchor="middle" x="415.5" y="-274.54" font-family="Times,serif" font-size="14.00">tensorflow/core/commmon_runtime/session.cc</text>
</a>
</g>
</g>
<g id="clust10" class="cluster"><title>cluster_direction_session_cc</title>
<g id="a_clust10"><a xlink:href="https://github.com/ROCmSoftwarePlatform/tensorflow/blob/rocm-v1/tensorflow/core/common_runtime/direct_session.cc" xlink:title="tensorflow/core/common_runtime/direct_session.cc">
<polygon fill="none" stroke="black" points="259,-47.8701 259,-206.74 663,-206.74 663,-47.8701 259,-47.8701"/>
<text text-anchor="middle" x="461" y="-191.54" font-family="Times,serif" font-size="14.00">tensorflow/core/common_runtime/direct_session.cc</text>
</a>
</g>
</g>
<g id="clust11" class="cluster"><title>cluster_device_factory_cc</title>
<g id="a_clust11"><a xlink:href="https://github.com/ROCmSoftwarePlatform/tensorflow/blob/rocm-v1/tensorflow/core/common_runtime/device_factory.cc" xlink:title="tensorflow/core/common_runtime/device_factory.cc">
<polygon fill="none" stroke="black" points="671,-39 671,-131.74 1037,-131.74 1037,-39 671,-39"/>
<text text-anchor="middle" x="854" y="-116.54" font-family="Times,serif" font-size="14.00">tensorflow/core/common_runtime/device_factory.cc</text>
</a>
</g>
</g>
<g id="clust12" class="cluster"><title>cluster_c_api_internal_h</title>
<g id="a_clust12"><a xlink:href="https://github.com/ROCmSoftwarePlatform/tensorflow/blob/rocm-v1/tensorflow/c/c_api_internal.h" xlink:title="tensorflow/c/c_api_internal.h">
<polygon fill="none" stroke="black" points="560,-214.74 560,-289.74 786,-289.74 786,-214.74 560,-214.74"/>
<text text-anchor="middle" x="673" y="-274.54" font-family="Times,serif" font-size="14.00">tensorflow/c/c_api_internal.h</text>
</a>
</g>
</g>
<!-- 00 -->
<g id="node1" class="node"><title>00</title>
<g id="a_node1"><a xlink:href="https://github.com/ROCmSoftwarePlatform/tensorflow/blob/rocm-v1/tensorflow/python/client/session.py#L1465" xlink:title="tf.Session.__init__()">
<ellipse fill="none" stroke="black" cx="127" cy="-639.74" rx="83.3857" ry="18"/>
<text text-anchor="middle" x="127" y="-636.04" font-family="Times,serif" font-size="14.00">tf.Session.__init__()</text>
</a>
</g>
</g>
<!-- 01 -->
<g id="node2" class="node"><title>01</title>
<g id="a_node2"><a xlink:href="https://github.com/ROCmSoftwarePlatform/tensorflow/blob/rocm-v1/tensorflow/python/client/session.py#L558" xlink:title="tf.BaseSession.__init__()">
<ellipse fill="none" stroke="black" cx="127" cy="-567.74" rx="100.182" ry="18"/>
<text text-anchor="middle" x="127" y="-564.04" font-family="Times,serif" font-size="14.00">tf.BaseSession.__init__()</text>
</a>
</g>
</g>
<!-- 00&#45;&gt;01 -->
<g id="edge1" class="edge"><title>00&#45;&gt;01</title>
<path fill="none" stroke="black" d="M127,-621.437C127,-613.723 127,-604.453 127,-595.853"/>
<polygon fill="black" stroke="black" points="130.5,-595.844 127,-585.844 123.5,-595.844 130.5,-595.844"/>
</g>
<!-- 02 -->
<g id="node3" class="node"><title>02</title>
<g id="a_node3"><a xlink:href="https://github.com/ROCmSoftwarePlatform/tensorflow/blob/rocm-v1/tensorflow/python/framework/ops.py#L4171" xlink:title="tf.get_default_graph()">
<ellipse fill="none" stroke="black" cx="127" cy="-453.74" rx="88.2844" ry="18"/>
<text text-anchor="middle" x="127" y="-450.04" font-family="Times,serif" font-size="14.00">tf.get_default_graph()</text>
</a>
</g>
</g>
<!-- 01&#45;&gt;02 -->
<g id="edge2" class="edge"><title>01&#45;&gt;02</title>
<path fill="none" stroke="black" d="M127,-549.73C127,-531.804 127,-503.295 127,-482.182"/>
<polygon fill="black" stroke="black" points="130.5,-481.911 127,-471.911 123.5,-481.911 130.5,-481.911"/>
</g>
<!-- 03 -->
<g id="node5" class="node"><title>03</title>
<g id="a_node5"><a xlink:href="https://github.com/ROCmSoftwarePlatform/tensorflow/blob/rocm-v1/tensorflow/python/client/tf_session.i#L272" xlink:title="tf_session.TF_NewSession()">
<ellipse fill="none" stroke="black" cx="410" cy="-453.74" rx="112.38" ry="18"/>
<text text-anchor="middle" x="410" y="-450.04" font-family="Times,serif" font-size="14.00">tf_session.TF_NewSession()</text>
</a>
</g>
</g>
<!-- 01&#45;&gt;03 -->
<g id="edge4" class="edge"><title>01&#45;&gt;03</title>
<path fill="none" stroke="black" d="M181.078,-552.535C199.634,-547.207 220.406,-540.732 239,-533.74 284.467,-516.644 334.74,-492.791 368.935,-475.778"/>
<polygon fill="black" stroke="black" points="370.761,-478.778 378.136,-471.172 367.627,-472.519 370.761,-478.778"/>
</g>
<!-- 99 -->
<g id="node4" class="node"><title>99</title>
<ellipse fill="none" stroke="black" cx="127" cy="-331.74" rx="51.9908" ry="18"/>
<text text-anchor="middle" x="127" y="-328.04" font-family="Times,serif" font-size="14.00">User model</text>
</g>
<!-- 02&#45;&gt;99 -->
<g id="edge3" class="edge"><title>02&#45;&gt;99</title>
<path fill="none" stroke="black" d="M127,-435.547C127,-415.854 127,-383.323 127,-360.13"/>
<polygon fill="black" stroke="black" points="130.5,-359.901 127,-349.901 123.5,-359.901 130.5,-359.901"/>
</g>
<!-- 04 -->
<g id="node6" class="node"><title>04</title>
<g id="a_node6"><a xlink:href="https://github.com/ROCmSoftwarePlatform/tensorflow/blob/rocm-v1/tensorflow/c/c_api.cc#L2148" xlink:title="TF_NewSession()">
<ellipse fill="none" stroke="black" cx="441" cy="-331.74" rx="74.9875" ry="18"/>
<text text-anchor="middle" x="441" y="-328.04" font-family="Times,serif" font-size="14.00">TF_NewSession()</text>
</a>
</g>
</g>
<!-- 03&#45;&gt;04 -->
<g id="edge5" class="edge"><title>03&#45;&gt;04</title>
<path fill="none" stroke="black" d="M414.442,-435.547C419.552,-415.765 428.009,-383.028 434.005,-359.816"/>
<polygon fill="black" stroke="black" points="437.454,-360.459 436.567,-349.901 430.677,-358.708 437.454,-360.459"/>
</g>
<!-- 05 -->
<g id="node7" class="node"><title>05</title>
<g id="a_node7"><a xlink:href="https://github.com/ROCmSoftwarePlatform/tensorflow/blob/rocm-v1/tensorflow/core/common_runtime/session.cc#L54" xlink:title="tensorflow::NewSession()">
<ellipse fill="none" stroke="black" cx="441" cy="-240.74" rx="102.882" ry="18"/>
<text text-anchor="middle" x="441" y="-237.04" font-family="Times,serif" font-size="14.00">tensorflow::NewSession()</text>
</a>
</g>
</g>
<!-- 04&#45;&gt;05 -->
<g id="edge6" class="edge"><title>04&#45;&gt;05</title>
<path fill="none" stroke="black" d="M441,-313.58C441,-301.021 441,-283.719 441,-269.242"/>
<polygon fill="black" stroke="black" points="444.5,-268.847 441,-258.848 437.5,-268.848 444.5,-268.847"/>
</g>
<!-- 09 -->
<g id="node11" class="node"><title>09</title>
<g id="a_node11"><a xlink:href="https://github.com/ROCmSoftwarePlatform/tensorflow/blob/rocm-v1/tensorflow/c/c_api_internal.h#L103" xlink:title="TF_Session::TF_Session()">
<ellipse fill="none" stroke="black" cx="673" cy="-240.74" rx="104.782" ry="18"/>
<text text-anchor="middle" x="673" y="-237.04" font-family="Times,serif" font-size="14.00">TF_Session::TF_Session()</text>
</a>
</g>
</g>
<!-- 04&#45;&gt;09 -->
<g id="edge10" class="edge"><title>04&#45;&gt;09</title>
<path fill="none" stroke="black" d="M482.154,-316.593C504.156,-308.897 531.654,-299.068 556,-289.74 579.202,-280.85 604.754,-270.44 626.045,-261.591"/>
<polygon fill="black" stroke="black" points="627.622,-264.726 635.504,-257.646 624.927,-258.265 627.622,-264.726"/>
</g>
<!-- 06 -->
<g id="node8" class="node"><title>06</title>
<g id="a_node8"><a xlink:href="https://github.com/ROCmSoftwarePlatform/tensorflow/blob/rocm-v1/tensorflow/core/common_runtime/direct_session.cc#L158" xlink:title="tensorflow::DirectionSessionFactory::NewSession()">
<ellipse fill="none" stroke="black" cx="461" cy="-157.74" rx="194.166" ry="18"/>
<text text-anchor="middle" x="461" y="-154.04" font-family="Times,serif" font-size="14.00">tensorflow::DirectionSessionFactory::NewSession()</text>
</a>
</g>
</g>
<!-- 05&#45;&gt;06 -->
<g id="edge7" class="edge"><title>05&#45;&gt;06</title>
<path fill="none" stroke="black" d="M445.241,-222.562C447.867,-211.93 451.295,-198.046 454.283,-185.944"/>
<polygon fill="black" stroke="black" points="457.765,-186.441 456.765,-175.893 450.969,-184.763 457.765,-186.441"/>
</g>
<!-- 08 -->
<g id="node9" class="node"><title>08</title>
<g id="a_node9"><a xlink:href="https://github.com/ROCmSoftwarePlatform/tensorflow/blob/rocm-v1/tensorflow/core/common_runtime/direct_session.cc#L253" xlink:title="tensorflow::DirectionSession::DirectSession()">
<ellipse fill="none" stroke="black" cx="461" cy="-73.8701" rx="172.769" ry="18"/>
<text text-anchor="middle" x="461" y="-70.1701" font-family="Times,serif" font-size="14.00">tensorflow::DirectionSession::DirectSession()</text>
</a>
</g>
</g>
<!-- 06&#45;&gt;08 -->
<g id="edge8" class="edge"><title>06&#45;&gt;08</title>
<path fill="none" stroke="black" d="M461,-139.378C461,-128.559 461,-114.409 461,-102.118"/>
<polygon fill="black" stroke="black" points="464.5,-101.927 461,-91.9268 457.5,-101.927 464.5,-101.927"/>
</g>
<!-- 07 -->
<g id="node10" class="node"><title>07</title>
<g id="a_node10"><a xlink:href="https://github.com/ROCmSoftwarePlatform/tensorflow/blob/rocm-v1/tensorflow/core/common_runtime/device_factory.cc#L92" xlink:title=" tensorflow::DeviceFactory::AddDevices()&lt;br/&gt;CPU / GPU / XLA device enumeration ">
<ellipse fill="none" stroke="black" cx="854" cy="-73.8701" rx="175.225" ry="26.7407"/>
<text text-anchor="start" x="738" y="-77.6701" font-family="Times,serif" font-size="14.00"> tensorflow::DeviceFactory::AddDevices()</text>
<text text-anchor="start" x="744.5" y="-62.6701" font-family="Times,serif" font-size="14.00">CPU / GPU / XLA device enumeration </text>
</a>
</g>
</g>
<!-- 06&#45;&gt;07 -->
<g id="edge9" class="edge"><title>06&#45;&gt;07</title>
<path fill="none" stroke="black" d="M591.512,-144.39C616.691,-141.025 642.766,-136.855 667,-131.74 703.414,-124.055 742.949,-112.517 776.248,-101.838"/>
<polygon fill="black" stroke="black" points="777.483,-105.116 785.917,-98.7046 775.325,-98.4573 777.483,-105.116"/>
</g>
</g>
</svg>
