<?xml version="1.0" encoding="UTF-8" standalone="no"?>
<!DOCTYPE svg PUBLIC "-//W3C//DTD SVG 1.1//EN"
 "http://www.w3.org/Graphics/SVG/1.1/DTD/svg11.dtd">
<!-- Generated by graphviz version 2.38.0 (20140413.2041)
 -->
<!-- Title: 01 Pages: 1 -->
<svg width="2201pt" height="1313pt"
 viewBox="0.00 0.00 2201.00 1313.00" xmlns="http://www.w3.org/2000/svg" xmlns:xlink="http://www.w3.org/1999/xlink">
<g id="graph0" class="graph" transform="scale(1 1) rotate(0) translate(4 1309)">
<title>01</title>
<polygon fill="white" stroke="none" points="-4,4 -4,-1309 2197,-1309 2197,4 -4,4"/>
<text text-anchor="middle" x="1096.5" y="-7.8" font-family="Times,serif" font-size="14.00">tf.Session.run()</text>
<g id="clust1" class="cluster"><title>cluster_python</title>
<polygon fill="none" stroke="black" points="700,-967 700,-1297 932,-1297 932,-967 700,-967"/>
<text text-anchor="middle" x="816" y="-1281.8" font-family="Times,serif" font-size="14.00">Python</text>
</g>
<g id="clust2" class="cluster"><title>cluster_session_py</title>
<g id="a_clust2"><a xlink:href="https://github.com/ROCmSoftwarePlatform/tensorflow/blob/rocm-v1/tensorflow/python/client/session.py" xlink:title="tensorflow/python/client/session.py">
<polygon fill="none" stroke="black" points="708,-975 708,-1266 924,-1266 924,-975 708,-975"/>
<text text-anchor="middle" x="816" y="-1250.8" font-family="Times,serif" font-size="14.00">tensorflow/python/client/session.py</text>
</a>
</g>
</g>
<g id="clust3" class="cluster"><title>cluster_generated_python</title>
<polygon fill="none" stroke="black" points="701,-845 701,-959 932,-959 932,-845 701,-845"/>
<text text-anchor="middle" x="816.5" y="-943.8" font-family="Times,serif" font-size="14.00">Generated Python</text>
</g>
<g id="clust4" class="cluster"><title>cluster_tf_session_i</title>
<g id="a_clust4"><a xlink:href="https://github.com/ROCmSoftwarePlatform/tensorflow/blob/rocm-v1/tensorflow/python/client/tf_session.i" xlink:title="tensorflow/python/client/tf_session.i">
<polygon fill="none" stroke="black" points="709,-853 709,-928 924,-928 924,-853 709,-853"/>
<text text-anchor="middle" x="816.5" y="-912.8" font-family="Times,serif" font-size="14.00">tensorflow/python/client/tf_session.i</text>
</a>
</g>
</g>
<g id="clust5" class="cluster"><title>cluster_cxx</title>
<polygon fill="none" stroke="black" points="8,-31 8,-837 2185,-837 2185,-31 8,-31"/>
<text text-anchor="middle" x="1096.5" y="-821.8" font-family="Times,serif" font-size="14.00">C++</text>
</g>
<g id="clust6" class="cluster"><title>cluster_tf_session_helper_cc</title>
<g id="a_clust6"><a xlink:href="https://github.com/ROCmSoftwarePlatform/tensorflow/blob/rocm-v1/tensorflow/python/client/tf_session_helper.cc" xlink:title="tensorflow/python/client/tf_session_helper.cc">
<polygon fill="none" stroke="black" points="633,-659 633,-806 999,-806 999,-659 633,-659"/>
<text text-anchor="middle" x="816" y="-790.8" font-family="Times,serif" font-size="14.00">tensorflow/python/client/tf_session_helper.cc</text>
</a>
</g>
</g>
<g id="clust7" class="cluster"><title>cluster_c_api_cc</title>
<g id="a_clust7"><a xlink:href="https://github.com/ROCmSoftwarePlatform/tensorflow/blob/rocm-v1/tensorflow/c/c_api.cc" xlink:title="tensorflow/c/c_api.cc">
<polygon fill="none" stroke="black" points="591,-504 591,-651 1001,-651 1001,-504 591,-504"/>
<text text-anchor="middle" x="796" y="-635.8" font-family="Times,serif" font-size="14.00">tensorflow/c/c_api.cc</text>
</a>
</g>
</g>
<g id="clust8" class="cluster"><title>cluster_direction_session_cc</title>
<g id="a_clust8"><a xlink:href="https://github.com/ROCmSoftwarePlatform/tensorflow/blob/rocm-v1/tensorflow/core/common_runtime/direct_session.cc" xlink:title="tensorflow/core/common_runtime/direct_session.cc">
<polygon fill="none" stroke="black" points="507,-277 507,-496 1115,-496 1115,-277 507,-277"/>
<text text-anchor="middle" x="811" y="-480.8" font-family="Times,serif" font-size="14.00">tensorflow/core/common_runtime/direct_session.cc</text>
</a>
</g>
</g>
<g id="clust9" class="cluster"><title>cluster_function_cc</title>
<g id="a_clust9"><a xlink:href="https://github.com/ROCmSoftwarePlatform/tensorflow/blob/rocm-v1/tensorflow/core/framework/function.cc" xlink:title="tensorflow/core/framework/function.cc">
<polygon fill="none" stroke="black" points="234,-194 234,-269 752,-269 752,-194 234,-194"/>
<text text-anchor="middle" x="493" y="-253.8" font-family="Times,serif" font-size="14.00">tensorflow/core/framework/function.cc</text>
</a>
</g>
</g>
<g id="clust10" class="cluster"><title>cluster_simple_graph_execution_state_cc</title>
<g id="a_clust10"><a xlink:href="https://github.com/ROCmSoftwarePlatform/tensorflow/blob/rocm-v1/tensorflow/core/common_runtime/simple_graph_execution_state.cc" xlink:title="tensorflow/core/common_runtime/simple_graph_execution_state.cc">
<polygon fill="none" stroke="black" points="760,-122 760,-269 1248,-269 1248,-122 760,-122"/>
<text text-anchor="middle" x="1004" y="-253.8" font-family="Times,serif" font-size="14.00">tensorflow/core/common_runtime/simple_graph_execution_state.cc</text>
</a>
</g>
</g>
<g id="clust11" class="cluster"><title>cluster_costmodel_cc</title>
<g id="a_clust11"><a xlink:href="https://github.com/ROCmSoftwarePlatform/tensorflow/blob/rocm-v1/tensorflow/core/graph/costmodel.cc" xlink:title="tensorflow/core/graph/costmodel.cc">
<polygon fill="none" stroke="black" points="16,-39 16,-114 705,-114 705,-39 16,-39"/>
<text text-anchor="middle" x="360.5" y="-98.8" font-family="Times,serif" font-size="14.00">tensorflow/core/graph/costmodel.cc</text>
</a>
</g>
</g>
<g id="clust12" class="cluster"><title>cluster_optimization_registry_cc</title>
<g id="a_clust12"><a xlink:href="https://github.com/ROCmSoftwarePlatform/tensorflow/blob/rocm-v1/tensorflow/core/common_runtime/optimization_registry.cc" xlink:title="tensorflow/core/common_runtime/optimization_registry.cc">
<polygon fill="none" stroke="black" points="713,-39 713,-114 1870,-114 1870,-39 713,-39"/>
<text text-anchor="middle" x="1291.5" y="-98.8" font-family="Times,serif" font-size="14.00">tensorflow/core/common_runtime/optimization_registry.cc</text>
</a>
</g>
</g>
<g id="clust13" class="cluster"><title>cluster_simpler_placer_cc</title>
<g id="a_clust13"><a xlink:href="https://github.com/ROCmSoftwarePlatform/tensorflow/blob/rocm-v1/tensorflow/core/common_runtime/simple_placer.cc" xlink:title="tensorflow/core/common_runtime/simple_placer.cc">
<polygon fill="none" stroke="black" points="1878,-39 1878,-114 2177,-114 2177,-39 1878,-39"/>
<text text-anchor="middle" x="2027.5" y="-98.8" font-family="Times,serif" font-size="14.00">tensorflow/core/common_runtime/simple_placer.cc</text>
</a>
</g>
</g>
<!-- 00 -->
<g id="node1" class="node"><title>00</title>
<g id="a_node1"><a xlink:href="https://github.com/ROCmSoftwarePlatform/tensorflow/blob/rocm-v1/tensorflow/python/client/session.py#L787" xlink:title="tf.Sesssion.run()">
<ellipse fill="none" stroke="black" cx="816" cy="-1217" rx="68.7879" ry="18"/>
<text text-anchor="middle" x="816" y="-1213.3" font-family="Times,serif" font-size="14.00">tf.Sesssion.run()</text>
</a>
</g>
</g>
<!-- 01 -->
<g id="node2" class="node"><title>01</title>
<g id="a_node2"><a xlink:href="https://github.com/ROCmSoftwarePlatform/tensorflow/blob/rocm-v1/tensorflow/python/client/session.py#L787" xlink:title="tf.BaseSession.run()">
<ellipse fill="none" stroke="black" cx="816" cy="-1145" rx="82.5854" ry="18"/>
<text text-anchor="middle" x="816" y="-1141.3" font-family="Times,serif" font-size="14.00">tf.BaseSession.run()</text>
</a>
</g>
</g>
<!-- 00&#45;&gt;01 -->
<g id="edge1" class="edge"><title>00&#45;&gt;01</title>
<path fill="none" stroke="black" d="M816,-1198.7C816,-1190.98 816,-1181.71 816,-1173.11"/>
<polygon fill="black" stroke="black" points="819.5,-1173.1 816,-1163.1 812.5,-1173.1 819.5,-1173.1"/>
</g>
<!-- 02 -->
<g id="node3" class="node"><title>02</title>
<g id="a_node3"><a xlink:href="https://github.com/ROCmSoftwarePlatform/tensorflow/blob/rocm-v1/tensorflow/python/client/session.py#L1040" xlink:title="tf.BaseSession._run()">
<ellipse fill="none" stroke="black" cx="816" cy="-1073" rx="87.1846" ry="18"/>
<text text-anchor="middle" x="816" y="-1069.3" font-family="Times,serif" font-size="14.00">tf.BaseSession._run()</text>
</a>
</g>
</g>
<!-- 01&#45;&gt;02 -->
<g id="edge2" class="edge"><title>01&#45;&gt;02</title>
<path fill="none" stroke="black" d="M816,-1126.7C816,-1118.98 816,-1109.71 816,-1101.11"/>
<polygon fill="black" stroke="black" points="819.5,-1101.1 816,-1091.1 812.5,-1101.1 819.5,-1101.1"/>
</g>
<!-- 03 -->
<g id="node4" class="node"><title>03</title>
<g id="a_node4"><a xlink:href="https://github.com/ROCmSoftwarePlatform/tensorflow/blob/rocm-v1/tensorflow/python/client/session.py#L1262" xlink:title="tf.BaseSession._do_run()">
<ellipse fill="none" stroke="black" cx="816" cy="-1001" rx="100.182" ry="18"/>
<text text-anchor="middle" x="816" y="-997.3" font-family="Times,serif" font-size="14.00">tf.BaseSession._do_run()</text>
</a>
</g>
</g>
<!-- 02&#45;&gt;03 -->
<g id="edge3" class="edge"><title>02&#45;&gt;03</title>
<path fill="none" stroke="black" d="M816,-1054.7C816,-1046.98 816,-1037.71 816,-1029.11"/>
<polygon fill="black" stroke="black" points="819.5,-1029.1 816,-1019.1 812.5,-1029.1 819.5,-1029.1"/>
</g>
<!-- 04 -->
<g id="node5" class="node"><title>04</title>
<g id="a_node5"><a xlink:href="https://github.com/ROCmSoftwarePlatform/tensorflow/blob/rocm-v1/tensorflow/python/client/tf_session.i#L296" xlink:title="tf_session.TF_Run()">
<ellipse fill="none" stroke="black" cx="816" cy="-879" rx="83.3857" ry="18"/>
<text text-anchor="middle" x="816" y="-875.3" font-family="Times,serif" font-size="14.00">tf_session.TF_Run()</text>
</a>
</g>
</g>
<!-- 03&#45;&gt;04 -->
<g id="edge4" class="edge"><title>03&#45;&gt;04</title>
<path fill="none" stroke="black" d="M816,-982.807C816,-963.114 816,-930.583 816,-907.39"/>
<polygon fill="black" stroke="black" points="819.5,-907.161 816,-897.161 812.5,-907.161 819.5,-907.161"/>
</g>
<!-- 05 -->
<g id="node6" class="node"><title>05</title>
<g id="a_node6"><a xlink:href="https://github.com/ROCmSoftwarePlatform/tensorflow/blob/rocm-v1/tensorflow/python/client/tf_session_helper.cc#L710" xlink:title="tensorflow::TF_SessionRun_wrapper()">
<ellipse fill="none" stroke="black" cx="816" cy="-757" rx="148.374" ry="18"/>
<text text-anchor="middle" x="816" y="-753.3" font-family="Times,serif" font-size="14.00">tensorflow::TF_SessionRun_wrapper()</text>
</a>
</g>
</g>
<!-- 04&#45;&gt;05 -->
<g id="edge5" class="edge"><title>04&#45;&gt;05</title>
<path fill="none" stroke="black" d="M816,-860.807C816,-841.114 816,-808.583 816,-785.39"/>
<polygon fill="black" stroke="black" points="819.5,-785.161 816,-775.161 812.5,-785.161 819.5,-785.161"/>
</g>
<!-- 051 -->
<g id="node7" class="node"><title>051</title>
<g id="a_node7"><a xlink:href="https://github.com/ROCmSoftwarePlatform/tensorflow/blob/rocm-v1/tensorflow/python/client/tf_session_helper.cc#L618" xlink:title="tensorflow::TF_SessionRun_wrapper_helper()">
<ellipse fill="none" stroke="black" cx="816" cy="-685" rx="174.669" ry="18"/>
<text text-anchor="middle" x="816" y="-681.3" font-family="Times,serif" font-size="14.00">tensorflow::TF_SessionRun_wrapper_helper()</text>
</a>
</g>
</g>
<!-- 05&#45;&gt;051 -->
<g id="edge6" class="edge"><title>05&#45;&gt;051</title>
<path fill="none" stroke="black" d="M816,-738.697C816,-730.983 816,-721.712 816,-713.112"/>
<polygon fill="black" stroke="black" points="819.5,-713.104 816,-703.104 812.5,-713.104 819.5,-713.104"/>
</g>
<!-- 06 -->
<g id="node8" class="node"><title>06</title>
<g id="a_node8"><a xlink:href="https://github.com/ROCmSoftwarePlatform/tensorflow/blob/rocm-v1/tensorflow/c/c_api.cc#L2284" xlink:title="TF_SessionRun()">
<ellipse fill="none" stroke="black" cx="816" cy="-602" rx="72.5877" ry="18"/>
<text text-anchor="middle" x="816" y="-598.3" font-family="Times,serif" font-size="14.00">TF_SessionRun()</text>
</a>
</g>
</g>
<!-- 051&#45;&gt;06 -->
<g id="edge7" class="edge"><title>051&#45;&gt;06</title>
<path fill="none" stroke="black" d="M816,-666.822C816,-656.19 816,-642.306 816,-630.204"/>
<polygon fill="black" stroke="black" points="819.5,-630.153 816,-620.153 812.5,-630.153 819.5,-630.153"/>
</g>
<!-- 061 -->
<g id="node9" class="node"><title>061</title>
<g id="a_node9"><a xlink:href="https://github.com/ROCmSoftwarePlatform/tensorflow/blob/rocm-v1/tensorflow/c/c_api.cc#L2248" xlink:title="ExtendSessionGraphHelper()">
<ellipse fill="none" stroke="black" cx="713" cy="-530" rx="114.28" ry="18"/>
<text text-anchor="middle" x="713" y="-526.3" font-family="Times,serif" font-size="14.00">ExtendSessionGraphHelper()</text>
</a>
</g>
</g>
<!-- 06&#45;&gt;061 -->
<g id="edge8" class="edge"><title>06&#45;&gt;061</title>
<path fill="none" stroke="black" d="M792.37,-584.941C778.667,-575.628 761.197,-563.755 746.137,-553.52"/>
<polygon fill="black" stroke="black" points="747.833,-550.441 737.595,-547.715 743.899,-556.231 747.833,-550.441"/>
</g>
<!-- 07 -->
<g id="node10" class="node"><title>07</title>
<g id="a_node10"><a xlink:href="https://github.com/ROCmSoftwarePlatform/tensorflow/blob/rocm-v1/tensorflow/c/c_api.cc#L524" xlink:title="TF_Run_Helper()">
<ellipse fill="none" stroke="black" cx="919" cy="-530" rx="74.187" ry="18"/>
<text text-anchor="middle" x="919" y="-526.3" font-family="Times,serif" font-size="14.00">TF_Run_Helper()</text>
</a>
</g>
</g>
<!-- 06&#45;&gt;07 -->
<g id="edge9" class="edge"><title>06&#45;&gt;07</title>
<path fill="none" stroke="black" d="M839.63,-584.941C853.532,-575.493 871.311,-563.41 886.516,-553.076"/>
<polygon fill="black" stroke="black" points="888.82,-555.743 895.123,-547.227 884.885,-549.953 888.82,-555.743"/>
</g>
<!-- 09 -->
<g id="node12" class="node"><title>09</title>
<g id="a_node12"><a xlink:href="https://github.com/ROCmSoftwarePlatform/tensorflow/blob/rocm-v1/tensorflow/core/common_runtime/direct_session.cc#L376" xlink:title="tensorflow::DirectionSession::Extend()">
<ellipse fill="none" stroke="black" cx="664" cy="-447" rx="148.674" ry="18"/>
<text text-anchor="middle" x="664" y="-443.3" font-family="Times,serif" font-size="14.00">tensorflow::DirectionSession::Extend()</text>
</a>
</g>
</g>
<!-- 061&#45;&gt;09 -->
<g id="edge11" class="edge"><title>061&#45;&gt;09</title>
<path fill="none" stroke="black" d="M702.608,-511.822C695.917,-500.761 687.096,-486.179 679.575,-473.746"/>
<polygon fill="black" stroke="black" points="682.547,-471.898 674.377,-465.153 676.558,-475.521 682.547,-471.898"/>
</g>
<!-- 08 -->
<g id="node11" class="node"><title>08</title>
<g id="a_node11"><a xlink:href="https://github.com/ROCmSoftwarePlatform/tensorflow/blob/rocm-v1/tensorflow/core/common_runtime/direct_session.cc#L431" xlink:title="tensorflow::DirectionSession::Run()">
<ellipse fill="none" stroke="black" cx="969" cy="-447" rx="138.375" ry="18"/>
<text text-anchor="middle" x="969" y="-443.3" font-family="Times,serif" font-size="14.00">tensorflow::DirectionSession::Run()</text>
</a>
</g>
</g>
<!-- 07&#45;&gt;08 -->
<g id="edge10" class="edge"><title>07&#45;&gt;08</title>
<path fill="none" stroke="black" d="M929.604,-511.822C936.432,-500.761 945.433,-486.179 953.108,-473.746"/>
<polygon fill="black" stroke="black" points="956.137,-475.501 958.412,-465.153 950.181,-471.824 956.137,-475.501"/>
</g>
<!-- 10 -->
<g id="node13" class="node"><title>10</title>
<g id="a_node13"><a xlink:href="https://github.com/ROCmSoftwarePlatform/tensorflow/blob/rocm-v1/tensorflow/core/common_runtime/direct_session.cc#L376" xlink:title="tensorflow::DirectionSession::ExtendLocked()">
<ellipse fill="none" stroke="black" cx="719" cy="-375" rx="174.669" ry="18"/>
<text text-anchor="middle" x="719" y="-371.3" font-family="Times,serif" font-size="14.00">tensorflow::DirectionSession::ExtendLocked()</text>
</a>
</g>
</g>
<!-- 09&#45;&gt;10 -->
<g id="edge12" class="edge"><title>09&#45;&gt;10</title>
<path fill="none" stroke="black" d="M677.314,-429.055C683.837,-420.753 691.827,-410.584 699.06,-401.378"/>
<polygon fill="black" stroke="black" points="702,-403.301 705.427,-393.275 696.496,-398.976 702,-403.301"/>
</g>
<!-- 11 -->
<g id="node14" class="node"><title>11</title>
<g id="a_node14"><a xlink:href="https://github.com/ROCmSoftwarePlatform/tensorflow/blob/rocm-v1/tensorflow/core/common_runtime/direct_session.cc#L332" xlink:title="tensorflow::DirectionSession::MaybeInitializeExecutionState()">
<ellipse fill="none" stroke="black" cx="748" cy="-303" rx="233.159" ry="18"/>
<text text-anchor="middle" x="748" y="-299.3" font-family="Times,serif" font-size="14.00">tensorflow::DirectionSession::MaybeInitializeExecutionState()</text>
</a>
</g>
</g>
<!-- 10&#45;&gt;11 -->
<g id="edge13" class="edge"><title>10&#45;&gt;11</title>
<path fill="none" stroke="black" d="M726.169,-356.697C729.435,-348.813 733.374,-339.304 737.002,-330.546"/>
<polygon fill="black" stroke="black" points="740.32,-331.683 740.914,-321.104 733.853,-329.003 740.32,-331.683"/>
</g>
<!-- 12 -->
<g id="node15" class="node"><title>12</title>
<g id="a_node15"><a xlink:href="https://github.com/ROCmSoftwarePlatform/tensorflow/blob/rocm-v1/tensorflow/core/framework/function.cc#L870" xlink:title="tensorflow::FunctionLibraryDefinition::FunctionLibraryDefinition()">
<ellipse fill="none" stroke="black" cx="493" cy="-220" rx="250.756" ry="18"/>
<text text-anchor="middle" x="493" y="-216.3" font-family="Times,serif" font-size="14.00">tensorflow::FunctionLibraryDefinition::FunctionLibraryDefinition()</text>
</a>
</g>
</g>
<!-- 11&#45;&gt;12 -->
<g id="edge14" class="edge"><title>11&#45;&gt;12</title>
<path fill="none" stroke="black" d="M695.782,-285.413C655.007,-272.461 598.228,-254.425 555.12,-240.732"/>
<polygon fill="black" stroke="black" points="556.176,-237.396 545.586,-237.704 554.057,-244.067 556.176,-237.396"/>
</g>
<!-- 13 -->
<g id="node16" class="node"><title>13</title>
<g id="a_node16"><a xlink:href="https://github.com/ROCmSoftwarePlatform/tensorflow/blob/rocm-v1/tensorflow/core/common_runtime/simple_graph_execution_state.cc#L74" xlink:title="tensorflow::SimpleGraphExecutionState::MakeForBaseGraph()">
<ellipse fill="none" stroke="black" cx="1004" cy="-220" rx="235.858" ry="18"/>
<text text-anchor="middle" x="1004" y="-216.3" font-family="Times,serif" font-size="14.00">tensorflow::SimpleGraphExecutionState::MakeForBaseGraph()</text>
</a>
</g>
</g>
<!-- 11&#45;&gt;13 -->
<g id="edge15" class="edge"><title>11&#45;&gt;13</title>
<path fill="none" stroke="black" d="M800.423,-285.413C841.494,-272.418 898.738,-254.305 942.068,-240.596"/>
<polygon fill="black" stroke="black" points="943.169,-243.919 951.647,-237.565 941.057,-237.245 943.169,-243.919"/>
</g>
<!-- 14 -->
<g id="node17" class="node"><title>14</title>
<g id="a_node17"><a xlink:href="https://github.com/ROCmSoftwarePlatform/tensorflow/blob/rocm-v1/tensorflow/core/common_runtime/simple_graph_execution_state.cc#L237" xlink:title="tensorflow::SimpleGraphExecutionState::InitBaseGraph()">
<ellipse fill="none" stroke="black" cx="1004" cy="-148" rx="215.562" ry="18"/>
<text text-anchor="middle" x="1004" y="-144.3" font-family="Times,serif" font-size="14.00">tensorflow::SimpleGraphExecutionState::InitBaseGraph()</text>
</a>
</g>
</g>
<!-- 13&#45;&gt;14 -->
<g id="edge16" class="edge"><title>13&#45;&gt;14</title>
<path fill="none" stroke="black" d="M1004,-201.697C1004,-193.983 1004,-184.712 1004,-176.112"/>
<polygon fill="black" stroke="black" points="1007.5,-176.104 1004,-166.104 1000.5,-176.104 1007.5,-176.104"/>
</g>
<!-- 15 -->
<g id="node18" class="node"><title>15</title>
<g id="a_node18"><a xlink:href="https://github.com/ROCmSoftwarePlatform/tensorflow/blob/rocm-v1/tensorflow/core/graph/costmodel.cc#L480" xlink:title="tensorflow::CostModel::InitFromGraph()">
<ellipse fill="none" stroke="black" cx="540" cy="-65" rx="157.072" ry="18"/>
<text text-anchor="middle" x="540" y="-61.3" font-family="Times,serif" font-size="14.00">tensorflow::CostModel::InitFromGraph()</text>
</a>
</g>
</g>
<!-- 14&#45;&gt;15 -->
<g id="edge17" class="edge"><title>14&#45;&gt;15</title>
<path fill="none" stroke="black" d="M853.95,-135.062C807.262,-130.051 755.775,-123.193 709,-114 671.707,-106.67 630.677,-95.1034 598.385,-85.161"/>
<polygon fill="black" stroke="black" points="599.246,-81.7634 588.658,-82.1341 597.166,-88.4473 599.246,-81.7634"/>
</g>
<!-- 16 -->
<g id="node19" class="node"><title>16</title>
<g id="a_node19"><a xlink:href="https://github.com/ROCmSoftwarePlatform/tensorflow/blob/rocm-v1/tensorflow/core/graph/costmodel.cc#L77" xlink:title="tensorflow::CostModel::MergeFromGlobal()">
<ellipse fill="none" stroke="black" cx="194" cy="-65" rx="170.07" ry="18"/>
<text text-anchor="middle" x="194" y="-61.3" font-family="Times,serif" font-size="14.00">tensorflow::CostModel::MergeFromGlobal()</text>
</a>
</g>
</g>
<!-- 14&#45;&gt;16 -->
<g id="edge18" class="edge"><title>14&#45;&gt;16</title>
<path fill="none" stroke="black" d="M804.586,-141.066C651.779,-135.671 453.991,-126.619 374,-114 333.293,-107.578 288.514,-95.6573 253.803,-85.3026"/>
<polygon fill="black" stroke="black" points="254.416,-81.8317 243.831,-82.2887 252.391,-88.5323 254.416,-81.8317"/>
</g>
<!-- 17 -->
<g id="node20" class="node"><title>17</title>
<g id="a_node20"><a xlink:href="https://github.com/ROCmSoftwarePlatform/tensorflow/blob/rocm-v1/tensorflow/core/common_runtime/optimization_registry.cc#L47" xlink:title="tensorflow::OptimizationPassRegistry::RunGrouping(PRE_PLACEMENT)">
<ellipse fill="none" stroke="black" cx="1584" cy="-65" rx="278.351" ry="18"/>
<text text-anchor="middle" x="1584" y="-61.3" font-family="Times,serif" font-size="14.00">tensorflow::OptimizationPassRegistry::RunGrouping(PRE_PLACEMENT)</text>
</a>
</g>
</g>
<!-- 14&#45;&gt;17 -->
<g id="edge19" class="edge"><title>14&#45;&gt;17</title>
<path fill="none" stroke="black" d="M1135.01,-133.68C1185.41,-128.166 1243.45,-121.343 1296,-114 1358.97,-105.2 1429.38,-93.4988 1484.82,-83.8527"/>
<polygon fill="black" stroke="black" points="1485.74,-87.2446 1494.99,-82.0767 1484.54,-80.3489 1485.74,-87.2446"/>
</g>
<!-- 19 -->
<g id="node21" class="node"><title>19</title>
<g id="a_node21"><a xlink:href="https://github.com/ROCmSoftwarePlatform/tensorflow/blob/rocm-v1/tensorflow/core/common_runtime/optimization_registry.cc#L47" xlink:title="tensorflow::OptimizationPassRegistry::RunGrouping(POST_PLACEMENT)">
<ellipse fill="none" stroke="black" cx="1004" cy="-65" rx="283.25" ry="18"/>
<text text-anchor="middle" x="1004" y="-61.3" font-family="Times,serif" font-size="14.00">tensorflow::OptimizationPassRegistry::RunGrouping(POST_PLACEMENT)</text>
</a>
</g>
</g>
<!-- 14&#45;&gt;19 -->
<g id="edge20" class="edge"><title>14&#45;&gt;19</title>
<path fill="none" stroke="black" d="M1004,-129.822C1004,-119.19 1004,-105.306 1004,-93.2035"/>
<polygon fill="black" stroke="black" points="1007.5,-93.1532 1004,-83.1533 1000.5,-93.1533 1007.5,-93.1532"/>
</g>
<!-- 18 -->
<g id="node22" class="node"><title>18</title>
<g id="a_node22"><a xlink:href="https://github.com/ROCmSoftwarePlatform/tensorflow/blob/rocm-v1/tensorflow/core/common_runtime/simple_placer.cc#L652" xlink:title="tensorflow::SimplePlacer::Run()">
<ellipse fill="none" stroke="black" cx="2012" cy="-65" rx="126.178" ry="18"/>
<text text-anchor="middle" x="2012" y="-61.3" font-family="Times,serif" font-size="14.00">tensorflow::SimplePlacer::Run()</text>
</a>
</g>
</g>
<!-- 14&#45;&gt;18 -->
<g id="edge21" class="edge"><title>14&#45;&gt;18</title>
<path fill="none" stroke="black" d="M1219.09,-146.114C1435.3,-143.915 1753.32,-136.75 1874,-114 1905.41,-108.078 1939.34,-96.3544 1965.7,-85.9762"/>
<polygon fill="black" stroke="black" points="1967.07,-89.198 1975.04,-82.2268 1964.46,-82.7011 1967.07,-89.198"/>
</g>
</g>
</svg>
