<?xml version="1.0" encoding="UTF-8" standalone="no"?>
<!DOCTYPE svg PUBLIC "-//W3C//DTD SVG 1.1//EN"
 "http://www.w3.org/Graphics/SVG/1.1/DTD/svg11.dtd">
<!-- Generated by graphviz version 2.38.0 (20140413.2041)
 -->
<!-- Title: 01 Pages: 1 -->
<svg width="1829pt" height="826pt"
 viewBox="0.00 0.00 1829.00 826.00" xmlns="http://www.w3.org/2000/svg" xmlns:xlink="http://www.w3.org/1999/xlink">
<g id="graph0" class="graph" transform="scale(1 1) rotate(0) translate(4 822)">
<title>01</title>
<polygon fill="white" stroke="none" points="-4,4 -4,-822 1825,-822 1825,4 -4,4"/>
<text text-anchor="middle" x="910.5" y="-7.8" font-family="Times,serif" font-size="14.00">inside DirectSession::Run()</text>
<g id="clust1" class="cluster"><title>cluster_cxx</title>
<polygon fill="none" stroke="black" points="8,-394 8,-810 1666,-810 1666,-394 8,-394"/>
<text text-anchor="middle" x="837" y="-794.8" font-family="Times,serif" font-size="14.00">C++</text>
</g>
<g id="clust2" class="cluster"><title>cluster_direction_session_cc</title>
<g id="a_clust2"><a xlink:href="https://github.com/ROCmSoftwarePlatform/tensorflow/blob/rocm-v1/tensorflow/core/common_runtime/direct_session.cc" xlink:title="tensorflow/core/common_runtime/direct_session.cc">
<polygon fill="none" stroke="black" points="46,-560 46,-779 470,-779 470,-560 46,-560"/>
<text text-anchor="middle" x="258" y="-763.8" font-family="Times,serif" font-size="14.00">tensorflow/core/common_runtime/direct_session.cc</text>
</a>
</g>
</g>
<g id="clust3" class="cluster"><title>cluster_simple_graph_execution_state_cc</title>
<g id="a_clust3"><a xlink:href="https://github.com/ROCmSoftwarePlatform/tensorflow/blob/rocm-v1/tensorflow/core/common_runtime/simple_graph_execution_state.cc" xlink:title="tensorflow/core/common_runtime/simple_graph_execution_state.cc">
<polygon fill="none" stroke="black" points="16,-402 16,-552 472,-552 472,-402 16,-402"/>
<text text-anchor="middle" x="244" y="-536.8" font-family="Times,serif" font-size="14.00">tensorflow/core/common_runtime/simple_graph_execution_state.cc</text>
</a>
</g>
</g>
<g id="clust4" class="cluster"><title>cluster_function_cc</title>
<g id="a_clust4"><a xlink:href="https://github.com/ROCmSoftwarePlatform/tensorflow/blob/rocm-v1/tensorflow/core/framework/function.cc" xlink:title="tensorflow/core/framework/function.cc">
<polygon fill="none" stroke="black" points="480,-402 480,-477 998,-477 998,-402 480,-402"/>
<text text-anchor="middle" x="739" y="-461.8" font-family="Times,serif" font-size="14.00">tensorflow/core/framework/function.cc</text>
</a>
</g>
</g>
<g id="clust5" class="cluster"><title>cluster_optimization_registry_cc</title>
<g id="a_clust5"><a xlink:href="https://github.com/ROCmSoftwarePlatform/tensorflow/blob/rocm-v1/tensorflow/core/common_runtime/optimization_registry.cc" xlink:title="tensorflow/core/common_runtime/optimization_registry.cc">
<polygon fill="none" stroke="black" points="1006,-402 1006,-477 1658,-477 1658,-402 1006,-402"/>
<text text-anchor="middle" x="1332" y="-461.8" font-family="Times,serif" font-size="14.00">tensorflow/core/common_runtime/optimization_registry.cc</text>
</a>
</g>
</g>
<g id="clust6" class="cluster"><title>cluster_XLA</title>
<polygon fill="none" stroke="black" points="1094,-31 1094,-386 1813,-386 1813,-31 1094,-31"/>
<text text-anchor="middle" x="1453.5" y="-370.8" font-family="Times,serif" font-size="14.00">XLA</text>
</g>
<g id="clust7" class="cluster"><title>cluster_jit_compilation_pass_registration_cc</title>
<g id="a_clust7"><a xlink:href="https://github.com/ROCmSoftwarePlatform/tensorflow/blob/rocm-v1/tensorflow/compiler/jit/jit_compilation_pass_registration.cc" xlink:title="tensorflow/compiler/jit/jit_compilation_pass_registration.cc">
<polygon fill="none" stroke="black" points="1102,-122 1102,-355 1445,-355 1445,-122 1102,-122"/>
<text text-anchor="middle" x="1273.5" y="-339.8" font-family="Times,serif" font-size="14.00">tensorflow/compiler/jit/jit_compilation_pass_registration.cc</text>
</a>
</g>
</g>
<g id="clust8" class="cluster"><title>cluster_mark_for_compilation_pass_cc</title>
<g id="a_clust8"><a xlink:href="https://github.com/ROCmSoftwarePlatform/tensorflow/blob/rocm-v1/tensorflow/compiler/jit/mark_for_compilation_pass.cc" xlink:title="tensorflow/compiler/jit/mark_for_compilation_pass.cc">
<polygon fill="none" stroke="black" points="1453,-205 1453,-280 1797,-280 1797,-205 1453,-205"/>
<text text-anchor="middle" x="1625" y="-264.8" font-family="Times,serif" font-size="14.00">tensorflow/compiler/jit/mark_for_compilation_pass.cc</text>
</a>
</g>
</g>
<g id="clust9" class="cluster"><title>cluster_encapsulate_subgraph_pass_cc</title>
<g id="a_clust9"><a xlink:href="https://github.com/ROCmSoftwarePlatform/tensorflow/blob/rocm-v1/tensorflow/compiler/jit/encapsulate_subgraphs_pass.cc" xlink:title="tensorflow/compiler/jit/encapsulate_subgraphs_pass.cc">
<polygon fill="none" stroke="black" points="1453,-122 1453,-197 1805,-197 1805,-122 1453,-122"/>
<text text-anchor="middle" x="1629" y="-181.8" font-family="Times,serif" font-size="14.00">tensorflow/compiler/jit/encapsulate_subgraphs_pass.cc</text>
</a>
</g>
</g>
<g id="clust10" class="cluster"><title>cluster_build_xla_launch_ops_pass_cc</title>
<g id="a_clust10"><a xlink:href="https://github.com/ROCmSoftwarePlatform/tensorflow/blob/rocm-v1/tensorflow/compiler/jit/build_xla_launch_ops_pass.cc" xlink:title="tensorflow/compiler/jit/build_xla_launch_ops_pass.cc">
<polygon fill="none" stroke="black" points="1162,-39 1162,-114 1500,-114 1500,-39 1162,-39"/>
<text text-anchor="middle" x="1331" y="-98.8" font-family="Times,serif" font-size="14.00">tensorflow/compiler/jit/build_xla_launch_ops_pass.cc</text>
</a>
</g>
</g>
<!-- 00 -->
<g id="node1" class="node"><title>00</title>
<g id="a_node1"><a xlink:href="https://github.com/ROCmSoftwarePlatform/tensorflow/blob/rocm-v1/tensorflow/core/common_runtime/direct_session.cc#L431" xlink:title="tensorflow::DirectionSession::Run()">
<ellipse fill="none" stroke="black" cx="258" cy="-730" rx="138.375" ry="18"/>
<text text-anchor="middle" x="258" y="-726.3" font-family="Times,serif" font-size="14.00">tensorflow::DirectionSession::Run()</text>
</a>
</g>
</g>
<!-- 01 -->
<g id="node2" class="node"><title>01</title>
<g id="a_node2"><a xlink:href="https://github.com/ROCmSoftwarePlatform/tensorflow/blob/rocm-v1/tensorflow/core/common_runtime/direct_session.cc#L1035" xlink:title="tensorflow::DirectionSession::GetOrCreateExecutors()">
<ellipse fill="none" stroke="black" cx="258" cy="-658" rx="204.164" ry="18"/>
<text text-anchor="middle" x="258" y="-654.3" font-family="Times,serif" font-size="14.00">tensorflow::DirectionSession::GetOrCreateExecutors()</text>
</a>
</g>
</g>
<!-- 00&#45;&gt;01 -->
<g id="edge1" class="edge"><title>00&#45;&gt;01</title>
<path fill="none" stroke="black" d="M258,-711.697C258,-703.983 258,-694.712 258,-686.112"/>
<polygon fill="black" stroke="black" points="261.5,-686.104 258,-676.104 254.5,-686.104 261.5,-686.104"/>
</g>
<!-- 02 -->
<g id="node3" class="node"><title>02</title>
<g id="a_node3"><a xlink:href="https://github.com/ROCmSoftwarePlatform/tensorflow/blob/rocm-v1/tensorflow/core/common_runtime/direct_session.cc#L1255" xlink:title="tensorflow::DirectionSession::CreateGraphs()">
<ellipse fill="none" stroke="black" cx="258" cy="-586" rx="172.47" ry="18"/>
<text text-anchor="middle" x="258" y="-582.3" font-family="Times,serif" font-size="14.00">tensorflow::DirectionSession::CreateGraphs()</text>
</a>
</g>
</g>
<!-- 01&#45;&gt;02 -->
<g id="edge2" class="edge"><title>01&#45;&gt;02</title>
<path fill="none" stroke="black" d="M258,-639.697C258,-631.983 258,-622.712 258,-614.112"/>
<polygon fill="black" stroke="black" points="261.5,-614.104 258,-604.104 254.5,-614.104 261.5,-614.104"/>
</g>
<!-- 03 -->
<g id="node4" class="node"><title>03</title>
<g id="a_node4"><a xlink:href="https://github.com/ROCmSoftwarePlatform/tensorflow/blob/rocm-v1/tensorflow/core/common_runtime/simple_graph_execution_state.cc#L376" xlink:title="tensorflow::SimpleGraphExecutionState::BuildGraph()">
<ellipse fill="none" stroke="black" cx="258" cy="-503" rx="206.063" ry="18"/>
<text text-anchor="middle" x="258" y="-499.3" font-family="Times,serif" font-size="14.00">tensorflow::SimpleGraphExecutionState::BuildGraph()</text>
</a>
</g>
</g>
<!-- 02&#45;&gt;03 -->
<g id="edge3" class="edge"><title>02&#45;&gt;03</title>
<path fill="none" stroke="black" d="M258,-567.822C258,-557.19 258,-543.306 258,-531.204"/>
<polygon fill="black" stroke="black" points="261.5,-531.153 258,-521.153 254.5,-531.153 261.5,-531.153"/>
</g>
<!-- 04 -->
<g id="node5" class="node"><title>04</title>
<g id="a_node5"><a xlink:href="https://github.com/ROCmSoftwarePlatform/tensorflow/blob/rocm-v1/tensorflow/core/common_runtime/simple_graph_execution_state.cc#L290" xlink:title="tensorflow::SimpleGraphExecutionState::OptimizeGraph()">
<ellipse fill="none" stroke="black" cx="244" cy="-428" rx="219.861" ry="18"/>
<text text-anchor="middle" x="244" y="-424.3" font-family="Times,serif" font-size="14.00">tensorflow::SimpleGraphExecutionState::OptimizeGraph()</text>
</a>
</g>
</g>
<!-- 03&#45;&gt;04 -->
<g id="edge4" class="edge"><title>03&#45;&gt;04</title>
<path fill="none" stroke="black" d="M254.682,-484.7C253.043,-476.154 251.028,-465.645 249.191,-456.067"/>
<polygon fill="black" stroke="black" points="252.615,-455.338 247.294,-446.176 245.74,-456.656 252.615,-455.338"/>
</g>
<!-- 05 -->
<g id="node6" class="node"><title>05</title>
<g id="a_node6"><a xlink:href="https://github.com/ROCmSoftwarePlatform/tensorflow/blob/rocm-v1/tensorflow/core/framework/function.cc#L878" xlink:title="tensorflow::FunctionLibraryDefinition::FunctionLibraryDefinition()">
<ellipse fill="none" stroke="black" cx="739" cy="-428" rx="250.756" ry="18"/>
<text text-anchor="middle" x="739" y="-424.3" font-family="Times,serif" font-size="14.00">tensorflow::FunctionLibraryDefinition::FunctionLibraryDefinition()</text>
</a>
</g>
</g>
<!-- 03&#45;&gt;05 -->
<g id="edge5" class="edge"><title>03&#45;&gt;05</title>
<path fill="none" stroke="black" d="M385.276,-488.842C415.092,-485.362 446.702,-481.349 476,-477 533.676,-468.439 598.079,-456.722 648.717,-447.007"/>
<polygon fill="black" stroke="black" points="649.498,-450.421 658.656,-445.092 648.174,-443.547 649.498,-450.421"/>
</g>
<!-- 06 -->
<g id="node7" class="node"><title>06</title>
<g id="a_node7"><a xlink:href="https://github.com/ROCmSoftwarePlatform/tensorflow/blob/rocm-v1/tensorflow/core/common_runtime/optimization_registry.cc#L47" xlink:title="tensorflow::OptimizationPassRegistry::RunGrouping(POST_REWRITE_FOR_EXEC)">
<ellipse fill="none" stroke="black" cx="1332" cy="-428" rx="318.443" ry="18"/>
<text text-anchor="middle" x="1332" y="-424.3" font-family="Times,serif" font-size="14.00">tensorflow::OptimizationPassRegistry::RunGrouping(POST_REWRITE_FOR_EXEC)</text>
</a>
</g>
</g>
<!-- 03&#45;&gt;06 -->
<g id="edge6" class="edge"><title>03&#45;&gt;06</title>
<path fill="none" stroke="black" d="M463.243,-501.21C612.861,-499.149 820.333,-493.214 1002,-477 1078.49,-470.173 1164.32,-457.533 1229.27,-446.937"/>
<polygon fill="black" stroke="black" points="1230.21,-450.33 1239.51,-445.255 1229.07,-443.422 1230.21,-450.33"/>
</g>
<!-- 07 -->
<g id="node8" class="node"><title>07</title>
<g id="a_node8"><a xlink:href="https://github.com/ROCmSoftwarePlatform/tensorflow/blob/rocm-v1/tensorflow/compiler/jit/jit_compilation_pass_registration.cc#L23" xlink:title="MarkForCompilationPass">
<ellipse fill="none" stroke="black" cx="1332" cy="-306" rx="102.882" ry="18"/>
<text text-anchor="middle" x="1332" y="-302.3" font-family="Times,serif" font-size="14.00">MarkForCompilationPass</text>
</a>
</g>
</g>
<!-- 06&#45;&gt;07 -->
<g id="edge7" class="edge"><title>06&#45;&gt;07</title>
<path fill="none" stroke="black" d="M1332,-409.807C1332,-390.114 1332,-357.583 1332,-334.39"/>
<polygon fill="black" stroke="black" points="1335.5,-334.161 1332,-324.161 1328.5,-334.161 1335.5,-334.161"/>
</g>
<!-- 08 -->
<g id="node9" class="node"><title>08</title>
<g id="a_node9"><a xlink:href="https://github.com/ROCmSoftwarePlatform/tensorflow/blob/rocm-v1/tensorflow/compiler/jit/jit_compilation_pass_registration.cc#L30" xlink:title="EncapsulateSubgraphsPass">
<ellipse fill="none" stroke="black" cx="1331" cy="-231" rx="105.881" ry="18"/>
<text text-anchor="middle" x="1331" y="-227.3" font-family="Times,serif" font-size="14.00">EncapsulateSubgraphsPass</text>
</a>
</g>
</g>
<!-- 07&#45;&gt;08 -->
<g id="edge8" class="edge"><title>07&#45;&gt;08</title>
<path fill="none" stroke="black" d="M1331.76,-287.7C1331.65,-279.245 1331.51,-268.869 1331.37,-259.373"/>
<polygon fill="black" stroke="black" points="1334.87,-259.127 1331.24,-249.176 1327.87,-259.223 1334.87,-259.127"/>
</g>
<!-- 10 -->
<g id="node11" class="node"><title>10</title>
<g id="a_node11"><a xlink:href="https://github.com/ROCmSoftwarePlatform/tensorflow/blob/rocm-v1/tensorflow/compiler/jit/mark_for_compilation_pass.cc#L231" xlink:title="tensorflow::MarkForCompilationPass::Run">
<ellipse fill="none" stroke="black" cx="1625" cy="-231" rx="164.371" ry="18"/>
<text text-anchor="middle" x="1625" y="-227.3" font-family="Times,serif" font-size="14.00">tensorflow::MarkForCompilationPass::Run</text>
</a>
</g>
</g>
<!-- 07&#45;&gt;10 -->
<g id="edge10" class="edge"><title>07&#45;&gt;10</title>
<path fill="none" stroke="black" d="M1396.52,-291.888C1413.62,-288.228 1432.05,-284.12 1449,-280 1485.68,-271.088 1526.35,-260.071 1559.34,-250.841"/>
<polygon fill="black" stroke="black" points="1560.64,-254.111 1569.32,-248.038 1558.75,-247.372 1560.64,-254.111"/>
</g>
<!-- 09 -->
<g id="node10" class="node"><title>09</title>
<g id="a_node10"><a xlink:href="https://github.com/ROCmSoftwarePlatform/tensorflow/blob/rocm-v1/tensorflow/compiler/jit/jit_compilation_pass_registration.cc#L34" xlink:title="BuildXlaLaunchOpsPass">
<ellipse fill="none" stroke="black" cx="1331" cy="-148" rx="98.5829" ry="18"/>
<text text-anchor="middle" x="1331" y="-144.3" font-family="Times,serif" font-size="14.00">BuildXlaLaunchOpsPass</text>
</a>
</g>
</g>
<!-- 08&#45;&gt;09 -->
<g id="edge9" class="edge"><title>08&#45;&gt;09</title>
<path fill="none" stroke="black" d="M1331,-212.822C1331,-202.19 1331,-188.306 1331,-176.204"/>
<polygon fill="black" stroke="black" points="1334.5,-176.153 1331,-166.153 1327.5,-176.153 1334.5,-176.153"/>
</g>
<!-- 11 -->
<g id="node12" class="node"><title>11</title>
<g id="a_node12"><a xlink:href="https://github.com/ROCmSoftwarePlatform/tensorflow/blob/rocm-v1/tensorflow/compiler/jit/encapsulate_subgraphs_pass.cc#L613" xlink:title="tensorflow::EncpasulateSubgraphsPass::Run">
<ellipse fill="none" stroke="black" cx="1629" cy="-148" rx="167.87" ry="18"/>
<text text-anchor="middle" x="1629" y="-144.3" font-family="Times,serif" font-size="14.00">tensorflow::EncpasulateSubgraphsPass::Run</text>
</a>
</g>
</g>
<!-- 08&#45;&gt;11 -->
<g id="edge11" class="edge"><title>08&#45;&gt;11</title>
<path fill="none" stroke="black" d="M1384.62,-215.425C1433.92,-202.026 1507.25,-182.094 1560.71,-167.561"/>
<polygon fill="black" stroke="black" points="1561.72,-170.913 1570.46,-164.913 1559.89,-164.158 1561.72,-170.913"/>
</g>
<!-- 12 -->
<g id="node13" class="node"><title>12</title>
<g id="a_node13"><a xlink:href="https://github.com/ROCmSoftwarePlatform/tensorflow/blob/rocm-v1/tensorflow/compiler/jit/build_xla_launch_ops_pass.cc#L123" xlink:title="tensorflow::BuildXlaLaunchOpsPass::Run">
<ellipse fill="none" stroke="black" cx="1331" cy="-65" rx="161.372" ry="18"/>
<text text-anchor="middle" x="1331" y="-61.3" font-family="Times,serif" font-size="14.00">tensorflow::BuildXlaLaunchOpsPass::Run</text>
</a>
</g>
</g>
<!-- 09&#45;&gt;12 -->
<g id="edge12" class="edge"><title>09&#45;&gt;12</title>
<path fill="none" stroke="black" d="M1331,-129.822C1331,-119.19 1331,-105.306 1331,-93.2035"/>
<polygon fill="black" stroke="black" points="1334.5,-93.1532 1331,-83.1533 1327.5,-93.1533 1334.5,-93.1532"/>
</g>
</g>
</svg>
