<?xml version="1.0" encoding="UTF-8" standalone="no"?>
<!DOCTYPE svg PUBLIC "-//W3C//DTD SVG 1.1//EN"
 "http://www.w3.org/Graphics/SVG/1.1/DTD/svg11.dtd">
<!-- Generated by graphviz version 2.38.0 (20140413.2041)
 -->
<!-- Title: 04 Pages: 1 -->
<svg width="3246pt" height="1064pt"
 viewBox="0.00 0.00 3246.19 1064.00" xmlns="http://www.w3.org/2000/svg" xmlns:xlink="http://www.w3.org/1999/xlink">
<g id="graph0" class="graph" transform="scale(1 1) rotate(0) translate(4 1060)">
<title>04</title>
<polygon fill="white" stroke="none" points="-4,4 -4,-1060 3242.19,-1060 3242.19,4 -4,4"/>
<text text-anchor="middle" x="1619.1" y="-7.8" font-family="Times,serif" font-size="14.00">XlaDeviceLaunch::Compute</text>
<g id="clust1" class="cluster"><title>cluster_xla</title>
<polygon fill="none" stroke="black" points="8,-31 8,-1048 2241,-1048 2241,-31 8,-31"/>
<text text-anchor="middle" x="1124.5" y="-1032.8" font-family="Times,serif" font-size="14.00">XLA</text>
</g>
<g id="clust2" class="cluster"><title>cluster_xla_device_launch_op_cc</title>
<g id="a_clust2"><a xlink:href="https://github.com/ROCmSoftwarePlatform/tensorflow/blob/rocm-v1/tensorflow/compiler/jit/kernels/xla_device_launch_op.cc" xlink:title="tensorflow/compier/jit/kernels/xla_device_launch_op.cc">
<polygon fill="none" stroke="black" points="797,-870 797,-1017 1155,-1017 1155,-870 797,-870"/>
<text text-anchor="middle" x="976" y="-1001.8" font-family="Times,serif" font-size="14.00">tensorflow/compier/jit/kernels/xla_device_launch_op.cc</text>
</a>
</g>
</g>
<g id="clust3" class="cluster"><title>cluster_xla_compilation_cache_cc</title>
<g id="a_clust3"><a xlink:href="https://github.com/ROCmSoftwarePlatform/tensorflow/blob/rocm-v1/tensorflow/compiler/jit/xla_compilation_cache.cc" xlink:title="tensorflow/compier/jit/xla_compilation_cache.cc">
<polygon fill="none" stroke="black" points="342,-712 342,-862 1172,-862 1172,-712 342,-712"/>
<text text-anchor="middle" x="757" y="-846.8" font-family="Times,serif" font-size="14.00">tensorflow/compier/jit/xla_compilation_cache.cc</text>
</a>
</g>
</g>
<g id="clust4" class="cluster"><title>cluster_xla_compiler_cc</title>
<g id="a_clust4"><a xlink:href="https://github.com/ROCmSoftwarePlatform/tensorflow/blob/rocm-v1/tensorflow/compiler/tf2xla/xla_compiler.cc" xlink:title="tensorflow/compier/tf2xla/xla_compiler.cc">
<polygon fill="none" stroke="black" points="1180,-546 1180,-787 1896,-787 1896,-546 1180,-546"/>
<text text-anchor="middle" x="1538" y="-771.8" font-family="Times,serif" font-size="14.00">tensorflow/compier/tf2xla/xla_compiler.cc</text>
</a>
</g>
</g>
<g id="clust5" class="cluster"><title>cluster_graph_optimizer_cc</title>
<g id="a_clust5"><a xlink:href="https://github.com/ROCmSoftwarePlatform/tensorflow/blob/rocm-v1/tensorflow/core/common_runtime/graph_optimizer.cc" xlink:title="tensorflow/core/common_runtime/graph_optimizer.cc">
<polygon fill="none" stroke="black" points="1904,-629 1904,-704 2230,-704 2230,-629 1904,-629"/>
<text text-anchor="middle" x="2067" y="-688.8" font-family="Times,serif" font-size="14.00">tensorflow/core/common_runtime/graph_optimizer.cc</text>
</a>
</g>
</g>
<g id="clust6" class="cluster"><title>cluster_functionalize_control_flow_cc</title>
<g id="a_clust6"><a xlink:href="https://github.com/ROCmSoftwarePlatform/tensorflow/blob/rocm-v1/tensorflow/compiler/tf2xla/functionalize_control_flow.cc" xlink:title="tensorflow/compiler/tf2xla/functionalize_control_flow.cc">
<polygon fill="none" stroke="black" points="1904,-546 1904,-621 2233,-621 2233,-546 1904,-546"/>
<text text-anchor="middle" x="2068.5" y="-605.8" font-family="Times,serif" font-size="14.00">tensorflow/compiler/tf2xla/functionalize_control_flow.cc</text>
</a>
</g>
</g>
<g id="clust7" class="cluster"><title>cluster_computation_builder_cc</title>
<g id="a_clust7"><a xlink:href="https://github.com/ROCmSoftwarePlatform/tensorflow/blob/rocm-v1/tensorflow/compiler/xla/client/computation_builder.cc" xlink:title="tensorflow/compiler/xla/client/computation_builder.cc">
<polygon fill="none" stroke="black" points="777,-288 777,-507 1929,-507 1929,-288 777,-288"/>
<text text-anchor="middle" x="1353" y="-491.8" font-family="Times,serif" font-size="14.00">tensorflow/compiler/xla/client/computation_builder.cc</text>
</a>
</g>
</g>
<g id="clust8" class="cluster"><title>cluster_service_cc</title>
<g id="a_clust8"><a xlink:href="https://github.com/ROCmSoftwarePlatform/tensorflow/blob/rocm-v1/tensorflow/compiler/xla/service/service.cc" xlink:title="tensorflow/compiler/xla/service/service.cc">
<polygon fill="none" stroke="black" points="900,-205 900,-280 1438,-280 1438,-205 900,-205"/>
<text text-anchor="middle" x="1169" y="-264.8" font-family="Times,serif" font-size="14.00">tensorflow/compiler/xla/service/service.cc</text>
</a>
</g>
</g>
<g id="clust9" class="cluster"><title>cluster_computation_tracker_cc</title>
<g id="a_clust9"><a xlink:href="https://github.com/ROCmSoftwarePlatform/tensorflow/blob/rocm-v1/tensorflow/compiler/xla/service/computation_trakcer.cc" xlink:title="tensorflow/compiler/xla/service/computation_tracker.cc">
<polygon fill="none" stroke="black" points="792,-122 792,-197 1156,-197 1156,-122 792,-122"/>
<text text-anchor="middle" x="974" y="-181.8" font-family="Times,serif" font-size="14.00">tensorflow/compiler/xla/service/computation_tracker.cc</text>
</a>
</g>
</g>
<g id="clust10" class="cluster"><title>cluster_user_computation_cc</title>
<g id="a_clust10"><a xlink:href="https://github.com/ROCmSoftwarePlatform/tensorflow/blob/rocm-v1/tensorflow/compiler/xla/service/user_computation.cc" xlink:title="tensorflow/compiler/xla/service/user_computation.cc">
<polygon fill="none" stroke="black" points="792,-39 792,-114 1506,-114 1506,-39 792,-39"/>
<text text-anchor="middle" x="1149" y="-98.8" font-family="Times,serif" font-size="14.00">tensorflow/compiler/xla/service/user_computation.cc</text>
</a>
</g>
</g>
<g id="clust11" class="cluster"><title>cluster_xla_compilation_device_cc</title>
<g id="a_clust11"><a xlink:href="https://github.com/ROCmSoftwarePlatform/tensorflow/blob/rocm-v1/tensorflow/compiler/tf2xla/xla_compilation_device.cc" xlink:title="tensorflow/compiler/tf2xla/xla_compilation_device.cc">
<polygon fill="none" stroke="black" points="16,-712 16,-862 334,-862 334,-712 16,-712"/>
<text text-anchor="middle" x="175" y="-846.8" font-family="Times,serif" font-size="14.00">tensorflow/compiler/tf2xla/xla_compilation_device.cc</text>
</a>
</g>
</g>
<g id="clust12" class="cluster"><title>cluster_xla_op_kernel_cc</title>
<g id="a_clust12"><a xlink:href="https://github.com/ROCmSoftwarePlatform/tensorflow/blob/rocm-v1/tensorflow/compiler/tf2xla/xla_op_kernel.cc" xlink:title="tensorflow/compiler/tf2xla/xla_op_kernel.cc">
<polygon fill="none" stroke="black" points="405,-629 405,-704 664,-704 664,-629 405,-629"/>
<text text-anchor="middle" x="534.5" y="-688.8" font-family="Times,serif" font-size="14.00">tensorflow/compiler/tf2xla/xla_op_kernel.cc</text>
</a>
</g>
</g>
<g id="clust13" class="cluster"><title>cluster_cwise_ops_cc</title>
<g id="a_clust13"><a xlink:href="https://github.com/ROCmSoftwarePlatform/tensorflow/blob/rocm-v1/tensorflow/compiler/tf2xla/kernels/cwise_ops.cc" xlink:title="tensorflow/compiler/tf2xla/kernels/cwise_ops.cc">
<polygon fill="none" stroke="black" points="574,-546 574,-621 855,-621 855,-546 574,-546"/>
<text text-anchor="middle" x="714.5" y="-605.8" font-family="Times,serif" font-size="14.00">tensorflow/compiler/tf2xla/kernels/cwise_ops.cc</text>
</a>
</g>
</g>
<g id="clust15" class="cluster"><title>cluster_cxx</title>
<polygon fill="none" stroke="black" points="2249,-31 2249,-538 3226,-538 3226,-31 2249,-31"/>
<text text-anchor="middle" x="2737.5" y="-522.8" font-family="Times,serif" font-size="14.00">C++</text>
</g>
<g id="clust16" class="cluster"><title>cluster_executor_cc</title>
<g id="a_clust16"><a xlink:href="https://github.com/ROCmSoftwarePlatform/tensorflow/blob/rocm-v1/tensorflow/core/common_runtime/executor.cc" xlink:title="tensorflow/core/common_runtime/executor.cc">
<polygon fill="none" stroke="black" points="2257,-205 2257,-507 3218,-507 3218,-205 2257,-205"/>
<text text-anchor="middle" x="2737.5" y="-491.8" font-family="Times,serif" font-size="14.00">tensorflow/core/common_runtime/executor.cc</text>
</a>
</g>
</g>
<g id="clust18" class="cluster"><title>cluster_op_kernel_cc</title>
<g id="a_clust18"><a xlink:href="https://github.com/ROCmSoftwarePlatform/tensorflow/blob/rocm-v1/tensorflow/core/framework/op_kernel.cc" xlink:title="tensorflow/core/framework/op_kernel.cc">
<polygon fill="none" stroke="black" points="2339,-39 2339,-197 2623,-197 2623,-39 2339,-39"/>
<text text-anchor="middle" x="2481" y="-181.8" font-family="Times,serif" font-size="14.00">tensorflow/core/framework/op_kernel.cc</text>
</a>
</g>
</g>
<!-- 00 -->
<g id="node1" class="node"><title>00</title>
<g id="a_node1"><a xlink:href="https://github.com/ROCmSoftwarePlatform/tensorflow/blob/rocm-v1/tensorflow/compiler/jit/xla_device_launch_op.cc#L84" xlink:title="tensorflow::XlaDeviceLaunchOp::Compute()">
<ellipse fill="none" stroke="black" cx="976" cy="-968" rx="170.87" ry="18"/>
<text text-anchor="middle" x="976" y="-964.3" font-family="Times,serif" font-size="14.00">tensorflow::XlaDeviceLaunchOp::Compute()</text>
</a>
</g>
</g>
<!-- 01 -->
<g id="node2" class="node"><title>01</title>
<g id="a_node2"><a xlink:href="https://github.com/ROCmSoftwarePlatform/tensorflow/blob/rocm-v1/tensorflow/compiler/jit/xla_device_launch_op.cc#L39" xlink:title="BuildCompilationCache()">
<ellipse fill="none" stroke="black" cx="976" cy="-896" rx="102.882" ry="18"/>
<text text-anchor="middle" x="976" y="-892.3" font-family="Times,serif" font-size="14.00">BuildCompilationCache()</text>
</a>
</g>
</g>
<!-- 00&#45;&gt;01 -->
<g id="edge1" class="edge"><title>00&#45;&gt;01</title>
<path fill="none" stroke="black" d="M976,-949.697C976,-941.983 976,-932.712 976,-924.112"/>
<polygon fill="black" stroke="black" points="979.5,-924.104 976,-914.104 972.5,-924.104 979.5,-924.104"/>
</g>
<!-- 02 -->
<g id="node3" class="node"><title>02</title>
<g id="a_node3"><a xlink:href="https://github.com/ROCmSoftwarePlatform/tensorflow/blob/rocm-v1/tensorflow/compiler/jit/xla_compilation_cache.cc#L211" xlink:title="tensorflow::XlaCompilationCache::Compile()">
<ellipse fill="none" stroke="black" cx="976" cy="-813" rx="173.569" ry="18"/>
<text text-anchor="middle" x="976" y="-809.3" font-family="Times,serif" font-size="14.00">tensorflow::XlaCompilationCache::Compile()</text>
</a>
</g>
</g>
<!-- 01&#45;&gt;02 -->
<g id="edge2" class="edge"><title>01&#45;&gt;02</title>
<path fill="none" stroke="black" d="M976,-877.822C976,-867.19 976,-853.306 976,-841.204"/>
<polygon fill="black" stroke="black" points="979.5,-841.153 976,-831.153 972.5,-841.153 979.5,-841.153"/>
</g>
<!-- 03 -->
<g id="node4" class="node"><title>03</title>
<g id="a_node4"><a xlink:href="https://github.com/ROCmSoftwarePlatform/tensorflow/blob/rocm-v1/tensorflow/compiler/jit/xla_compilation_cache.cc#L94" xlink:title="tensorflow::XlaCompilationCache::BuildSignature()">
<ellipse fill="none" stroke="black" cx="546" cy="-738" rx="196.065" ry="18"/>
<text text-anchor="middle" x="546" y="-734.3" font-family="Times,serif" font-size="14.00">tensorflow::XlaCompilationCache::BuildSignature()</text>
</a>
</g>
</g>
<!-- 02&#45;&gt;03 -->
<g id="edge3" class="edge"><title>02&#45;&gt;03</title>
<path fill="none" stroke="black" d="M849.486,-800.623C817.261,-796.991 782.762,-792.463 751,-787 705.835,-779.232 655.739,-767.56 616.375,-757.671"/>
<polygon fill="black" stroke="black" points="617.161,-754.259 606.608,-755.198 615.444,-761.045 617.161,-754.259"/>
</g>
<!-- 04 -->
<g id="node5" class="node"><title>04</title>
<g id="a_node5"><a xlink:href="https://github.com/ROCmSoftwarePlatform/tensorflow/blob/rocm-v1/tensorflow/compiler/jit/xla_compilation_cache.cc#L135" xlink:title="tensorflow::XlaCompilationCache::BuildArguments()">
<ellipse fill="none" stroke="black" cx="962" cy="-738" rx="202.264" ry="18"/>
<text text-anchor="middle" x="962" y="-734.3" font-family="Times,serif" font-size="14.00">tensorflow::XlaCompilationCache::BuildArguments()</text>
</a>
</g>
</g>
<!-- 02&#45;&gt;04 -->
<g id="edge4" class="edge"><title>02&#45;&gt;04</title>
<path fill="none" stroke="black" d="M972.682,-794.7C971.043,-786.154 969.028,-775.645 967.191,-766.067"/>
<polygon fill="black" stroke="black" points="970.615,-765.338 965.294,-756.176 963.74,-766.656 970.615,-765.338"/>
</g>
<!-- 05 -->
<g id="node6" class="node"><title>05</title>
<g id="a_node6"><a xlink:href="https://github.com/ROCmSoftwarePlatform/tensorflow/blob/rocm-v1/tensorflow/compiler/tf2xla/xla_compiler.cc#L110" xlink:title="tensorflow::XlaCompiler::CompileFunction()">
<ellipse fill="none" stroke="black" cx="1716" cy="-738" rx="172.47" ry="18"/>
<text text-anchor="middle" x="1716" y="-734.3" font-family="Times,serif" font-size="14.00">tensorflow::XlaCompiler::CompileFunction()</text>
</a>
</g>
</g>
<!-- 02&#45;&gt;05 -->
<g id="edge5" class="edge"><title>02&#45;&gt;05</title>
<path fill="none" stroke="black" d="M1144.05,-808.445C1280.74,-804.817 1462.44,-798.112 1535,-787 1576.27,-780.68 1621.68,-768.621 1656.7,-758.172"/>
<polygon fill="black" stroke="black" points="1657.73,-761.517 1666.29,-755.273 1655.7,-754.817 1657.73,-761.517"/>
</g>
<!-- 99 -->
<g id="node11" class="node"><title>99</title>
<g id="a_node11"><a xlink:href="https://github.com/ROCmSoftwarePlatform/tensorflow/blob/rocm-v1/tensorflow/compiler/tf2xla/xla_compiler.cc#L161" xlink:title="tensorflow::XlaCompiler::BuildExecutable()">
<ellipse fill="none" stroke="black" cx="1357" cy="-738" rx="168.97" ry="18"/>
<text text-anchor="middle" x="1357" y="-734.3" font-family="Times,serif" font-size="14.00">tensorflow::XlaCompiler::BuildExecutable()</text>
</a>
</g>
</g>
<!-- 02&#45;&gt;99 -->
<g id="edge10" class="edge"><title>02&#45;&gt;99</title>
<path fill="none" stroke="black" d="M1094.6,-799.855C1121.47,-796.36 1149.81,-792.086 1176,-787 1215.5,-779.329 1259.12,-767.855 1293.64,-758.048"/>
<polygon fill="black" stroke="black" points="1294.94,-761.317 1303.58,-755.197 1293.01,-754.588 1294.94,-761.317"/>
</g>
<!-- 07 -->
<g id="node7" class="node"><title>07</title>
<g id="a_node7"><a xlink:href="https://github.com/ROCmSoftwarePlatform/tensorflow/blob/rocm-v1/tensorflow/compiler/tf2xla/xla_compiler.cc#L418" xlink:title="tensorflow::XlaCompiler::CompileGraph()">
<ellipse fill="none" stroke="black" cx="1716" cy="-655" rx="163.271" ry="18"/>
<text text-anchor="middle" x="1716" y="-651.3" font-family="Times,serif" font-size="14.00">tensorflow::XlaCompiler::CompileGraph()</text>
</a>
</g>
</g>
<!-- 05&#45;&gt;07 -->
<g id="edge6" class="edge"><title>05&#45;&gt;07</title>
<path fill="none" stroke="black" d="M1716,-719.822C1716,-709.19 1716,-695.306 1716,-683.204"/>
<polygon fill="black" stroke="black" points="1719.5,-683.153 1716,-673.153 1712.5,-683.153 1719.5,-683.153"/>
</g>
<!-- 06 -->
<g id="node12" class="node"><title>06</title>
<g id="a_node12"><a xlink:href="https://github.com/ROCmSoftwarePlatform/tensorflow/blob/rocm-v1/tensorflow/core/common_runtime/graph_optimizer.cc#L36" xlink:title="tensorflow::GraphOptimizer::Optimize()">
<ellipse fill="none" stroke="black" cx="2067" cy="-655" rx="155.173" ry="18"/>
<text text-anchor="middle" x="2067" y="-651.3" font-family="Times,serif" font-size="14.00">tensorflow::GraphOptimizer::Optimize()</text>
</a>
</g>
</g>
<!-- 05&#45;&gt;06 -->
<g id="edge11" class="edge"><title>05&#45;&gt;06</title>
<path fill="none" stroke="black" d="M1806.69,-722.636C1836.54,-717.402 1869.81,-711.026 1900,-704 1935.53,-695.731 1974.75,-684.566 2006.25,-675.084"/>
<polygon fill="black" stroke="black" points="2007.64,-678.321 2016.19,-672.07 2005.61,-671.622 2007.64,-678.321"/>
</g>
<!-- 09 -->
<g id="node8" class="node"><title>09</title>
<g id="a_node8"><a xlink:href="https://github.com/ROCmSoftwarePlatform/tensorflow/blob/rocm-v1/tensorflow/compiler/tf2xla/xla_compiler.cc#L245" xlink:title="tensorflow::XlaCompiler::BuildArguments()">
<ellipse fill="none" stroke="black" cx="1384" cy="-572" rx="168.97" ry="18"/>
<text text-anchor="middle" x="1384" y="-568.3" font-family="Times,serif" font-size="14.00">tensorflow::XlaCompiler::BuildArguments()</text>
</a>
</g>
</g>
<!-- 07&#45;&gt;09 -->
<g id="edge7" class="edge"><title>07&#45;&gt;09</title>
<path fill="none" stroke="black" d="M1641.8,-638.92C1616.43,-633.545 1587.91,-627.266 1562,-621 1524.77,-611.997 1483.44,-600.92 1449.99,-591.677"/>
<polygon fill="black" stroke="black" points="1450.89,-588.296 1440.32,-588.997 1449.02,-595.042 1450.89,-588.296"/>
</g>
<!-- 10 -->
<g id="node9" class="node"><title>10</title>
<g id="a_node9"><a xlink:href="https://github.com/ROCmSoftwarePlatform/tensorflow/blob/rocm-v1/tensorflow/compiler/tf2xla/xla_compiler.cc#L195" xlink:title="ExecuteGraph()">
<ellipse fill="none" stroke="black" cx="1821" cy="-572" rx="66.8882" ry="18"/>
<text text-anchor="middle" x="1821" y="-568.3" font-family="Times,serif" font-size="14.00">ExecuteGraph()</text>
</a>
</g>
</g>
<!-- 07&#45;&gt;10 -->
<g id="edge8" class="edge"><title>07&#45;&gt;10</title>
<path fill="none" stroke="black" d="M1738.01,-637.02C1753.72,-624.9 1775.01,-608.481 1792.09,-595.305"/>
<polygon fill="black" stroke="black" points="1794.31,-598.009 1800.09,-589.13 1790.03,-592.467 1794.31,-598.009"/>
</g>
<!-- 11 -->
<g id="node10" class="node"><title>11</title>
<g id="a_node10"><a xlink:href="https://github.com/ROCmSoftwarePlatform/tensorflow/blob/rocm-v1/tensorflow/compiler/tf2xla/xla_compiler.cc#L340" xlink:title="BuildComputation()">
<ellipse fill="none" stroke="black" cx="1654" cy="-572" rx="82.5854" ry="18"/>
<text text-anchor="middle" x="1654" y="-568.3" font-family="Times,serif" font-size="14.00">BuildComputation()</text>
</a>
</g>
</g>
<!-- 07&#45;&gt;11 -->
<g id="edge9" class="edge"><title>07&#45;&gt;11</title>
<path fill="none" stroke="black" d="M1702.85,-636.822C1694.24,-625.578 1682.85,-610.696 1673.24,-598.131"/>
<polygon fill="black" stroke="black" points="1675.77,-595.689 1666.92,-589.876 1670.22,-599.944 1675.77,-595.689"/>
</g>
<!-- 08 -->
<g id="node13" class="node"><title>08</title>
<g id="a_node13"><a xlink:href="https://github.com/ROCmSoftwarePlatform/tensorflow/blob/rocm-v1/tensorflow/compiler/tf2xla/functionalize_control_flow.cc#L489" xlink:title="tensorflow::FunctionalizeControlFlow()">
<ellipse fill="none" stroke="black" cx="2063" cy="-572" rx="151.373" ry="18"/>
<text text-anchor="middle" x="2063" y="-568.3" font-family="Times,serif" font-size="14.00">tensorflow::FunctionalizeControlFlow()</text>
</a>
</g>
</g>
<!-- 07&#45;&gt;08 -->
<g id="edge12" class="edge"><title>07&#45;&gt;08</title>
<path fill="none" stroke="black" d="M1805.78,-639.915C1835.87,-634.659 1869.52,-628.198 1900,-621 1934.71,-612.801 1973,-601.639 2003.74,-592.142"/>
<polygon fill="black" stroke="black" points="2004.93,-595.437 2013.44,-589.123 2002.85,-588.753 2004.93,-595.437"/>
</g>
<!-- 19 -->
<g id="node30" class="node"><title>19</title>
<g id="a_node30"><a xlink:href="https://github.com/ROCmSoftwarePlatform/tensorflow/blob/rocm-v1/tensorflow/core/common_runtime/executor.cc#L2568" xlink:title="tensorflow::NewLocalExecutor(XlaCompilationDevice)">
<ellipse fill="none" stroke="black" cx="2474" cy="-458" rx="209.063" ry="18"/>
<text text-anchor="middle" x="2474" y="-454.3" font-family="Times,serif" font-size="14.00">tensorflow::NewLocalExecutor(XlaCompilationDevice)</text>
</a>
</g>
</g>
<!-- 10&#45;&gt;19 -->
<g id="edge28" class="edge"><title>10&#45;&gt;19</title>
<path fill="none" stroke="black" d="M1860.04,-557.316C1872.68,-553.247 1886.83,-549.062 1900,-546 2047.98,-511.594 2220.69,-487.543 2337.71,-473.581"/>
<polygon fill="black" stroke="black" points="2338.28,-477.038 2347.8,-472.386 2337.46,-470.086 2338.28,-477.038"/>
</g>
<!-- 26 -->
<g id="node34" class="node"><title>26</title>
<g id="a_node34"><a xlink:href="https://github.com/ROCmSoftwarePlatform/tensorflow/blob/rocm-v1/tensorflow/core/common_runtime/executor.h#L111" xlink:title="tensorflow::Executor::Run()">
<ellipse fill="none" stroke="black" cx="2937" cy="-458" rx="110.48" ry="18"/>
<text text-anchor="middle" x="2937" y="-454.3" font-family="Times,serif" font-size="14.00">tensorflow::Executor::Run()</text>
</a>
</g>
</g>
<!-- 10&#45;&gt;26 -->
<g id="edge32" class="edge"><title>10&#45;&gt;26</title>
<path fill="none" stroke="black" d="M1857.83,-556.858C1870.94,-552.492 1885.94,-548.245 1900,-546 1986.9,-532.128 2605.13,-552.109 2692,-538 2763.13,-526.447 2841.86,-498.104 2890.39,-478.707"/>
<polygon fill="black" stroke="black" points="2891.72,-481.944 2899.68,-474.955 2889.1,-475.454 2891.72,-481.944"/>
</g>
<!-- 12 -->
<g id="node14" class="node"><title>12</title>
<g id="a_node14"><a xlink:href="https://github.com/ROCmSoftwarePlatform/tensorflow/blob/rocm-v1/tensorflow/compiler/xla/client/computation_builder.cc#L43" xlink:title="xla::ComputationBuilder::Tuple()">
<ellipse fill="none" stroke="black" cx="1515" cy="-458" rx="129.977" ry="18"/>
<text text-anchor="middle" x="1515" y="-454.3" font-family="Times,serif" font-size="14.00">xla::ComputationBuilder::Tuple()</text>
</a>
</g>
</g>
<!-- 11&#45;&gt;12 -->
<g id="edge13" class="edge"><title>11&#45;&gt;12</title>
<path fill="none" stroke="black" d="M1633.49,-554.474C1609.81,-535.394 1570.69,-503.875 1543.93,-482.309"/>
<polygon fill="black" stroke="black" points="1546.03,-479.51 1536.05,-475.961 1541.64,-484.961 1546.03,-479.51"/>
</g>
<!-- 17 -->
<g id="node16" class="node"><title>17</title>
<g id="a_node16"><a xlink:href="https://github.com/ROCmSoftwarePlatform/tensorflow/blob/rocm-v1/tensorflow/compiler/xla/client/computation_builder.cc#L540" xlink:title="xla::ComputationBuilder::GetTupleElement()">
<ellipse fill="none" stroke="black" cx="1194" cy="-458" rx="172.769" ry="18"/>
<text text-anchor="middle" x="1194" y="-454.3" font-family="Times,serif" font-size="14.00">xla::ComputationBuilder::GetTupleElement()</text>
</a>
</g>
</g>
<!-- 11&#45;&gt;17 -->
<g id="edge15" class="edge"><title>11&#45;&gt;17</title>
<path fill="none" stroke="black" d="M1609.51,-556.769C1594.56,-552.565 1577.7,-548.44 1562,-546 1480.24,-533.295 1456.63,-556.562 1376,-538 1324.08,-526.048 1268.46,-499.698 1232.56,-480.713"/>
<polygon fill="black" stroke="black" points="1233.9,-477.457 1223.43,-475.815 1230.59,-483.626 1233.9,-477.457"/>
</g>
<!-- 18 -->
<g id="node17" class="node"><title>18</title>
<g id="a_node17"><a xlink:href="https://github.com/ROCmSoftwarePlatform/tensorflow/blob/rocm-v1/tensorflow/compiler/xla/client/computation_builder.cc#L1640" xlink:title="xla::ComputationBuilder::Build()">
<ellipse fill="none" stroke="black" cx="1792" cy="-458" rx="129.177" ry="18"/>
<text text-anchor="middle" x="1792" y="-454.3" font-family="Times,serif" font-size="14.00">xla::ComputationBuilder::Build()</text>
</a>
</g>
</g>
<!-- 11&#45;&gt;18 -->
<g id="edge16" class="edge"><title>11&#45;&gt;18</title>
<path fill="none" stroke="black" d="M1674.36,-554.474C1697.87,-535.394 1736.71,-503.875 1763.28,-482.309"/>
<polygon fill="black" stroke="black" points="1765.54,-484.98 1771.1,-475.961 1761.13,-479.545 1765.54,-484.98"/>
</g>
<!-- 13 -->
<g id="node15" class="node"><title>13</title>
<g id="a_node15"><a xlink:href="https://github.com/ROCmSoftwarePlatform/tensorflow/blob/rocm-v1/tensorflow/compiler/xla/client/computation_builder.cc#L78" xlink:title="xla::ComputationBuilder::PrepareComputation()">
<ellipse fill="none" stroke="black" cx="1379" cy="-386" rx="182.768" ry="18"/>
<text text-anchor="middle" x="1379" y="-382.3" font-family="Times,serif" font-size="14.00">xla::ComputationBuilder::PrepareComputation()</text>
</a>
</g>
</g>
<!-- 12&#45;&gt;13 -->
<g id="edge14" class="edge"><title>12&#45;&gt;13</title>
<path fill="none" stroke="black" d="M1482.77,-440.411C1464.33,-430.918 1440.97,-418.898 1421.09,-408.666"/>
<polygon fill="black" stroke="black" points="1422.44,-405.421 1411.94,-403.956 1419.23,-411.645 1422.44,-405.421"/>
</g>
<!-- 14 -->
<g id="node21" class="node"><title>14</title>
<g id="a_node21"><a xlink:href="https://github.com/ROCmSoftwarePlatform/tensorflow/blob/rocm-v1/tensorflow/compiler/xla/service/service.cc#207" xlink:title="xla::Service::Computation()">
<ellipse fill="none" stroke="black" cx="1018" cy="-231" rx="109.681" ry="18"/>
<text text-anchor="middle" x="1018" y="-227.3" font-family="Times,serif" font-size="14.00">xla::Service::Computation()</text>
</a>
</g>
</g>
<!-- 13&#45;&gt;14 -->
<g id="edge19" class="edge"><title>13&#45;&gt;14</title>
<path fill="none" stroke="black" d="M1358.71,-367.726C1330.71,-344.991 1277.68,-305.83 1225,-288 1187.8,-275.409 1175.17,-289.222 1137,-280 1110.57,-273.615 1082.29,-262.406 1059.93,-252.425"/>
<polygon fill="black" stroke="black" points="1061.29,-249.197 1050.74,-248.241 1058.39,-255.568 1061.29,-249.197"/>
</g>
<!-- 35 -->
<g id="node18" class="node"><title>35</title>
<g id="a_node18"><a xlink:href="https://github.com/ROCmSoftwarePlatform/tensorflow/blob/rocm-v1/tensorflow/compiler/xla/client/computation_builder.cc#L897" xlink:title="xla::ComputationBuilder::Mul()">
<ellipse fill="none" stroke="black" cx="919" cy="-386" rx="124.578" ry="18"/>
<text text-anchor="middle" x="919" y="-382.3" font-family="Times,serif" font-size="14.00">xla::ComputationBuilder::Mul()</text>
</a>
</g>
</g>
<!-- 36 -->
<g id="node19" class="node"><title>36</title>
<g id="a_node19"><a xlink:href="https://github.com/ROCmSoftwarePlatform/tensorflow/blob/rocm-v1/tensorflow/compiler/xla/client/computation_builder.cc#L1125" xlink:title="xla::ComputationBuilder::BinaryOp()">
<ellipse fill="none" stroke="black" cx="1072" cy="-314" rx="144.075" ry="18"/>
<text text-anchor="middle" x="1072" y="-310.3" font-family="Times,serif" font-size="14.00">xla::ComputationBuilder::BinaryOp()</text>
</a>
</g>
</g>
<!-- 35&#45;&gt;36 -->
<g id="edge18" class="edge"><title>35&#45;&gt;36</title>
<path fill="none" stroke="black" d="M954.872,-368.588C976.297,-358.786 1003.71,-346.243 1026.63,-335.756"/>
<polygon fill="black" stroke="black" points="1028.19,-338.895 1035.82,-331.552 1025.27,-332.529 1028.19,-338.895"/>
</g>
<!-- 37 -->
<g id="node22" class="node"><title>37</title>
<g id="a_node22"><a xlink:href="https://github.com/ROCmSoftwarePlatform/tensorflow/blob/rocm-v1/tensorflow/compiler/xla/service/service.cc#1207" xlink:title="xla::Service::Op(kBinaryOpRequest)">
<ellipse fill="none" stroke="black" cx="1288" cy="-231" rx="141.875" ry="18"/>
<text text-anchor="middle" x="1288" y="-227.3" font-family="Times,serif" font-size="14.00">xla::Service::Op(kBinaryOpRequest)</text>
</a>
</g>
</g>
<!-- 36&#45;&gt;37 -->
<g id="edge20" class="edge"><title>36&#45;&gt;37</title>
<path fill="none" stroke="black" d="M1115.19,-296.803C1149.77,-283.835 1198.43,-265.591 1235.3,-251.763"/>
<polygon fill="black" stroke="black" points="1236.75,-254.957 1244.88,-248.169 1234.29,-248.403 1236.75,-254.957"/>
</g>
<!-- 34 -->
<g id="node20" class="node"><title>34</title>
<g id="a_node20"><a xlink:href="https://github.com/ROCmSoftwarePlatform/tensorflow/blob/rocm-v1/tensorflow/compiler/tf2xla/kernels/cwise_ops.cc#L50" xlink:title="xla::MulOp::Computation()">
<ellipse fill="none" stroke="black" cx="894" cy="-458" rx="109.381" ry="18"/>
<text text-anchor="middle" x="894" y="-454.3" font-family="Times,serif" font-size="14.00">xla::MulOp::Computation()</text>
</a>
</g>
</g>
<!-- 34&#45;&gt;35 -->
<g id="edge17" class="edge"><title>34&#45;&gt;35</title>
<path fill="none" stroke="black" d="M900.18,-439.697C902.995,-431.813 906.391,-422.304 909.519,-413.546"/>
<polygon fill="black" stroke="black" points="912.824,-414.699 912.891,-404.104 906.232,-412.345 912.824,-414.699"/>
</g>
<!-- 15 -->
<g id="node23" class="node"><title>15</title>
<g id="a_node23"><a xlink:href="https://github.com/ROCmSoftwarePlatform/tensorflow/blob/rocm-v1/tensorflow/compiler/xla/service/computation_tracker.cc#L38" xlink:title="xla::ComputationTrakcer::NewComputation()">
<ellipse fill="none" stroke="black" cx="974" cy="-148" rx="173.569" ry="18"/>
<text text-anchor="middle" x="974" y="-144.3" font-family="Times,serif" font-size="14.00">xla::ComputationTrakcer::NewComputation()</text>
</a>
</g>
</g>
<!-- 14&#45;&gt;15 -->
<g id="edge21" class="edge"><title>14&#45;&gt;15</title>
<path fill="none" stroke="black" d="M1008.67,-212.822C1002.72,-201.868 994.893,-187.462 988.182,-175.108"/>
<polygon fill="black" stroke="black" points="991.167,-173.27 983.318,-166.153 985.016,-176.611 991.167,-173.27"/>
</g>
<!-- 38 -->
<g id="node25" class="node"><title>38</title>
<g id="a_node25"><a xlink:href="https://github.com/ROCmSoftwarePlatform/tensorflow/blob/rocm-v1/tensorflow/compiler/xla/service/user_computation.cc#L1146" xlink:title="xla::UserComputation::AddBinaryInstruction()">
<ellipse fill="none" stroke="black" cx="1321" cy="-65" rx="176.569" ry="18"/>
<text text-anchor="middle" x="1321" y="-61.3" font-family="Times,serif" font-size="14.00">xla::UserComputation::AddBinaryInstruction()</text>
</a>
</g>
</g>
<!-- 37&#45;&gt;38 -->
<g id="edge23" class="edge"><title>37&#45;&gt;38</title>
<path fill="none" stroke="black" d="M1291.47,-212.759C1297.2,-184.263 1308.7,-127.121 1315.54,-93.1571"/>
<polygon fill="black" stroke="black" points="1319.04,-93.5039 1317.58,-83.0099 1312.17,-92.1229 1319.04,-93.5039"/>
</g>
<!-- 16 -->
<g id="node24" class="node"><title>16</title>
<g id="a_node24"><a xlink:href="https://github.com/ROCmSoftwarePlatform/tensorflow/blob/rocm-v1/tensorflow/compiler/xla/service/user_computation.cc#L168" xlink:title="xla::UserComputation::UserComputation()">
<ellipse fill="none" stroke="black" cx="963" cy="-65" rx="163.271" ry="18"/>
<text text-anchor="middle" x="963" y="-61.3" font-family="Times,serif" font-size="14.00">xla::UserComputation::UserComputation()</text>
</a>
</g>
</g>
<!-- 15&#45;&gt;16 -->
<g id="edge22" class="edge"><title>15&#45;&gt;16</title>
<path fill="none" stroke="black" d="M971.667,-129.822C970.223,-119.19 968.338,-105.306 966.694,-93.2035"/>
<polygon fill="black" stroke="black" points="970.143,-92.5913 965.329,-83.1533 963.207,-93.5333 970.143,-92.5913"/>
</g>
<!-- 31 -->
<g id="node26" class="node"><title>31</title>
<g id="a_node26"><a xlink:href="https://github.com/ROCmSoftwarePlatform/tensorflow/blob/rocm-v1/tensorflow/compiler/tf2xla/xla_compilation_device.cc#L88" xlink:title="xla::XlaCompilationDevice::Compute()">
<ellipse fill="none" stroke="black" cx="175" cy="-738" rx="151.373" ry="18"/>
<text text-anchor="middle" x="175" y="-734.3" font-family="Times,serif" font-size="14.00">xla::XlaCompilationDevice::Compute()</text>
</a>
</g>
</g>
<!-- 32 -->
<g id="node28" class="node"><title>32</title>
<g id="a_node28"><a xlink:href="https://github.com/ROCmSoftwarePlatform/tensorflow/blob/rocm-v1/tensorflow/compiler/tf2xla/xla_op_kernel.cc#L398" xlink:title="xla::XlaOpKernel::Compute()">
<ellipse fill="none" stroke="black" cx="534" cy="-655" rx="116.979" ry="18"/>
<text text-anchor="middle" x="534" y="-651.3" font-family="Times,serif" font-size="14.00">xla::XlaOpKernel::Compute()</text>
</a>
</g>
</g>
<!-- 31&#45;&gt;32 -->
<g id="edge25" class="edge"><title>31&#45;&gt;32</title>
<path fill="none" stroke="black" d="M242.104,-721.86C304.423,-707.799 396.985,-686.914 461.098,-672.449"/>
<polygon fill="black" stroke="black" points="462.15,-675.799 471.134,-670.184 460.609,-668.971 462.15,-675.799"/>
</g>
<!-- 30 -->
<g id="node27" class="node"><title>30</title>
<g id="a_node27"><a xlink:href="https://github.com/ROCmSoftwarePlatform/tensorflow/blob/rocm-v1/tensorflow/core/common_runtime/executor.cc#L1488" xlink:title="tensorflow::ExecutorState::Process()">
<ellipse fill="none" stroke="black" cx="180" cy="-813" rx="139.976" ry="18"/>
<text text-anchor="middle" x="180" y="-809.3" font-family="Times,serif" font-size="14.00">tensorflow::ExecutorState::Process()</text>
</a>
</g>
</g>
<!-- 30&#45;&gt;31 -->
<g id="edge24" class="edge"><title>30&#45;&gt;31</title>
<path fill="none" stroke="black" d="M178.815,-794.7C178.236,-786.245 177.525,-775.869 176.875,-766.373"/>
<polygon fill="black" stroke="black" points="180.352,-765.913 176.176,-756.176 173.368,-766.392 180.352,-765.913"/>
</g>
<!-- 33 -->
<g id="node29" class="node"><title>33</title>
<g id="a_node29"><a xlink:href="https://github.com/ROCmSoftwarePlatform/tensorflow/blob/rocm-v1/tensorflow/compiler/tf2xla/kernels/cwise_ops.cc#L32" xlink:title="xla::XlaBinaryOp::Compile()">
<ellipse fill="none" stroke="black" cx="714" cy="-572" rx="115.08" ry="18"/>
<text text-anchor="middle" x="714" y="-568.3" font-family="Times,serif" font-size="14.00">xla::XlaBinaryOp::Compile()</text>
</a>
</g>
</g>
<!-- 32&#45;&gt;33 -->
<g id="edge26" class="edge"><title>32&#45;&gt;33</title>
<path fill="none" stroke="black" d="M569.993,-637.803C598.444,-625 638.321,-607.056 668.901,-593.295"/>
<polygon fill="black" stroke="black" points="670.386,-596.464 678.069,-589.169 667.514,-590.081 670.386,-596.464"/>
</g>
<!-- 33&#45;&gt;34 -->
<g id="edge27" class="edge"><title>33&#45;&gt;34</title>
<path fill="none" stroke="black" d="M740.56,-554.474C771.8,-535.036 823.79,-502.687 858.475,-481.105"/>
<polygon fill="black" stroke="black" points="860.69,-483.849 867.331,-475.594 856.992,-477.905 860.69,-483.849"/>
</g>
<!-- 20 -->
<g id="node31" class="node"><title>20</title>
<g id="a_node31"><a xlink:href="https://github.com/ROCmSoftwarePlatform/tensorflow/blob/rocm-v1/tensorflow/core/common_runtime/executor.cc#L223" xlink:title="tensorflow::ExecutorImpl::ExecutorImpl()">
<ellipse fill="none" stroke="black" cx="2732" cy="-386" rx="161.372" ry="18"/>
<text text-anchor="middle" x="2732" y="-382.3" font-family="Times,serif" font-size="14.00">tensorflow::ExecutorImpl::ExecutorImpl()</text>
</a>
</g>
</g>
<!-- 19&#45;&gt;20 -->
<g id="edge29" class="edge"><title>19&#45;&gt;20</title>
<path fill="none" stroke="black" d="M2534.16,-440.676C2572.96,-430.152 2623.49,-416.44 2663.78,-405.51"/>
<polygon fill="black" stroke="black" points="2664.79,-408.863 2673.52,-402.867 2662.95,-402.107 2664.79,-408.863"/>
</g>
<!-- 21 -->
<g id="node32" class="node"><title>21</title>
<g id="a_node32"><a xlink:href="https://github.com/ROCmSoftwarePlatform/tensorflow/blob/rocm-v1/tensorflow/core/common_runtime/executor.cc#L606" xlink:title="tensorflow::ExecutorImpl::Initialize()">
<ellipse fill="none" stroke="black" cx="2409" cy="-386" rx="143.775" ry="18"/>
<text text-anchor="middle" x="2409" y="-382.3" font-family="Times,serif" font-size="14.00">tensorflow::ExecutorImpl::Initialize()</text>
</a>
</g>
</g>
<!-- 19&#45;&gt;21 -->
<g id="edge30" class="edge"><title>19&#45;&gt;21</title>
<path fill="none" stroke="black" d="M2457.93,-439.697C2450.06,-431.22 2440.44,-420.864 2431.83,-411.583"/>
<polygon fill="black" stroke="black" points="2434.25,-409.051 2424.88,-404.104 2429.12,-413.814 2434.25,-409.051"/>
</g>
<!-- 22 -->
<g id="node38" class="node"><title>22</title>
<g id="a_node38"><a xlink:href="https://github.com/ROCmSoftwarePlatform/tensorflow/blob/rocm-v1/tensorflow/core/common_runtime/function.cc#L301" xlink:title="tensorflow::FunctionLibraryRuntimeImpl::CreateKernel()">
<ellipse fill="none" stroke="black" cx="2481" cy="-314" rx="215.562" ry="18"/>
<text text-anchor="middle" x="2481" y="-310.3" font-family="Times,serif" font-size="14.00">tensorflow::FunctionLibraryRuntimeImpl::CreateKernel()</text>
</a>
</g>
</g>
<!-- 21&#45;&gt;22 -->
<g id="edge37" class="edge"><title>21&#45;&gt;22</title>
<path fill="none" stroke="black" d="M2426.43,-368.055C2435.38,-359.349 2446.45,-348.591 2456.27,-339.043"/>
<polygon fill="black" stroke="black" points="2458.75,-341.512 2463.48,-332.032 2453.87,-336.493 2458.75,-341.512"/>
</g>
<!-- 23 -->
<g id="node33" class="node"><title>23</title>
<g id="a_node33"><a xlink:href="https://github.com/ROCmSoftwarePlatform/tensorflow/blob/rocm-v1/tensorflow/core/common_runtime/executor.cc#L2580" xlink:title="tensorflow::CreateNonCachedKernel()">
<ellipse fill="none" stroke="black" cx="2481" cy="-231" rx="147.574" ry="18"/>
<text text-anchor="middle" x="2481" y="-227.3" font-family="Times,serif" font-size="14.00">tensorflow::CreateNonCachedKernel()</text>
</a>
</g>
</g>
<!-- 24 -->
<g id="node39" class="node"><title>24</title>
<g id="a_node39"><a xlink:href="https://github.com/ROCmSoftwarePlatform/tensorflow/blob/rocm-v1/tensorflow/core/framework/op_kernel.cc#L1053" xlink:title="tensorflow::CreateOpKernel()">
<ellipse fill="none" stroke="black" cx="2481" cy="-148" rx="116.18" ry="18"/>
<text text-anchor="middle" x="2481" y="-144.3" font-family="Times,serif" font-size="14.00">tensorflow::CreateOpKernel()</text>
</a>
</g>
</g>
<!-- 23&#45;&gt;24 -->
<g id="edge38" class="edge"><title>23&#45;&gt;24</title>
<path fill="none" stroke="black" d="M2481,-212.822C2481,-202.19 2481,-188.306 2481,-176.204"/>
<polygon fill="black" stroke="black" points="2484.5,-176.153 2481,-166.153 2477.5,-176.153 2484.5,-176.153"/>
</g>
<!-- 27 -->
<g id="node35" class="node"><title>27</title>
<g id="a_node35"><a xlink:href="https://github.com/ROCmSoftwarePlatform/tensorflow/blob/rocm-v1/tensorflow/core/common_runtime/executor.cc#L2562" xlink:title="tensorflow::ExecutorImpl::RunAsync()">
<ellipse fill="none" stroke="black" cx="3061" cy="-386" rx="149.473" ry="18"/>
<text text-anchor="middle" x="3061" y="-382.3" font-family="Times,serif" font-size="14.00">tensorflow::ExecutorImpl::RunAsync()</text>
</a>
</g>
</g>
<!-- 26&#45;&gt;27 -->
<g id="edge33" class="edge"><title>26&#45;&gt;27</title>
<path fill="none" stroke="black" d="M2966.07,-440.588C2982.77,-431.159 3003.97,-419.195 3022.09,-408.965"/>
<polygon fill="black" stroke="black" points="3024.26,-411.759 3031.25,-403.795 3020.82,-405.663 3024.26,-411.759"/>
</g>
<!-- 28 -->
<g id="node36" class="node"><title>28</title>
<g id="a_node36"><a xlink:href="https://github.com/ROCmSoftwarePlatform/tensorflow/blob/rocm-v1/tensorflow/core/common_runtime/executor.cc#L1415" xlink:title="tensorflow::ExecutorState::RunAsync()">
<ellipse fill="none" stroke="black" cx="3051" cy="-314" rx="150.273" ry="18"/>
<text text-anchor="middle" x="3051" y="-310.3" font-family="Times,serif" font-size="14.00">tensorflow::ExecutorState::RunAsync()</text>
</a>
</g>
</g>
<!-- 27&#45;&gt;28 -->
<g id="edge34" class="edge"><title>27&#45;&gt;28</title>
<path fill="none" stroke="black" d="M3058.53,-367.697C3057.43,-359.983 3056.1,-350.712 3054.87,-342.112"/>
<polygon fill="black" stroke="black" points="3058.32,-341.509 3053.44,-332.104 3051.39,-342.499 3058.32,-341.509"/>
</g>
<!-- 29 -->
<g id="node37" class="node"><title>29</title>
<g id="a_node37"><a xlink:href="https://github.com/ROCmSoftwarePlatform/tensorflow/blob/rocm-v1/tensorflow/core/common_runtime/executor.cc#L2044" xlink:title="tensorflow::ExecutorState::ScheduleReady()">
<ellipse fill="none" stroke="black" cx="3042" cy="-231" rx="167.87" ry="18"/>
<text text-anchor="middle" x="3042" y="-227.3" font-family="Times,serif" font-size="14.00">tensorflow::ExecutorState::ScheduleReady()</text>
</a>
</g>
</g>
<!-- 28&#45;&gt;29 -->
<g id="edge35" class="edge"><title>28&#45;&gt;29</title>
<path fill="none" stroke="black" d="M3049.09,-295.822C3047.91,-285.19 3046.37,-271.306 3045.02,-259.204"/>
<polygon fill="black" stroke="black" points="3048.49,-258.706 3043.91,-249.153 3041.53,-259.479 3048.49,-258.706"/>
</g>
<!-- 29&#45;&gt;30 -->
<g id="edge36" class="edge"><title>29&#45;&gt;30</title>
<path fill="none" stroke="black" d="M3135.07,-245.981C3162.32,-254.205 3190.09,-267.264 3210,-288 3241.08,-320.368 3238,-340.129 3238,-385 3238,-656 3238,-656 3238,-656 3238,-805.378 2049.18,-779.332 1900,-787 1553.34,-804.82 684.569,-775.519 338,-795 321.421,-795.932 303.904,-797.365 286.807,-799.013"/>
<polygon fill="black" stroke="black" points="286.405,-795.536 276.799,-800.006 287.096,-802.501 286.405,-795.536"/>
</g>
<!-- 22&#45;&gt;23 -->
<g id="edge31" class="edge"><title>22&#45;&gt;23</title>
<path fill="none" stroke="black" d="M2481,-295.822C2481,-285.19 2481,-271.306 2481,-259.204"/>
<polygon fill="black" stroke="black" points="2484.5,-259.153 2481,-249.153 2477.5,-259.153 2484.5,-259.153"/>
</g>
<!-- 25 -->
<g id="node40" class="node"><title>25</title>
<ellipse fill="none" stroke="black" cx="2481" cy="-65" rx="133.776" ry="18"/>
<text text-anchor="start" x="2386" y="-61.3" font-family="Times,serif" font-size="14.00"> Construct corresponding XLA op </text>
</g>
<!-- 24&#45;&gt;25 -->
<g id="edge39" class="edge"><title>24&#45;&gt;25</title>
<path fill="none" stroke="black" d="M2481,-129.822C2481,-119.19 2481,-105.306 2481,-93.2035"/>
<polygon fill="black" stroke="black" points="2484.5,-93.1532 2481,-83.1533 2477.5,-93.1533 2484.5,-93.1532"/>
</g>
</g>
</svg>
