<?xml version="1.0" encoding="UTF-8" standalone="no"?>
<!DOCTYPE svg PUBLIC "-//W3C//DTD SVG 1.1//EN"
 "http://www.w3.org/Graphics/SVG/1.1/DTD/svg11.dtd">
<!-- Generated by graphviz version 2.38.0 (20140413.2041)
 -->
<!-- Title: 05 Pages: 1 -->
<svg width="1430pt" height="1113pt"
 viewBox="0.00 0.00 1430.00 1113.00" xmlns="http://www.w3.org/2000/svg" xmlns:xlink="http://www.w3.org/1999/xlink">
<g id="graph0" class="graph" transform="scale(1 1) rotate(0) translate(4 1109)">
<title>05</title>
<polygon fill="white" stroke="none" points="-4,4 -4,-1109 1426,-1109 1426,4 -4,4"/>
<text text-anchor="middle" x="711" y="-7.8" font-family="Times,serif" font-size="14.00">XlaCompiler::BuildExecutable</text>
<g id="clust1" class="cluster"><title>cluster_xla</title>
<polygon fill="none" stroke="black" points="8,-31 8,-1097 1414,-1097 1414,-31 8,-31"/>
<text text-anchor="middle" x="711" y="-1081.8" font-family="Times,serif" font-size="14.00">XLA</text>
</g>
<g id="clust2" class="cluster"><title>cluster_xla_compiler_cc</title>
<g id="a_clust2"><a xlink:href="https://github.com/ROCmSoftwarePlatform/tensorflow/blob/rocm-v1/tensorflow/compiler/tf2xla/xla_compiler.cc" xlink:title="tensorflow/compier/tf2xla/xla_compiler.cc">
<polygon fill="none" stroke="black" points="549,-991 549,-1066 849,-1066 849,-991 549,-991"/>
<text text-anchor="middle" x="699" y="-1050.8" font-family="Times,serif" font-size="14.00">tensorflow/compier/tf2xla/xla_compiler.cc</text>
</a>
</g>
</g>
<g id="clust3" class="cluster"><title>cluster_local_client_cc</title>
<g id="a_clust3"><a xlink:href="https://github.com/ROCmSoftwarePlatform/tensorflow/blob/rocm-v1/tensorflow/compiler/xla/client/local_client.cc" xlink:title="tensorflow/compier/xla/client/local_client.cc">
<polygon fill="none" stroke="black" points="569,-908 569,-983 829,-983 829,-908 569,-908"/>
<text text-anchor="middle" x="699" y="-967.8" font-family="Times,serif" font-size="14.00">tensorflow/compier/xla/client/local_client.cc</text>
</a>
</g>
</g>
<g id="clust4" class="cluster"><title>cluster_local_service_cc</title>
<g id="a_clust4"><a xlink:href="https://github.com/ROCmSoftwarePlatform/tensorflow/blob/rocm-v1/tensorflow/compiler/xla/service/local_service.cc" xlink:title="tensorflow/compier/xla/service/local_service.cc">
<polygon fill="none" stroke="black" points="538,-825 538,-900 860,-900 860,-825 538,-825"/>
<text text-anchor="middle" x="699" y="-884.8" font-family="Times,serif" font-size="14.00">tensorflow/compier/xla/service/local_service.cc</text>
</a>
</g>
</g>
<g id="clust5" class="cluster"><title>cluster_service_cc</title>
<g id="a_clust5"><a xlink:href="https://github.com/ROCmSoftwarePlatform/tensorflow/blob/rocm-v1/tensorflow/compiler/xla/service/service.cc" xlink:title="tensorflow/compier/xla/service/service.cc">
<polygon fill="none" stroke="black" points="569,-742 569,-817 829,-817 829,-742 569,-742"/>
<text text-anchor="middle" x="699" y="-801.8" font-family="Times,serif" font-size="14.00">tensorflow/compier/xla/service/service.cc</text>
</a>
</g>
</g>
<g id="clust6" class="cluster"><title>cluster_computation_tracker_cc</title>
<g id="a_clust6"><a xlink:href="https://github.com/ROCmSoftwarePlatform/tensorflow/blob/rocm-v1/tensorflow/compiler/xla/service/computation_tracker.cc" xlink:title="tensorflow/compier/xla/service/computation_tracker.cc">
<polygon fill="none" stroke="black" points="234,-576 234,-734 702,-734 702,-576 234,-576"/>
<text text-anchor="middle" x="468" y="-718.8" font-family="Times,serif" font-size="14.00">tensorflow/compier/xla/service/computation_tracker.cc</text>
</a>
</g>
</g>
<g id="clust7" class="cluster"><title>cluster_user_computation_cc</title>
<g id="a_clust7"><a xlink:href="https://github.com/ROCmSoftwarePlatform/tensorflow/blob/rocm-v1/tensorflow/compiler/xla/service/user_computation.cc" xlink:title="tensorflow/compier/xla/service/user_computation.cc">
<polygon fill="none" stroke="black" points="16,-349 16,-568 808,-568 808,-349 16,-349"/>
<text text-anchor="middle" x="412" y="-552.8" font-family="Times,serif" font-size="14.00">tensorflow/compier/xla/service/user_computation.cc</text>
</a>
</g>
</g>
<g id="clust8" class="cluster"><title>cluster_hlo_module_cc</title>
<g id="a_clust8"><a xlink:href="https://github.com/ROCmSoftwarePlatform/tensorflow/blob/rocm-v1/tensorflow/compiler/xla/service/hlo_module.cc" xlink:title="tensorflow/compier/xla/service/hlo_module.cc">
<polygon fill="none" stroke="black" points="816,-493 816,-651 1406,-651 1406,-493 816,-493"/>
<text text-anchor="middle" x="1111" y="-635.8" font-family="Times,serif" font-size="14.00">tensorflow/compier/xla/service/hlo_module.cc</text>
</a>
</g>
</g>
<g id="clust9" class="cluster"><title>cluster_hlo_instruction_cc</title>
<g id="a_clust9"><a xlink:href="https://github.com/ROCmSoftwarePlatform/tensorflow/blob/rocm-v1/tensorflow/compiler/xla/service/hlo_instruction.cc" xlink:title="tensorflow/compier/xla/service/hlo_instruction.cc">
<polygon fill="none" stroke="black" points="278,-266 278,-341 565,-341 565,-266 278,-266"/>
<text text-anchor="middle" x="421.5" y="-325.8" font-family="Times,serif" font-size="14.00">tensorflow/compier/xla/service/hlo_instruction.cc</text>
</a>
</g>
</g>
<g id="clust10" class="cluster"><title>cluster_hlo_computation_cc</title>
<g id="a_clust10"><a xlink:href="https://github.com/ROCmSoftwarePlatform/tensorflow/blob/rocm-v1/tensorflow/compiler/xla/service/hlo_computation.cc" xlink:title="tensorflow/compier/xla/service/hlo_computation.cc">
<polygon fill="none" stroke="black" points="205,-39 205,-258 896,-258 896,-39 205,-39"/>
<text text-anchor="middle" x="550.5" y="-242.8" font-family="Times,serif" font-size="14.00">tensorflow/compier/xla/service/hlo_computation.cc</text>
</a>
</g>
</g>
<g id="clust11" class="cluster"><title>cluster_amdgpu_compuiler_cc</title>
<g id="a_clust11"><a xlink:href="https://github.com/ROCmSoftwarePlatform/tensorflow/blob/rocm-v1/tensorflow/compiler/xla/service/gpu/amdgpu_compiler.cc" xlink:title="tensorflow/compier/xla/service/gpu/amdgpu_compiler.cc">
<polygon fill="none" stroke="black" points="710,-659 710,-734 1042,-734 1042,-659 710,-659"/>
<text text-anchor="middle" x="876" y="-718.8" font-family="Times,serif" font-size="14.00">tensorflow/compier/xla/service/gpu/amdgpu_compiler.cc</text>
</a>
</g>
</g>
<!-- 00 -->
<g id="node1" class="node"><title>00</title>
<g id="a_node1"><a xlink:href="https://github.com/ROCmSoftwarePlatform/tensorflow/blob/rocm-v1/tensorflow/compiler/tf2xla/xla_compiler.cc#L161" xlink:title="xla::XlaCompiler::BuildExecutable()">
<ellipse fill="none" stroke="black" cx="699" cy="-1017" rx="141.875" ry="18"/>
<text text-anchor="middle" x="699" y="-1013.3" font-family="Times,serif" font-size="14.00">xla::XlaCompiler::BuildExecutable()</text>
</a>
</g>
</g>
<!-- 01 -->
<g id="node2" class="node"><title>01</title>
<g id="a_node2"><a xlink:href="https://github.com/ROCmSoftwarePlatform/tensorflow/blob/rocm-v1/tensorflow/compiler/xla/client/local_client.cc#L284" xlink:title="xla::LocalClient::Compile()">
<ellipse fill="none" stroke="black" cx="699" cy="-934" rx="109.381" ry="18"/>
<text text-anchor="middle" x="699" y="-930.3" font-family="Times,serif" font-size="14.00">xla::LocalClient::Compile()</text>
</a>
</g>
</g>
<!-- 00&#45;&gt;01 -->
<g id="edge1" class="edge"><title>00&#45;&gt;01</title>
<path fill="none" stroke="black" d="M699,-998.822C699,-988.19 699,-974.306 699,-962.204"/>
<polygon fill="black" stroke="black" points="702.5,-962.153 699,-952.153 695.5,-962.153 702.5,-962.153"/>
</g>
<!-- 02 -->
<g id="node3" class="node"><title>02</title>
<g id="a_node3"><a xlink:href="https://github.com/ROCmSoftwarePlatform/tensorflow/blob/rocm-v1/tensorflow/compiler/xla/service/local_service.cc#L111" xlink:title="xla::LocalService::CompileExecutable()">
<ellipse fill="none" stroke="black" cx="699" cy="-851" rx="153.273" ry="18"/>
<text text-anchor="middle" x="699" y="-847.3" font-family="Times,serif" font-size="14.00">xla::LocalService::CompileExecutable()</text>
</a>
</g>
</g>
<!-- 01&#45;&gt;02 -->
<g id="edge2" class="edge"><title>01&#45;&gt;02</title>
<path fill="none" stroke="black" d="M699,-915.822C699,-905.19 699,-891.306 699,-879.204"/>
<polygon fill="black" stroke="black" points="702.5,-879.153 699,-869.153 695.5,-879.153 702.5,-879.153"/>
</g>
<!-- 03 -->
<g id="node4" class="node"><title>03</title>
<g id="a_node4"><a xlink:href="https://github.com/ROCmSoftwarePlatform/tensorflow/blob/rocm-v1/tensorflow/compiler/xla/service/service.cc#L402" xlink:title="xla::Service::BuildExecutable()">
<ellipse fill="none" stroke="black" cx="699" cy="-768" rx="122.379" ry="18"/>
<text text-anchor="middle" x="699" y="-764.3" font-family="Times,serif" font-size="14.00">xla::Service::BuildExecutable()</text>
</a>
</g>
</g>
<!-- 02&#45;&gt;03 -->
<g id="edge3" class="edge"><title>02&#45;&gt;03</title>
<path fill="none" stroke="black" d="M699,-832.822C699,-822.19 699,-808.306 699,-796.204"/>
<polygon fill="black" stroke="black" points="702.5,-796.153 699,-786.153 695.5,-796.153 702.5,-796.153"/>
</g>
<!-- 04 -->
<g id="node5" class="node"><title>04</title>
<g id="a_node5"><a xlink:href="https://github.com/ROCmSoftwarePlatform/tensorflow/blob/rocm-v1/tensorflow/compiler/xla/service/computation_tracker.cc#L169" xlink:title="xla::ComputationTracker::BuildHloModule()">
<ellipse fill="none" stroke="black" cx="523" cy="-685" rx="170.87" ry="18"/>
<text text-anchor="middle" x="523" y="-681.3" font-family="Times,serif" font-size="14.00">xla::ComputationTracker::BuildHloModule()</text>
</a>
</g>
</g>
<!-- 03&#45;&gt;04 -->
<g id="edge4" class="edge"><title>03&#45;&gt;04</title>
<path fill="none" stroke="black" d="M663.384,-750.608C636.012,-738.011 598.009,-720.521 568.445,-706.915"/>
<polygon fill="black" stroke="black" points="569.715,-703.647 559.167,-702.645 566.788,-710.005 569.715,-703.647"/>
</g>
<!-- 18 -->
<g id="node19" class="node"><title>18</title>
<g id="a_node19"><a xlink:href="https://github.com/ROCmSoftwarePlatform/tensorflow/blob/rocm-v1/tensorflow/compiler/xla/service/gpu/amdgpu_compiler.cc#L194" xlink:title="xla::gpu::AMDGPUCompiler::Compile()">
<ellipse fill="none" stroke="black" cx="876" cy="-685" rx="157.872" ry="18"/>
<text text-anchor="middle" x="876" y="-681.3" font-family="Times,serif" font-size="14.00">xla::gpu::AMDGPUCompiler::Compile()</text>
</a>
</g>
</g>
<!-- 03&#45;&gt;18 -->
<g id="edge18" class="edge"><title>03&#45;&gt;18</title>
<path fill="none" stroke="black" d="M734.819,-750.608C762.346,-738.011 800.565,-720.521 830.297,-706.915"/>
<polygon fill="black" stroke="black" points="831.991,-709.989 839.627,-702.645 829.078,-703.624 831.991,-709.989"/>
</g>
<!-- 05 -->
<g id="node6" class="node"><title>05</title>
<g id="a_node6"><a xlink:href="https://github.com/ROCmSoftwarePlatform/tensorflow/blob/rocm-v1/tensorflow/compiler/xla/service/computation_tracker.cc#L147" xlink:title="xla::ComputationTracker::ComputeComputationPostOrder()">
<ellipse fill="none" stroke="black" cx="468" cy="-602" rx="225.56" ry="18"/>
<text text-anchor="middle" x="468" y="-598.3" font-family="Times,serif" font-size="14.00">xla::ComputationTracker::ComputeComputationPostOrder()</text>
</a>
</g>
</g>
<!-- 04&#45;&gt;05 -->
<g id="edge5" class="edge"><title>04&#45;&gt;05</title>
<path fill="none" stroke="black" d="M511.336,-666.822C503.825,-655.761 493.924,-641.179 485.482,-628.746"/>
<polygon fill="black" stroke="black" points="488.16,-626.46 479.647,-620.153 482.369,-630.392 488.16,-626.46"/>
</g>
<!-- 08 -->
<g id="node8" class="node"><title>08</title>
<g id="a_node8"><a xlink:href="https://github.com/ROCmSoftwarePlatform/tensorflow/blob/rocm-v1/tensorflow/compiler/xla/service/user_computation.cc#L2945" xlink:title="xla::UserComputation::BuildHloComputation()">
<ellipse fill="none" stroke="black" cx="621" cy="-519" rx="178.969" ry="18"/>
<text text-anchor="middle" x="621" y="-515.3" font-family="Times,serif" font-size="14.00">xla::UserComputation::BuildHloComputation()</text>
</a>
</g>
</g>
<!-- 04&#45;&gt;08 -->
<g id="edge7" class="edge"><title>04&#45;&gt;08</title>
<path fill="none" stroke="black" d="M648.795,-672.678C673.718,-667.818 694.763,-660.885 703,-651 724.339,-625.393 718.564,-605.477 703,-576 695.539,-561.869 682.73,-550.629 669.424,-542.04"/>
<polygon fill="black" stroke="black" points="671.034,-538.924 660.66,-536.774 667.429,-544.924 671.034,-538.924"/>
</g>
<!-- 07 -->
<g id="node11" class="node"><title>07</title>
<g id="a_node11"><a xlink:href="https://github.com/ROCmSoftwarePlatform/tensorflow/blob/rocm-v1/tensorflow/compiler/xla/service/hlo_module.cc#L35" xlink:title="xla::HloModule::HloModule()">
<ellipse fill="none" stroke="black" cx="1279" cy="-602" rx="118.879" ry="18"/>
<text text-anchor="middle" x="1279" y="-598.3" font-family="Times,serif" font-size="14.00">xla::HloModule::HloModule()</text>
</a>
</g>
</g>
<!-- 04&#45;&gt;07 -->
<g id="edge10" class="edge"><title>04&#45;&gt;07</title>
<path fill="none" stroke="black" d="M612.595,-669.615C642.248,-665.428 675.467,-661.352 706,-659 755.306,-655.202 1102.42,-660.261 1151,-651 1180.23,-645.429 1211.52,-633.804 1235.85,-623.39"/>
<polygon fill="black" stroke="black" points="1237.39,-626.537 1245.15,-619.324 1234.59,-620.123 1237.39,-626.537"/>
</g>
<!-- 16 -->
<g id="node12" class="node"><title>16</title>
<g id="a_node12"><a xlink:href="https://github.com/ROCmSoftwarePlatform/tensorflow/blob/rocm-v1/tensorflow/compiler/xla/service/hlo_module.cc#L56" xlink:title="xla::HloModule::AddEntryComputation()">
<ellipse fill="none" stroke="black" cx="983" cy="-602" rx="159.472" ry="18"/>
<text text-anchor="middle" x="983" y="-598.3" font-family="Times,serif" font-size="14.00">xla::HloModule::AddEntryComputation()</text>
</a>
</g>
</g>
<!-- 04&#45;&gt;16 -->
<g id="edge11" class="edge"><title>04&#45;&gt;16</title>
<path fill="none" stroke="black" d="M610.401,-669.43C644.049,-663.763 682.827,-657.162 718,-651 776.503,-640.752 842.197,-628.855 893.54,-619.469"/>
<polygon fill="black" stroke="black" points="894.404,-622.87 903.611,-617.627 893.144,-615.984 894.404,-622.87"/>
</g>
<!-- 06 -->
<g id="node7" class="node"><title>06</title>
<g id="a_node7"><a xlink:href="https://github.com/ROCmSoftwarePlatform/tensorflow/blob/rocm-v1/tensorflow/compiler/xla/service/user_computation.cc#L1741" xlink:title="xla::UserComputation::GetEmbeddedComputations()">
<ellipse fill="none" stroke="black" cx="224" cy="-519" rx="200.365" ry="18"/>
<text text-anchor="middle" x="224" y="-515.3" font-family="Times,serif" font-size="14.00">xla::UserComputation::GetEmbeddedComputations()</text>
</a>
</g>
</g>
<!-- 05&#45;&gt;06 -->
<g id="edge6" class="edge"><title>05&#45;&gt;06</title>
<path fill="none" stroke="black" d="M418.034,-584.413C379.053,-571.473 324.786,-553.458 283.55,-539.769"/>
<polygon fill="black" stroke="black" points="284.492,-536.394 273.899,-536.565 282.287,-543.037 284.492,-536.394"/>
</g>
<!-- 09 -->
<g id="node9" class="node"><title>09</title>
<g id="a_node9"><a xlink:href="https://github.com/ROCmSoftwarePlatform/tensorflow/blob/rocm-v1/tensorflow/compiler/xla/service/user_computation.cc#L2356" xlink:title="ComputationLowerer::Lower()">
<ellipse fill="none" stroke="black" cx="621" cy="-447" rx="120.479" ry="18"/>
<text text-anchor="middle" x="621" y="-443.3" font-family="Times,serif" font-size="14.00">ComputationLowerer::Lower()</text>
</a>
</g>
</g>
<!-- 08&#45;&gt;09 -->
<g id="edge8" class="edge"><title>08&#45;&gt;09</title>
<path fill="none" stroke="black" d="M621,-500.697C621,-492.983 621,-483.712 621,-475.112"/>
<polygon fill="black" stroke="black" points="624.5,-475.104 621,-465.104 617.5,-475.104 624.5,-475.104"/>
</g>
<!-- 10 -->
<g id="node10" class="node"><title>10</title>
<g id="a_node10"><a xlink:href="https://github.com/ROCmSoftwarePlatform/tensorflow/blob/rocm-v1/tensorflow/compiler/xla/service/user_computation.cc#L2423" xlink:title="ComputationLowerer::Visit()">
<ellipse fill="none" stroke="black" cx="448" cy="-375" rx="114.28" ry="18"/>
<text text-anchor="middle" x="448" y="-371.3" font-family="Times,serif" font-size="14.00">ComputationLowerer::Visit()</text>
</a>
</g>
</g>
<!-- 09&#45;&gt;10 -->
<g id="edge9" class="edge"><title>09&#45;&gt;10</title>
<path fill="none" stroke="black" d="M581.31,-429.941C556.256,-419.803 523.703,-406.631 497.038,-395.842"/>
<polygon fill="black" stroke="black" points="498.088,-392.491 487.505,-391.985 495.462,-398.98 498.088,-392.491"/>
</g>
<!-- 13 -->
<g id="node16" class="node"><title>13</title>
<g id="a_node16"><a xlink:href="https://github.com/ROCmSoftwarePlatform/tensorflow/blob/rocm-v1/tensorflow/compiler/xla/service/hlo_instruction.cc#L47" xlink:title="xla::HloComputation::Builder::Build()">
<ellipse fill="none" stroke="black" cx="740" cy="-209" rx="147.574" ry="18"/>
<text text-anchor="middle" x="740" y="-205.3" font-family="Times,serif" font-size="14.00">xla::HloComputation::Builder::Build()</text>
</a>
</g>
</g>
<!-- 09&#45;&gt;13 -->
<g id="edge15" class="edge"><title>09&#45;&gt;13</title>
<path fill="none" stroke="black" d="M629.558,-429.027C650.092,-388.304 702.269,-284.828 726.832,-236.114"/>
<polygon fill="black" stroke="black" points="729.982,-237.641 731.359,-227.136 723.732,-234.489 729.982,-237.641"/>
</g>
<!-- 11 -->
<g id="node14" class="node"><title>11</title>
<g id="a_node14"><a xlink:href="https://github.com/ROCmSoftwarePlatform/tensorflow/blob/rocm-v1/tensorflow/compiler/xla/service/hlo_instruction.cc#L143" xlink:title="xla::HloInstruction::CreateBinary()">
<ellipse fill="none" stroke="black" cx="421" cy="-292" rx="135.376" ry="18"/>
<text text-anchor="middle" x="421" y="-288.3" font-family="Times,serif" font-size="14.00">xla::HloInstruction::CreateBinary()</text>
</a>
</g>
</g>
<!-- 10&#45;&gt;11 -->
<g id="edge13" class="edge"><title>10&#45;&gt;11</title>
<path fill="none" stroke="black" d="M442.274,-356.822C438.694,-346.083 434.008,-332.025 429.946,-319.837"/>
<polygon fill="black" stroke="black" points="433.2,-318.533 426.718,-310.153 426.56,-320.747 433.2,-318.533"/>
</g>
<!-- 17 -->
<g id="node13" class="node"><title>17</title>
<g id="a_node13"><a xlink:href="https://github.com/ROCmSoftwarePlatform/tensorflow/blob/rocm-v1/tensorflow/compiler/xla/service/hlo_module.cc#L45" xlink:title="xla::HloModule::AddComputationInternal()">
<ellipse fill="none" stroke="black" cx="991" cy="-519" rx="167.07" ry="18"/>
<text text-anchor="middle" x="991" y="-515.3" font-family="Times,serif" font-size="14.00">xla::HloModule::AddComputationInternal()</text>
</a>
</g>
</g>
<!-- 16&#45;&gt;17 -->
<g id="edge12" class="edge"><title>16&#45;&gt;17</title>
<path fill="none" stroke="black" d="M984.697,-583.822C985.747,-573.19 987.118,-559.306 988.313,-547.204"/>
<polygon fill="black" stroke="black" points="991.806,-547.449 989.306,-537.153 984.84,-546.761 991.806,-547.449"/>
</g>
<!-- 12 -->
<g id="node15" class="node"><title>12</title>
<g id="a_node15"><a xlink:href="https://github.com/ROCmSoftwarePlatform/tensorflow/blob/rocm-v1/tensorflow/compiler/xla/service/hlo_instruction.h#L70" xlink:title="xla::HloComputation::Builder::AddInstruction()">
<ellipse fill="none" stroke="black" cx="394" cy="-209" rx="180.868" ry="18"/>
<text text-anchor="middle" x="394" y="-205.3" font-family="Times,serif" font-size="14.00">xla::HloComputation::Builder::AddInstruction()</text>
</a>
</g>
</g>
<!-- 11&#45;&gt;12 -->
<g id="edge14" class="edge"><title>11&#45;&gt;12</title>
<path fill="none" stroke="black" d="M415.274,-273.822C411.694,-263.083 407.008,-249.025 402.946,-236.837"/>
<polygon fill="black" stroke="black" points="406.2,-235.533 399.718,-227.153 399.56,-237.747 406.2,-235.533"/>
</g>
<!-- 14 -->
<g id="node17" class="node"><title>14</title>
<g id="a_node17"><a xlink:href="https://github.com/ROCmSoftwarePlatform/tensorflow/blob/rocm-v1/tensorflow/compiler/xla/service/hlo_instruction.cc#L64" xlink:title="xla::HloComputation::HloComputation()">
<ellipse fill="none" stroke="black" cx="721" cy="-137" rx="155.972" ry="18"/>
<text text-anchor="middle" x="721" y="-133.3" font-family="Times,serif" font-size="14.00">xla::HloComputation::HloComputation()</text>
</a>
</g>
</g>
<!-- 13&#45;&gt;14 -->
<g id="edge16" class="edge"><title>13&#45;&gt;14</title>
<path fill="none" stroke="black" d="M735.303,-190.697C733.187,-182.898 730.638,-173.509 728.282,-164.829"/>
<polygon fill="black" stroke="black" points="731.64,-163.838 725.643,-155.104 724.884,-165.672 731.64,-163.838"/>
</g>
<!-- 15 -->
<g id="node18" class="node"><title>15</title>
<g id="a_node18"><a xlink:href="https://github.com/ROCmSoftwarePlatform/tensorflow/blob/rocm-v1/tensorflow/compiler/xla/service/hlo_instruction.cc#L99" xlink:title="xla::HloComputation::AddInstructionInternal()">
<ellipse fill="none" stroke="black" cx="711" cy="-65" rx="176.569" ry="18"/>
<text text-anchor="middle" x="711" y="-61.3" font-family="Times,serif" font-size="14.00">xla::HloComputation::AddInstructionInternal()</text>
</a>
</g>
</g>
<!-- 14&#45;&gt;15 -->
<g id="edge17" class="edge"><title>14&#45;&gt;15</title>
<path fill="none" stroke="black" d="M718.528,-118.697C717.426,-110.983 716.102,-101.712 714.873,-93.1124"/>
<polygon fill="black" stroke="black" points="718.323,-92.5088 713.443,-83.1043 711.393,-93.4988 718.323,-92.5088"/>
</g>
</g>
</svg>
