<?xml version="1.0" encoding="UTF-8" standalone="no"?>
<!DOCTYPE svg PUBLIC "-//W3C//DTD SVG 1.1//EN"
 "http://www.w3.org/Graphics/SVG/1.1/DTD/svg11.dtd">
<!-- Generated by graphviz version 2.38.0 (20140413.2041)
 -->
<!-- Title: 06 Pages: 1 -->
<svg width="4280pt" height="441pt"
 viewBox="0.00 0.00 4280.00 441.00" xmlns="http://www.w3.org/2000/svg" xmlns:xlink="http://www.w3.org/1999/xlink">
<g id="graph0" class="graph" transform="scale(1 1) rotate(0) translate(4 437)">
<title>06</title>
<polygon fill="white" stroke="none" points="-4,4 -4,-437 4276,-437 4276,4 -4,4"/>
<text text-anchor="middle" x="2136" y="-7.8" font-family="Times,serif" font-size="14.00">AMDGPUCompiler::Compile() HLO part</text>
<g id="clust1" class="cluster"><title>cluster_xla</title>
<polygon fill="none" stroke="black" points="1846,-153 1846,-425 4264,-425 4264,-153 1846,-153"/>
<text text-anchor="middle" x="3055" y="-409.8" font-family="Times,serif" font-size="14.00">XLA</text>
</g>
<g id="clust2" class="cluster"><title>cluster_amdgpu_compuiler_cc</title>
<g id="a_clust2"><a xlink:href="https://github.com/ROCmSoftwarePlatform/tensorflow/blob/rocm-v1/tensorflow/compiler/xla/service/gpu/amdgpu_compiler.cc" xlink:title="tensorflow/compier/xla/service/gpu/amdgpu_compiler.cc">
<polygon fill="none" stroke="black" points="2164,-161 2164,-394 2868,-394 2868,-161 2164,-161"/>
<text text-anchor="middle" x="2516" y="-378.8" font-family="Times,serif" font-size="14.00">tensorflow/compier/xla/service/gpu/amdgpu_compiler.cc</text>
</a>
</g>
</g>
<g id="clust3" class="cluster"><title>cluster_stream_assignment_cc</title>
<g id="a_clust3"><a xlink:href="https://github.com/ROCmSoftwarePlatform/tensorflow/blob/rocm-v1/tensorflow/compiler/xla/service/gpu/stream_assignment.cc" xlink:title="tensorflow/compier/xla/service/gpu/stream_assignment.cc">
<polygon fill="none" stroke="black" points="2876,-244 2876,-319 3210,-319 3210,-244 2876,-244"/>
<text text-anchor="middle" x="3043" y="-303.8" font-family="Times,serif" font-size="14.00">tensorflow/compier/xla/service/gpu/stream_assignment.cc</text>
</a>
</g>
</g>
<g id="clust4" class="cluster"><title>cluster_hlo_schedule_cc</title>
<g id="a_clust4"><a xlink:href="https://github.com/ROCmSoftwarePlatform/tensorflow/blob/rocm-v1/tensorflow/compiler/xla/service/gpu/hlo_schedule.cc" xlink:title="tensorflow/compier/xla/service/gpu/hlo_schedule.cc">
<polygon fill="none" stroke="black" points="3218,-161 3218,-319 3584,-319 3584,-161 3218,-161"/>
<text text-anchor="middle" x="3401" y="-303.8" font-family="Times,serif" font-size="14.00">tensorflow/compier/xla/service/gpu/hlo_schedule.cc</text>
</a>
</g>
</g>
<g id="clust5" class="cluster"><title>cluster_hlo_scheduleing_cc</title>
<g id="a_clust5"><a xlink:href="https://github.com/ROCmSoftwarePlatform/tensorflow/blob/rocm-v1/tensorflow/compiler/xla/service/hlo_scheduling.cc" xlink:title="tensorflow/compier/xla/service/hlo_scheduling.cc">
<polygon fill="none" stroke="black" points="3592,-161 3592,-236 3918,-236 3918,-161 3592,-161"/>
<text text-anchor="middle" x="3755" y="-220.8" font-family="Times,serif" font-size="14.00">tensorflow/compier/xla/service/hlo_scheduling.cc</text>
</a>
</g>
</g>
<g id="clust6" class="cluster"><title>cluster_buffer_assignment_cc</title>
<g id="a_clust6"><a xlink:href="https://github.com/ROCmSoftwarePlatform/tensorflow/blob/rocm-v1/tensorflow/compiler/xla/service/buffer_assignment.cc" xlink:title="tensorflow/compier/xla/service/buffer_assignment.cc">
<polygon fill="none" stroke="black" points="3926,-161 3926,-319 4256,-319 4256,-161 3926,-161"/>
<text text-anchor="middle" x="4091" y="-303.8" font-family="Times,serif" font-size="14.00">tensorflow/compier/xla/service/buffer_assignment.cc</text>
</a>
</g>
</g>
<g id="clust7" class="cluster"><title>cluster_hlo_pass_pipeline_cc</title>
<g id="a_clust7"><a xlink:href="https://github.com/ROCmSoftwarePlatform/tensorflow/blob/rocm-v1/tensorflow/compiler/xla/service/hlo_pass_pipeline.cc" xlink:title="tensorflow/compier/xla/service/hlo_pass_pipeline.cc">
<polygon fill="none" stroke="black" points="1854,-161 1854,-236 2156,-236 2156,-161 1854,-161"/>
<text text-anchor="middle" x="2005" y="-220.8" font-family="Times,serif" font-size="14.00">tensorflow/compier/xla/service/hlo_pass_pipeline.cc</text>
</a>
</g>
</g>
<g id="clust8" class="cluster"><title>cluster_hlo_pass</title>
<polygon fill="none" stroke="black" points="8,-31 8,-145 4162,-145 4162,-31 8,-31"/>
<text text-anchor="middle" x="2085" y="-129.8" font-family="Times,serif" font-size="14.00">HLO optimization passes</text>
</g>
<g id="clust9" class="cluster"><title>cluster_algebraic_simplifier_cc</title>
<g id="a_clust9"><a xlink:href="https://github.com/ROCmSoftwarePlatform/tensorflow/blob/rocm-v1/tensorflow/compiler/xla/service/algebraic_simplifier.cc" xlink:title="tensorflow/compier/xla/service/algebraic_simplifier.cc">
<polygon fill="none" stroke="black" points="3563,-39 3563,-114 3877,-114 3877,-39 3563,-39"/>
<text text-anchor="middle" x="3720" y="-98.8" font-family="Times,serif" font-size="14.00">tensorflow/compier/xla/service/algebraic_simplifier.cc</text>
</a>
</g>
</g>
<g id="clust10" class="cluster"><title>cluster_reshape_mover_cc</title>
<g id="a_clust10"><a xlink:href="https://github.com/ROCmSoftwarePlatform/tensorflow/blob/rocm-v1/tensorflow/compiler/xla/service/reshape_mover.cc" xlink:title="tensorflow/compier/xla/service/reshape_mover.cc">
<polygon fill="none" stroke="black" points="3267,-39 3267,-114 3555,-114 3555,-39 3267,-39"/>
<text text-anchor="middle" x="3411" y="-98.8" font-family="Times,serif" font-size="14.00">tensorflow/compier/xla/service/reshape_mover.cc</text>
</a>
</g>
</g>
<g id="clust11" class="cluster"><title>cluster_hlo_constant_folding_cc</title>
<g id="a_clust11"><a xlink:href="https://github.com/ROCmSoftwarePlatform/tensorflow/blob/rocm-v1/tensorflow/compiler/xla/service/hlo_constant_folding.cc" xlink:title="tensorflow/compier/xla/service/hlo_constant_folding.cc">
<polygon fill="none" stroke="black" points="2939,-39 2939,-114 3259,-114 3259,-39 2939,-39"/>
<text text-anchor="middle" x="3099" y="-98.8" font-family="Times,serif" font-size="14.00">tensorflow/compier/xla/service/hlo_constant_folding.cc</text>
</a>
</g>
</g>
<g id="clust12" class="cluster"><title>cluster_convolution_folding_cc</title>
<g id="a_clust12"><a xlink:href="https://github.com/ROCmSoftwarePlatform/tensorflow/blob/rocm-v1/tensorflow/compiler/xla/service/gpu/convolution_folding.cc" xlink:title="tensorflow/compier/xla/service/gpu/convolution_folding.cc">
<polygon fill="none" stroke="black" points="2592,-39 2592,-114 2931,-114 2931,-39 2592,-39"/>
<text text-anchor="middle" x="2761.5" y="-98.8" font-family="Times,serif" font-size="14.00">tensorflow/compier/xla/service/gpu/convolution_folding.cc</text>
</a>
</g>
</g>
<g id="clust13" class="cluster"><title>cluster_transpose_folding_cc</title>
<g id="a_clust13"><a xlink:href="https://github.com/ROCmSoftwarePlatform/tensorflow/blob/rocm-v1/tensorflow/compiler/xla/service/transpose_folding.cc" xlink:title="tensorflow/compier/xla/service/transpose_folding.cc">
<polygon fill="none" stroke="black" points="2282,-39 2282,-114 2584,-114 2584,-39 2282,-39"/>
<text text-anchor="middle" x="2433" y="-98.8" font-family="Times,serif" font-size="14.00">tensorflow/compier/xla/service/transpose_folding.cc</text>
</a>
</g>
</g>
<g id="clust14" class="cluster"><title>cluster_hlo_cse_cc</title>
<g id="a_clust14"><a xlink:href="https://github.com/ROCmSoftwarePlatform/tensorflow/blob/rocm-v1/tensorflow/compiler/xla/service/hlo_cse.cc" xlink:title="tensorflow/compier/xla/service/hlo_cse.cc">
<polygon fill="none" stroke="black" points="2028,-39 2028,-114 2274,-114 2274,-39 2028,-39"/>
<text text-anchor="middle" x="2151" y="-98.8" font-family="Times,serif" font-size="14.00">tensorflow/compier/xla/service/hlo_cse.cc</text>
</a>
</g>
</g>
<g id="clust15" class="cluster"><title>cluster_hlo_dce_cc</title>
<g id="a_clust15"><a xlink:href="https://github.com/ROCmSoftwarePlatform/tensorflow/blob/rocm-v1/tensorflow/compiler/xla/service/hlo_dce.cc" xlink:title="tensorflow/compier/xla/service/hlo_dce.cc">
<polygon fill="none" stroke="black" points="1772,-39 1772,-114 2020,-114 2020,-39 1772,-39"/>
<text text-anchor="middle" x="1896" y="-98.8" font-family="Times,serif" font-size="14.00">tensorflow/compier/xla/service/hlo_dce.cc</text>
</a>
</g>
</g>
<g id="clust16" class="cluster"><title>cluster_instruction_fusion_cc</title>
<g id="a_clust16"><a xlink:href="https://github.com/ROCmSoftwarePlatform/tensorflow/blob/rocm-v1/tensorflow/compiler/xla/service/instruction_fusion.cc" xlink:title="tensorflow/compier/xla/service/instruction_fusion.cc">
<polygon fill="none" stroke="black" points="1461,-39 1461,-114 1764,-114 1764,-39 1461,-39"/>
<text text-anchor="middle" x="1612.5" y="-98.8" font-family="Times,serif" font-size="14.00">tensorflow/compier/xla/service/instruction_fusion.cc</text>
</a>
</g>
</g>
<g id="clust17" class="cluster"><title>cluster_fusion_merger_cc</title>
<g id="a_clust17"><a xlink:href="https://github.com/ROCmSoftwarePlatform/tensorflow/blob/rocm-v1/tensorflow/compiler/xla/service/gpu/fusion_merger.cc" xlink:title="tensorflow/compier/xla/service/gpu/fusion_merger.cc">
<polygon fill="none" stroke="black" points="1145,-39 1145,-114 1453,-114 1453,-39 1145,-39"/>
<text text-anchor="middle" x="1299" y="-98.8" font-family="Times,serif" font-size="14.00">tensorflow/compier/xla/service/gpu/fusion_merger.cc</text>
</a>
</g>
</g>
<g id="clust18" class="cluster"><title>cluster_hlo_verifier_cc</title>
<g id="a_clust18"><a xlink:href="https://github.com/ROCmSoftwarePlatform/tensorflow/blob/rocm-v1/tensorflow/compiler/xla/service/hlo_verifier.cc" xlink:title="tensorflow/compier/xla/service/hlo_verifier.cc">
<polygon fill="none" stroke="black" points="3885,-39 3885,-114 4154,-114 4154,-39 3885,-39"/>
<text text-anchor="middle" x="4019.5" y="-98.8" font-family="Times,serif" font-size="14.00">tensorflow/compier/xla/service/hlo_verifier.cc</text>
</a>
</g>
</g>
<g id="clust19" class="cluster"><title>cluster_pad_insertion_cc</title>
<g id="a_clust19"><a xlink:href="https://github.com/ROCmSoftwarePlatform/tensorflow/blob/rocm-v1/tensorflow/compiler/xla/service/gpu/pad_insertion.cc" xlink:title="tensorflow/compier/xla/service/gpu/pad_insertion.cc">
<polygon fill="none" stroke="black" points="331,-39 331,-114 633,-114 633,-39 331,-39"/>
<text text-anchor="middle" x="482" y="-98.8" font-family="Times,serif" font-size="14.00">tensorflow/compier/xla/service/gpu/pad_insertion.cc</text>
</a>
</g>
</g>
<g id="clust20" class="cluster"><title>cluster_layout_assignment_cc</title>
<g id="a_clust20"><a xlink:href="https://github.com/ROCmSoftwarePlatform/tensorflow/blob/rocm-v1/tensorflow/compiler/xla/service/layout_assignment.cc" xlink:title="tensorflow/compier/xla/service/layout_assignment.cc">
<polygon fill="none" stroke="black" points="16,-39 16,-114 323,-114 323,-39 16,-39"/>
<text text-anchor="middle" x="169.5" y="-98.8" font-family="Times,serif" font-size="14.00">tensorflow/compier/xla/service/layout_assignment.cc</text>
</a>
</g>
</g>
<g id="clust21" class="cluster"><title>cluster_copy_insertion_cc</title>
<g id="a_clust21"><a xlink:href="https://github.com/ROCmSoftwarePlatform/tensorflow/blob/rocm-v1/tensorflow/compiler/xla/service/flatten_call_graph.cc" xlink:title="tensorflow/compier/xla/service/flatten_call_graph.cc">
<polygon fill="none" stroke="black" points="641,-39 641,-114 1137,-114 1137,-39 641,-39"/>
<text text-anchor="middle" x="889" y="-98.8" font-family="Times,serif" font-size="14.00">tensorflow/compier/xla/service/flatten_call_graph.cc</text>
</a>
</g>
</g>
<!-- 00 -->
<g id="node1" class="node"><title>00</title>
<g id="a_node1"><a xlink:href="https://github.com/ROCmSoftwarePlatform/tensorflow/blob/rocm-v1/tensorflow/compiler/xla/service/gpu/amdgpu_compiler.cc#L194" xlink:title="xla::gpu::AMDGPUCompiler::Compile()">
<ellipse fill="none" stroke="black" cx="2702" cy="-345" rx="157.872" ry="18"/>
<text text-anchor="middle" x="2702" y="-341.3" font-family="Times,serif" font-size="14.00">xla::gpu::AMDGPUCompiler::Compile()</text>
</a>
</g>
</g>
<!-- 01 -->
<g id="node2" class="node"><title>01</title>
<g id="a_node2"><a xlink:href="https://github.com/ROCmSoftwarePlatform/tensorflow/blob/rocm-v1/tensorflow/compiler/xla/service/gpu/amdgpu_compiler.cc#L122" xlink:title="OptimizeHloModule()">
<ellipse fill="none" stroke="black" cx="2263" cy="-270" rx="90.9839" ry="18"/>
<text text-anchor="middle" x="2263" y="-266.3" font-family="Times,serif" font-size="14.00">OptimizeHloModule()</text>
</a>
</g>
</g>
<!-- 00&#45;&gt;01 -->
<g id="edge1" class="edge"><title>00&#45;&gt;01</title>
<path fill="none" stroke="black" d="M2554.54,-338.525C2480.3,-334.685 2398.64,-328.502 2363,-319 2340.71,-313.058 2317.39,-302.17 2298.88,-292.264"/>
<polygon fill="black" stroke="black" points="2300.39,-289.1 2289.94,-287.357 2297.03,-295.237 2300.39,-289.1"/>
</g>
<!-- 12 -->
<g id="node3" class="node"><title>12</title>
<g id="a_node3"><a xlink:href="https://github.com/ROCmSoftwarePlatform/tensorflow/blob/rocm-v1/tensorflow/compiler/xla/service/gpu/amdgpu_compiler.cc#L159" xlink:title="PrepareHloModuleForIrEmitting()">
<ellipse fill="none" stroke="black" cx="2506" cy="-270" rx="133.776" ry="18"/>
<text text-anchor="middle" x="2506" y="-266.3" font-family="Times,serif" font-size="14.00">PrepareHloModuleForIrEmitting()</text>
</a>
</g>
</g>
<!-- 00&#45;&gt;12 -->
<g id="edge2" class="edge"><title>00&#45;&gt;12</title>
<path fill="none" stroke="black" d="M2658.01,-327.617C2628.56,-316.646 2589.63,-302.147 2558.54,-290.569"/>
<polygon fill="black" stroke="black" points="2559.76,-287.287 2549.16,-287.077 2557.31,-293.847 2559.76,-287.287"/>
</g>
<!-- 25 -->
<g id="node5" class="node"><title>25</title>
<g id="a_node5"><a xlink:href="https://github.com/ROCmSoftwarePlatform/tensorflow/blob/rocm-v1/tensorflow/compiler/xla/service/gpu/amdgpu_compiler.cc#L243" xlink:title="Start LLVM IR emission">
<ellipse fill="none" stroke="black" cx="2759" cy="-270" rx="100.983" ry="18"/>
<text text-anchor="middle" x="2759" y="-266.3" font-family="Times,serif" font-size="14.00">Start LLVM IR emission</text>
</a>
</g>
</g>
<!-- 00&#45;&gt;25 -->
<g id="edge3" class="edge"><title>00&#45;&gt;25</title>
<path fill="none" stroke="black" d="M2715.51,-326.7C2722.66,-317.543 2731.57,-306.132 2739.46,-296.027"/>
<polygon fill="black" stroke="black" points="2742.39,-297.96 2745.79,-287.924 2736.87,-293.652 2742.39,-297.96"/>
</g>
<!-- 19 -->
<g id="node6" class="node"><title>19</title>
<g id="a_node6"><a xlink:href="https://github.com/ROCmSoftwarePlatform/tensorflow/blob/rocm-v1/tensorflow/compiler/xla/service/gpu/stream_assignment.cc#L115" xlink:title="xla::gpu::AssignStreams()">
<ellipse fill="none" stroke="black" cx="2987" cy="-270" rx="103.182" ry="18"/>
<text text-anchor="middle" x="2987" y="-266.3" font-family="Times,serif" font-size="14.00">xla::gpu::AssignStreams()</text>
</a>
</g>
</g>
<!-- 00&#45;&gt;19 -->
<g id="edge4" class="edge"><title>00&#45;&gt;19</title>
<path fill="none" stroke="black" d="M2811.67,-331.981C2831.92,-328.604 2852.74,-324.345 2872,-319 2897.06,-312.045 2923.94,-301.038 2945.41,-291.318"/>
<polygon fill="black" stroke="black" points="2946.94,-294.466 2954.56,-287.104 2944.01,-288.107 2946.94,-294.466"/>
</g>
<!-- 20 -->
<g id="node7" class="node"><title>20</title>
<g id="a_node7"><a xlink:href="https://github.com/ROCmSoftwarePlatform/tensorflow/blob/rocm-v1/tensorflow/compiler/xla/service/gpu/hlo_schedule.cc#L189" xlink:title="xla::gpu::HloSchedule::Build()">
<ellipse fill="none" stroke="black" cx="3401" cy="-270" rx="120.479" ry="18"/>
<text text-anchor="middle" x="3401" y="-266.3" font-family="Times,serif" font-size="14.00">xla::gpu::HloSchedule::Build()</text>
</a>
</g>
</g>
<!-- 00&#45;&gt;20 -->
<g id="edge5" class="edge"><title>00&#45;&gt;20</title>
<path fill="none" stroke="black" d="M2853.73,-339.98C2979.16,-336.027 3147.12,-329.109 3214,-319 3257.47,-312.429 3305.49,-299.99 3341.98,-289.422"/>
<polygon fill="black" stroke="black" points="3343.34,-292.67 3351.95,-286.497 3341.37,-285.953 3343.34,-292.67"/>
</g>
<!-- 23 -->
<g id="node10" class="node"><title>23</title>
<g id="a_node10"><a xlink:href="https://github.com/ROCmSoftwarePlatform/tensorflow/blob/rocm-v1/tensorflow/compiler/xla/service/buffer_assignment.cc#L584" xlink:title="xla::BufferAssigner::Run()">
<ellipse fill="none" stroke="black" cx="4065" cy="-270" rx="105.881" ry="18"/>
<text text-anchor="middle" x="4065" y="-266.3" font-family="Times,serif" font-size="14.00">xla::BufferAssigner::Run()</text>
</a>
</g>
</g>
<!-- 00&#45;&gt;23 -->
<g id="edge8" class="edge"><title>00&#45;&gt;23</title>
<path fill="none" stroke="black" d="M2859,-342.984C3036.23,-341.044 3333.09,-335.401 3588,-319 3721.57,-310.406 3875.55,-293.669 3971.59,-282.41"/>
<polygon fill="black" stroke="black" points="3972.05,-285.881 3981.57,-281.236 3971.23,-278.929 3972.05,-285.881"/>
</g>
<!-- 02 -->
<g id="node12" class="node"><title>02</title>
<g id="a_node12"><a xlink:href="https://github.com/ROCmSoftwarePlatform/tensorflow/blob/rocm-v1/tensorflow/compiler/xla/service/hlo_pass_pipeline.h#L46" xlink:title="xla::HloPassPipeline::AddPass()">
<ellipse fill="none" stroke="black" cx="2023" cy="-187" rx="125.378" ry="18"/>
<text text-anchor="middle" x="2023" y="-183.3" font-family="Times,serif" font-size="14.00">xla::HloPassPipeline::AddPass()</text>
</a>
</g>
</g>
<!-- 01&#45;&gt;02 -->
<g id="edge10" class="edge"><title>01&#45;&gt;02</title>
<path fill="none" stroke="black" d="M2216.77,-254.48C2198.99,-248.819 2178.52,-242.208 2160,-236 2132.58,-226.805 2102.21,-216.207 2077.05,-207.313"/>
<polygon fill="black" stroke="black" points="2077.91,-203.907 2067.32,-203.868 2075.58,-210.506 2077.91,-203.907"/>
</g>
<!-- 13 -->
<g id="node4" class="node"><title>13</title>
<g id="a_node4"><a xlink:href="https://github.com/ROCmSoftwarePlatform/tensorflow/blob/rocm-v1/tensorflow/compiler/xla/service/hlo_pass_pipeline.h#L57" xlink:title="xla::HloPassPipeline::AddInvariantChecker()">
<ellipse fill="none" stroke="black" cx="2597" cy="-187" rx="170.87" ry="18"/>
<text text-anchor="middle" x="2597" y="-183.3" font-family="Times,serif" font-size="14.00">xla::HloPassPipeline::AddInvariantChecker()</text>
</a>
</g>
</g>
<!-- 12&#45;&gt;13 -->
<g id="edge11" class="edge"><title>12&#45;&gt;13</title>
<path fill="none" stroke="black" d="M2525.3,-251.822C2538.33,-240.224 2555.71,-224.755 2570.09,-211.951"/>
<polygon fill="black" stroke="black" points="2572.59,-214.416 2577.73,-205.153 2567.93,-209.188 2572.59,-214.416"/>
</g>
<!-- 12&#45;&gt;02 -->
<g id="edge12" class="edge"><title>12&#45;&gt;02</title>
<path fill="none" stroke="black" d="M2434.98,-254.654C2412.09,-250.55 2386.56,-246.512 2363,-244 2273.22,-234.426 2248.7,-252.892 2160,-236 2129.05,-230.105 2095.65,-218.519 2069.58,-208.207"/>
<polygon fill="black" stroke="black" points="2070.55,-204.825 2059.97,-204.332 2067.93,-211.317 2070.55,-204.825"/>
</g>
<!-- 14 -->
<g id="node22" class="node"><title>14</title>
<g id="a_node22"><a xlink:href="https://github.com/ROCmSoftwarePlatform/tensorflow/blob/rocm-v1/tensorflow/compiler/xla/service/hlo_verifier.cc#L21" xlink:title="xla::HloVerifier::Run()">
<ellipse fill="none" stroke="black" cx="3986" cy="-65" rx="92.8835" ry="18"/>
<text text-anchor="middle" x="3986" y="-61.3" font-family="Times,serif" font-size="14.00">xla::HloVerifier::Run()</text>
</a>
</g>
</g>
<!-- 13&#45;&gt;14 -->
<g id="edge22" class="edge"><title>13&#45;&gt;14</title>
<path fill="none" stroke="black" d="M2738.14,-176.784C2863.15,-169.019 3050.63,-158.346 3214,-153 3232.52,-152.394 3863.46,-150.978 3881,-145 3913.22,-134.019 3943.54,-109.005 3963.24,-90.0446"/>
<polygon fill="black" stroke="black" points="3965.86,-92.3816 3970.51,-82.8609 3960.93,-87.405 3965.86,-92.3816"/>
</g>
<!-- 22 -->
<g id="node8" class="node"><title>22</title>
<g id="a_node8"><a xlink:href="https://github.com/ROCmSoftwarePlatform/tensorflow/blob/rocm-v1/tensorflow/compiler/xla/service/gpu/hlo_schedule.cc#L55" xlink:title="xla::gpu::GpuHloOrdering::GpuHloOrdering()">
<ellipse fill="none" stroke="black" cx="3401" cy="-187" rx="174.669" ry="18"/>
<text text-anchor="middle" x="3401" y="-183.3" font-family="Times,serif" font-size="14.00">xla::gpu::GpuHloOrdering::GpuHloOrdering()</text>
</a>
</g>
</g>
<!-- 20&#45;&gt;22 -->
<g id="edge6" class="edge"><title>20&#45;&gt;22</title>
<path fill="none" stroke="black" d="M3401,-251.822C3401,-241.19 3401,-227.306 3401,-215.204"/>
<polygon fill="black" stroke="black" points="3404.5,-215.153 3401,-205.153 3397.5,-215.153 3404.5,-215.153"/>
</g>
<!-- 21 -->
<g id="node9" class="node"><title>21</title>
<g id="a_node9"><a xlink:href="https://github.com/ROCmSoftwarePlatform/tensorflow/blob/rocm-v1/tensorflow/compiler/xla/service/hlo_scheduling.cc#L356" xlink:title="xla::CreateMemoryMinimizeSequence()">
<ellipse fill="none" stroke="black" cx="3755" cy="-187" rx="155.173" ry="18"/>
<text text-anchor="middle" x="3755" y="-183.3" font-family="Times,serif" font-size="14.00">xla::CreateMemoryMinimizeSequence()</text>
</a>
</g>
</g>
<!-- 20&#45;&gt;21 -->
<g id="edge7" class="edge"><title>20&#45;&gt;21</title>
<path fill="none" stroke="black" d="M3481.91,-256.631C3514.97,-251.083 3553.47,-243.985 3588,-236 3623.54,-227.781 3662.76,-216.618 3694.26,-207.125"/>
<polygon fill="black" stroke="black" points="3695.65,-210.362 3704.2,-204.108 3693.62,-203.663 3695.65,-210.362"/>
</g>
<!-- 24 -->
<g id="node11" class="node"><title>24</title>
<g id="a_node11"><a xlink:href="https://github.com/ROCmSoftwarePlatform/tensorflow/blob/rocm-v1/tensorflow/compiler/xla/service/buffer_assignment.cc#L1328" xlink:title="xla::BufferAssigner::CreateAssignment()">
<ellipse fill="none" stroke="black" cx="4091" cy="-187" rx="156.772" ry="18"/>
<text text-anchor="middle" x="4091" y="-183.3" font-family="Times,serif" font-size="14.00">xla::BufferAssigner::CreateAssignment()</text>
</a>
</g>
</g>
<!-- 23&#45;&gt;24 -->
<g id="edge9" class="edge"><title>23&#45;&gt;24</title>
<path fill="none" stroke="black" d="M4070.51,-251.822C4073.96,-241.083 4078.47,-227.025 4082.39,-214.837"/>
<polygon fill="black" stroke="black" points="4085.77,-215.744 4085.49,-205.153 4079.11,-213.605 4085.77,-215.744"/>
</g>
<!-- 03 -->
<g id="node13" class="node"><title>03</title>
<g id="a_node13"><a xlink:href="https://github.com/ROCmSoftwarePlatform/tensorflow/blob/rocm-v1/tensorflow/compiler/xla/service/algebraic_simplifier.cc#L1581" xlink:title="xla::AlgebraicSimplifier::Run()">
<ellipse fill="none" stroke="black" cx="3693" cy="-65" rx="122.379" ry="18"/>
<text text-anchor="middle" x="3693" y="-61.3" font-family="Times,serif" font-size="14.00">xla::AlgebraicSimplifier::Run()</text>
</a>
</g>
</g>
<!-- 02&#45;&gt;03 -->
<g id="edge13" class="edge"><title>02&#45;&gt;03</title>
<path fill="none" stroke="black" d="M2074.85,-170.522C2100.26,-163.708 2131.46,-156.471 2160,-153 2198.58,-148.307 3521.54,-155.336 3559,-145 3598.53,-134.094 3638.31,-108.334 3664.13,-89.1773"/>
<polygon fill="black" stroke="black" points="3666.48,-91.7923 3672.33,-82.9647 3662.25,-86.2121 3666.48,-91.7923"/>
</g>
<!-- 04 -->
<g id="node14" class="node"><title>04</title>
<g id="a_node14"><a xlink:href="https://github.com/ROCmSoftwarePlatform/tensorflow/blob/rocm-v1/tensorflow/compiler/xla/service/reshape_mover.cc#L313" xlink:title="xla::ReshapeMover::Run()">
<ellipse fill="none" stroke="black" cx="3380" cy="-65" rx="105.082" ry="18"/>
<text text-anchor="middle" x="3380" y="-61.3" font-family="Times,serif" font-size="14.00">xla::ReshapeMover::Run()</text>
</a>
</g>
</g>
<!-- 02&#45;&gt;04 -->
<g id="edge14" class="edge"><title>02&#45;&gt;04</title>
<path fill="none" stroke="black" d="M2074.85,-170.541C2100.26,-163.732 2131.47,-156.493 2160,-153 2190.41,-149.277 3233.73,-154.071 3263,-145 3298.24,-134.078 3332.48,-108.69 3354.72,-89.622"/>
<polygon fill="black" stroke="black" points="3357.15,-92.1499 3362.35,-82.9215 3352.53,-86.8901 3357.15,-92.1499"/>
</g>
<!-- 05 -->
<g id="node15" class="node"><title>05</title>
<g id="a_node15"><a xlink:href="https://github.com/ROCmSoftwarePlatform/tensorflow/blob/rocm-v1/tensorflow/compiler/xla/service/hlo_constant_folding.cc#L37" xlink:title="xla::HloConstantFolding::Run()">
<ellipse fill="none" stroke="black" cx="3070" cy="-65" rx="123.478" ry="18"/>
<text text-anchor="middle" x="3070" y="-61.3" font-family="Times,serif" font-size="14.00">xla::HloConstantFolding::Run()</text>
</a>
</g>
</g>
<!-- 02&#45;&gt;05 -->
<g id="edge15" class="edge"><title>02&#45;&gt;05</title>
<path fill="none" stroke="black" d="M2074.86,-170.58C2100.27,-163.779 2131.47,-156.537 2160,-153 2202.73,-147.702 2893.5,-156.48 2935,-145 2974.74,-134.007 3014.83,-108.263 3040.87,-89.1339"/>
<polygon fill="black" stroke="black" points="3043.25,-91.73 3049.15,-82.9309 3039.05,-86.1293 3043.25,-91.73"/>
</g>
<!-- 06 -->
<g id="node16" class="node"><title>06</title>
<g id="a_node16"><a xlink:href="https://github.com/ROCmSoftwarePlatform/tensorflow/blob/rocm-v1/tensorflow/compiler/xla/service/gpu/convolution_folding.cc#L392" xlink:title="xla::ConvolutionFolding::Run()">
<ellipse fill="none" stroke="black" cx="2723" cy="-65" rx="122.678" ry="18"/>
<text text-anchor="middle" x="2723" y="-61.3" font-family="Times,serif" font-size="14.00">xla::ConvolutionFolding::Run()</text>
</a>
</g>
</g>
<!-- 02&#45;&gt;06 -->
<g id="edge16" class="edge"><title>02&#45;&gt;06</title>
<path fill="none" stroke="black" d="M2075.2,-170.598C2100.55,-163.846 2131.61,-156.641 2160,-153 2207.18,-146.951 2542.21,-157.873 2588,-145 2627.69,-133.84 2667.79,-108.128 2693.85,-89.0514"/>
<polygon fill="black" stroke="black" points="2696.21,-91.6557 2702.13,-82.8669 2692.02,-86.0477 2696.21,-91.6557"/>
</g>
<!-- 07 -->
<g id="node17" class="node"><title>07</title>
<g id="a_node17"><a xlink:href="https://github.com/ROCmSoftwarePlatform/tensorflow/blob/rocm-v1/tensorflow/compiler/xla/service/gpu/transpose_folding.cc#L144" xlink:title="xla::TransposeFolding::Run()">
<ellipse fill="none" stroke="black" cx="2405" cy="-65" rx="115.08" ry="18"/>
<text text-anchor="middle" x="2405" y="-61.3" font-family="Times,serif" font-size="14.00">xla::TransposeFolding::Run()</text>
</a>
</g>
</g>
<!-- 02&#45;&gt;07 -->
<g id="edge17" class="edge"><title>02&#45;&gt;07</title>
<path fill="none" stroke="black" d="M2077.25,-170.703C2102.25,-164.23 2132.43,-157.224 2160,-153 2211.96,-145.039 2227.97,-161.14 2278,-145 2315.14,-133.018 2352.44,-107.88 2376.91,-89.1604"/>
<polygon fill="black" stroke="black" points="2379.28,-91.7504 2385.01,-82.839 2374.98,-86.2318 2379.28,-91.7504"/>
</g>
<!-- 08 -->
<g id="node18" class="node"><title>08</title>
<g id="a_node18"><a xlink:href="https://github.com/ROCmSoftwarePlatform/tensorflow/blob/rocm-v1/tensorflow/compiler/xla/service/hlo_cse.cc#L92" xlink:title="xla::HloCSE::Run()">
<ellipse fill="none" stroke="black" cx="2117" cy="-65" rx="81.4863" ry="18"/>
<text text-anchor="middle" x="2117" y="-61.3" font-family="Times,serif" font-size="14.00">xla::HloCSE::Run()</text>
</a>
</g>
</g>
<!-- 02&#45;&gt;08 -->
<g id="edge18" class="edge"><title>02&#45;&gt;08</title>
<path fill="none" stroke="black" d="M2036.27,-169.061C2052.22,-148.693 2079.14,-114.329 2097.47,-90.9307"/>
<polygon fill="black" stroke="black" points="2100.39,-92.883 2103.8,-82.8524 2094.88,-88.5664 2100.39,-92.883"/>
</g>
<!-- 09 -->
<g id="node19" class="node"><title>09</title>
<g id="a_node19"><a xlink:href="https://github.com/ROCmSoftwarePlatform/tensorflow/blob/rocm-v1/tensorflow/compiler/xla/service/hlo_dce.cc#L37" xlink:title="xla::HloDCE::Run()">
<ellipse fill="none" stroke="black" cx="1929" cy="-65" rx="82.5854" ry="18"/>
<text text-anchor="middle" x="1929" y="-61.3" font-family="Times,serif" font-size="14.00">xla::HloDCE::Run()</text>
</a>
</g>
</g>
<!-- 02&#45;&gt;09 -->
<g id="edge19" class="edge"><title>02&#45;&gt;09</title>
<path fill="none" stroke="black" d="M2009.73,-169.061C1993.78,-148.693 1966.86,-114.329 1948.53,-90.9307"/>
<polygon fill="black" stroke="black" points="1951.12,-88.5664 1942.2,-82.8524 1945.61,-92.883 1951.12,-88.5664"/>
</g>
<!-- 10 -->
<g id="node20" class="node"><title>10</title>
<g id="a_node20"><a xlink:href="https://github.com/ROCmSoftwarePlatform/tensorflow/blob/rocm-v1/tensorflow/compiler/xla/service/instruction_fusion.cc#L211" xlink:title="xla::InstructionFusion::Run()">
<ellipse fill="none" stroke="black" cx="1642" cy="-65" rx="113.98" ry="18"/>
<text text-anchor="middle" x="1642" y="-61.3" font-family="Times,serif" font-size="14.00">xla::InstructionFusion::Run()</text>
</a>
</g>
</g>
<!-- 02&#45;&gt;10 -->
<g id="edge20" class="edge"><title>02&#45;&gt;10</title>
<path fill="none" stroke="black" d="M1913.52,-178.107C1867.5,-172.328 1814.06,-162.323 1768,-145 1732.11,-131.504 1695.47,-107.085 1671.01,-88.9549"/>
<polygon fill="black" stroke="black" points="1672.99,-86.0588 1662.89,-82.8327 1668.77,-91.648 1672.99,-86.0588"/>
</g>
<!-- 11 -->
<g id="node21" class="node"><title>11</title>
<g id="a_node21"><a xlink:href="https://github.com/ROCmSoftwarePlatform/tensorflow/blob/rocm-v1/tensorflow/compiler/xla/service/gpu/fusion_merger.cc#L293" xlink:title="xla::FusionMerger::Run()">
<ellipse fill="none" stroke="black" cx="1343" cy="-65" rx="102.082" ry="18"/>
<text text-anchor="middle" x="1343" y="-61.3" font-family="Times,serif" font-size="14.00">xla::FusionMerger::Run()</text>
</a>
</g>
</g>
<!-- 02&#45;&gt;11 -->
<g id="edge21" class="edge"><title>02&#45;&gt;11</title>
<path fill="none" stroke="black" d="M1898.52,-184.609C1757.03,-181.693 1535.51,-172.697 1457,-145 1423.17,-133.066 1390.11,-108.27 1368.38,-89.6224"/>
<polygon fill="black" stroke="black" points="1370.45,-86.7838 1360.63,-82.8162 1365.83,-92.044 1370.45,-86.7838"/>
</g>
<!-- 15 -->
<g id="node23" class="node"><title>15</title>
<g id="a_node23"><a xlink:href="https://github.com/ROCmSoftwarePlatform/tensorflow/blob/rocm-v1/tensorflow/compiler/xla/service/gpu/pad_insertion.cc#L389" xlink:title="xla::PadInsertion::Run()">
<ellipse fill="none" stroke="black" cx="529" cy="-65" rx="96.3833" ry="18"/>
<text text-anchor="middle" x="529" y="-61.3" font-family="Times,serif" font-size="14.00">xla::PadInsertion::Run()</text>
</a>
</g>
</g>
<!-- 02&#45;&gt;15 -->
<g id="edge23" class="edge"><title>02&#45;&gt;15</title>
<path fill="none" stroke="black" d="M1897.59,-186.526C1578.77,-187.263 754.157,-185.202 637,-145 604.072,-133.701 572.687,-108.56 552.322,-89.6541"/>
<polygon fill="black" stroke="black" points="554.731,-87.116 545.076,-82.7554 549.905,-92.1857 554.731,-87.116"/>
</g>
<!-- 16 -->
<g id="node24" class="node"><title>16</title>
<g id="a_node24"><a xlink:href="https://github.com/ROCmSoftwarePlatform/tensorflow/blob/rocm-v1/tensorflow/compiler/xla/service/layout_assignment.cc#L1343" xlink:title="xla::LayoutAssignment::Run()">
<ellipse fill="none" stroke="black" cx="196" cy="-65" rx="118.879" ry="18"/>
<text text-anchor="middle" x="196" y="-61.3" font-family="Times,serif" font-size="14.00">xla::LayoutAssignment::Run()</text>
</a>
</g>
</g>
<!-- 02&#45;&gt;16 -->
<g id="edge24" class="edge"><title>02&#45;&gt;16</title>
<path fill="none" stroke="black" d="M1898.24,-184.735C1519.15,-180.661 402.047,-166.858 327,-145 288.283,-133.724 249.41,-108.033 224.186,-88.9933"/>
<polygon fill="black" stroke="black" points="226.232,-86.1519 216.175,-82.8218 221.961,-91.6973 226.232,-86.1519"/>
</g>
<!-- 17 -->
<g id="node25" class="node"><title>17</title>
<g id="a_node25"><a xlink:href="https://github.com/ROCmSoftwarePlatform/tensorflow/blob/rocm-v1/tensorflow/compiler/xla/service/copy_insertion.cc#L525" xlink:title="xla::LayoutAssignment::Run()">
<ellipse fill="none" stroke="black" cx="1010" cy="-65" rx="118.879" ry="18"/>
<text text-anchor="middle" x="1010" y="-61.3" font-family="Times,serif" font-size="14.00">xla::LayoutAssignment::Run()</text>
</a>
</g>
</g>
<!-- 02&#45;&gt;17 -->
<g id="edge25" class="edge"><title>02&#45;&gt;17</title>
<path fill="none" stroke="black" d="M1899.71,-183.627C1674.13,-178.791 1211.55,-166.403 1141,-145 1102.64,-133.362 1063.97,-107.985 1038.7,-89.1157"/>
<polygon fill="black" stroke="black" points="1040.74,-86.2684 1030.66,-82.9952 1036.5,-91.8378 1040.74,-86.2684"/>
</g>
<!-- 18 -->
<g id="node26" class="node"><title>18</title>
<g id="a_node26"><a xlink:href="https://github.com/ROCmSoftwarePlatform/tensorflow/blob/rocm-v1/tensorflow/compiler/xla/service/flatten_call_graph.cc#L102" xlink:title="xla::FlattenCallGraph::Run()">
<ellipse fill="none" stroke="black" cx="761" cy="-65" rx="112.38" ry="18"/>
<text text-anchor="middle" x="761" y="-61.3" font-family="Times,serif" font-size="14.00">xla::FlattenCallGraph::Run()</text>
</a>
</g>
</g>
<!-- 02&#45;&gt;18 -->
<g id="edge26" class="edge"><title>02&#45;&gt;18</title>
<path fill="none" stroke="black" d="M1897.95,-185.284C1621.75,-183.16 976.618,-175.013 882,-145 846.219,-133.65 810.93,-108.581 787.78,-89.7062"/>
<polygon fill="black" stroke="black" points="789.744,-86.7864 779.822,-83.0696 785.26,-92.1623 789.744,-86.7864"/>
</g>
</g>
</svg>
