<?xml version="1.0" encoding="UTF-8" standalone="no"?>
<!DOCTYPE svg PUBLIC "-//W3C//DTD SVG 1.1//EN"
 "http://www.w3.org/Graphics/SVG/1.1/DTD/svg11.dtd">
<!-- Generated by graphviz version 2.38.0 (20140413.2041)
 -->
<!-- Title: 06 Pages: 1 -->
<svg width="806pt" height="316pt"
 viewBox="0.00 0.00 806.00 316.00" xmlns="http://www.w3.org/2000/svg" xmlns:xlink="http://www.w3.org/1999/xlink">
<g id="graph0" class="graph" transform="scale(1 1) rotate(0) translate(4 312)">
<title>06</title>
<polygon fill="white" stroke="none" points="-4,4 -4,-312 802,-312 802,4 -4,4"/>
<text text-anchor="middle" x="399" y="-7.8" font-family="Times,serif" font-size="14.00">AMDGPUCompiler::Compile() LLVM IR part</text>
<g id="clust1" class="cluster"><title>cluster_xla</title>
<polygon fill="none" stroke="black" points="8,-31 8,-300 790,-300 790,-31 8,-31"/>
<text text-anchor="middle" x="399" y="-284.8" font-family="Times,serif" font-size="14.00">XLA</text>
</g>
<g id="clust2" class="cluster"><title>cluster_amdgpu_compuiler_cc</title>
<g id="a_clust2"><a xlink:href="https://github.com/ROCmSoftwarePlatform/tensorflow/blob/rocm-v1/tensorflow/compiler/xla/service/gpu/amdgpu_compiler.cc" xlink:title="tensorflow/compier/xla/service/gpu/amdgpu_compiler.cc">
<polygon fill="none" stroke="black" points="227,-122 227,-269 559,-269 559,-122 227,-122"/>
<text text-anchor="middle" x="393" y="-253.8" font-family="Times,serif" font-size="14.00">tensorflow/compier/xla/service/gpu/amdgpu_compiler.cc</text>
</a>
</g>
</g>
<g id="clust3" class="cluster"><title>cluster_ir_emitter_context_h</title>
<g id="a_clust3"><a xlink:href="https://github.com/ROCmSoftwarePlatform/tensorflow/blob/rocm-v1/tensorflow/compiler/xla/service/gpu/ir_emitter_context.h" xlink:title="tensorflow/compier/xla/service/gpu/ir_emitter_context.h">
<polygon fill="none" stroke="black" points="16,-39 16,-114 384,-114 384,-39 16,-39"/>
<text text-anchor="middle" x="200" y="-98.8" font-family="Times,serif" font-size="14.00">tensorflow/compier/xla/service/gpu/ir_emitter_context.h</text>
</a>
</g>
</g>
<g id="clust4" class="cluster"><title>cluster_ir_emitter_unnested_cc</title>
<g id="a_clust4"><a xlink:href="https://github.com/ROCmSoftwarePlatform/tensorflow/blob/rocm-v1/tensorflow/compiler/xla/service/gpu/ir_emitter_unnested.cc" xlink:title="tensorflow/compier/xla/service/gpu/ir_emitter_unnested.cc">
<polygon fill="none" stroke="black" points="392,-39 392,-114 782,-114 782,-39 392,-39"/>
<text text-anchor="middle" x="587" y="-98.8" font-family="Times,serif" font-size="14.00">tensorflow/compier/xla/service/gpu/ir_emitter_unnested.cc</text>
</a>
</g>
</g>
<!-- 00 -->
<g id="node1" class="node"><title>00</title>
<g id="a_node1"><a xlink:href="https://github.com/ROCmSoftwarePlatform/tensorflow/blob/rocm-v1/tensorflow/compiler/xla/service/gpu/amdgpu_compiler.cc#L194" xlink:title="xla::gpu::AMDGPUCompiler::Compile()">
<ellipse fill="none" stroke="black" cx="393" cy="-220" rx="157.872" ry="18"/>
<text text-anchor="middle" x="393" y="-216.3" font-family="Times,serif" font-size="14.00">xla::gpu::AMDGPUCompiler::Compile()</text>
</a>
</g>
</g>
<!-- 01 -->
<g id="node2" class="node"><title>01</title>
<g id="a_node2"><a xlink:href="https://github.com/ROCmSoftwarePlatform/tensorflow/blob/rocm-v1/tensorflow/compiler/xla/service/gpu/amdgpu_compiler.cc#L243" xlink:title="Start LLVM IR emission">
<ellipse fill="none" stroke="black" cx="393" cy="-148" rx="100.983" ry="18"/>
<text text-anchor="middle" x="393" y="-144.3" font-family="Times,serif" font-size="14.00">Start LLVM IR emission</text>
</a>
</g>
</g>
<!-- 00&#45;&gt;01 -->
<g id="edge1" class="edge"><title>00&#45;&gt;01</title>
<path fill="none" stroke="black" d="M393,-201.697C393,-193.983 393,-184.712 393,-176.112"/>
<polygon fill="black" stroke="black" points="396.5,-176.104 393,-166.104 389.5,-176.104 396.5,-176.104"/>
</g>
<!-- 02 -->
<g id="node3" class="node"><title>02</title>
<g id="a_node3"><a xlink:href="https://github.com/ROCmSoftwarePlatform/tensorflow/blob/rocm-v1/tensorflow/compiler/xla/service/gpu/ir_emitter_context.h#L33" xlink:title="xla::gpu::IrEmitterContext::IrEmitterContext()">
<ellipse fill="none" stroke="black" cx="200" cy="-65" rx="176.269" ry="18"/>
<text text-anchor="middle" x="200" y="-61.3" font-family="Times,serif" font-size="14.00">xla::gpu::IrEmitterContext::IrEmitterContext()</text>
</a>
</g>
</g>
<!-- 01&#45;&gt;02 -->
<g id="edge2" class="edge"><title>01&#45;&gt;02</title>
<path fill="none" stroke="black" d="M355.329,-131.19C324.977,-118.451 282.068,-100.443 249.037,-86.5803"/>
<polygon fill="black" stroke="black" points="250.141,-83.248 239.566,-82.6054 247.432,-89.7026 250.141,-83.248"/>
</g>
<!-- 03 -->
<g id="node4" class="node"><title>03</title>
<g id="a_node4"><a xlink:href="https://github.com/ROCmSoftwarePlatform/tensorflow/blob/rocm-v1/tensorflow/compiler/xla/service/gpu/ir_emitter_unnested.cc#L132" xlink:title="xla::gpu::IrEmitterUnnested::IrEmitterUnnested()">
<ellipse fill="none" stroke="black" cx="587" cy="-65" rx="186.567" ry="18"/>
<text text-anchor="middle" x="587" y="-61.3" font-family="Times,serif" font-size="14.00">xla::gpu::IrEmitterUnnested::IrEmitterUnnested()</text>
</a>
</g>
</g>
<!-- 01&#45;&gt;03 -->
<g id="edge3" class="edge"><title>01&#45;&gt;03</title>
<path fill="none" stroke="black" d="M430.866,-131.19C461.376,-118.451 504.507,-100.443 537.709,-86.5803"/>
<polygon fill="black" stroke="black" points="539.35,-89.6881 547.229,-82.6054 536.653,-83.2286 539.35,-89.6881"/>
</g>
</g>
</svg>
