<?xml version="1.0" encoding="UTF-8" standalone="no"?>
<!DOCTYPE svg PUBLIC "-//W3C//DTD SVG 1.1//EN"
 "http://www.w3.org/Graphics/SVG/1.1/DTD/svg11.dtd">
<!-- Generated by graphviz version 2.38.0 (20140413.2041)
 -->
<!-- Title: 07 Pages: 1 -->
<svg width="2457pt" height="532pt"
 viewBox="0.00 0.00 2457.00 532.00" xmlns="http://www.w3.org/2000/svg" xmlns:xlink="http://www.w3.org/1999/xlink">
<g id="graph0" class="graph" transform="scale(1 1) rotate(0) translate(4 528)">
<title>07</title>
<polygon fill="white" stroke="none" points="-4,4 -4,-528 2453,-528 2453,4 -4,4"/>
<text text-anchor="middle" x="1224.5" y="-7.8" font-family="Times,serif" font-size="14.00">AMDGPUCompiler::Compile() LLVM IR to HSA code object</text>
<g id="clust1" class="cluster"><title>cluster_xla</title>
<polygon fill="none" stroke="black" points="8,-31 8,-516 2441,-516 2441,-31 8,-31"/>
<text text-anchor="middle" x="1224.5" y="-500.8" font-family="Times,serif" font-size="14.00">XLA</text>
</g>
<g id="clust2" class="cluster"><title>cluster_amdgpu_compuiler_cc</title>
<g id="a_clust2"><a xlink:href="https://github.com/ROCmSoftwarePlatform/tensorflow/blob/rocm-v1/tensorflow/compiler/xla/service/gpu/amdgpu_compiler.cc" xlink:title="tensorflow/compier/xla/service/gpu/amdgpu_compiler.cc">
<polygon fill="none" stroke="black" points="396,-338 396,-485 728,-485 728,-338 396,-338"/>
<text text-anchor="middle" x="562" y="-469.8" font-family="Times,serif" font-size="14.00">tensorflow/compier/xla/service/gpu/amdgpu_compiler.cc</text>
</a>
</g>
</g>
<g id="clust3" class="cluster"><title>cluster_amdgpu_backend_lib_cc</title>
<g id="a_clust3"><a xlink:href="https://github.com/ROCmSoftwarePlatform/tensorflow/blob/rocm-v1/tensorflow/compiler/xla/service/gpu/llvm_gpu_backend/amdgpu_backend_lib.cc" xlink:title="tensorflow/compier/xla/service/gpu/llvm_gpu_backend/amdgpu_backend_lib.cc">
<polygon fill="none" stroke="black" points="16,-39 16,-330 2433,-330 2433,-39 16,-39"/>
<text text-anchor="middle" x="1224.5" y="-314.8" font-family="Times,serif" font-size="14.00">tensorflow/compier/xla/service/gpu/llvm_gpu_backend/amdgpu_backend_lib.cc</text>
</a>
</g>
</g>
<!-- 00 -->
<g id="node1" class="node"><title>00</title>
<g id="a_node1"><a xlink:href="https://github.com/ROCmSoftwarePlatform/tensorflow/blob/rocm-v1/tensorflow/compiler/xla/service/gpu/amdgpu_compiler.cc#L194" xlink:title="xla::gpu::AMDGPUCompiler::Compile()">
<ellipse fill="none" stroke="black" cx="562" cy="-436" rx="157.872" ry="18"/>
<text text-anchor="middle" x="562" y="-432.3" font-family="Times,serif" font-size="14.00">xla::gpu::AMDGPUCompiler::Compile()</text>
</a>
</g>
</g>
<!-- 01 -->
<g id="node2" class="node"><title>01</title>
<g id="a_node2"><a xlink:href="https://github.com/ROCmSoftwarePlatform/tensorflow/blob/rocm-v1/tensorflow/compiler/xla/service/gpu/amdgpu_compiler.cc#L257" xlink:title="After LLVM IR emission">
<ellipse fill="none" stroke="black" cx="562" cy="-364" rx="102.882" ry="18"/>
<text text-anchor="middle" x="562" y="-360.3" font-family="Times,serif" font-size="14.00">After LLVM IR emission</text>
</a>
</g>
</g>
<!-- 00&#45;&gt;01 -->
<g id="edge1" class="edge"><title>00&#45;&gt;01</title>
<path fill="none" stroke="black" d="M562,-417.697C562,-409.983 562,-400.712 562,-392.112"/>
<polygon fill="black" stroke="black" points="565.5,-392.104 562,-382.104 558.5,-392.104 565.5,-392.104"/>
</g>
<!-- 02 -->
<g id="node3" class="node"><title>02</title>
<g id="a_node3"><a xlink:href="https://github.com/ROCmSoftwarePlatform/tensorflow/blob/rocm-v1/tensorflow/compiler/xla/service/gpu/llvm_gpu_backend/amdgpu_backend_lib.cc#L460" xlink:title="xla::gpu::CompileToHsaco()">
<ellipse fill="none" stroke="black" cx="562" cy="-281" rx="112.38" ry="18"/>
<text text-anchor="middle" x="562" y="-277.3" font-family="Times,serif" font-size="14.00">xla::gpu::CompileToHsaco()</text>
</a>
</g>
</g>
<!-- 01&#45;&gt;02 -->
<g id="edge2" class="edge"><title>01&#45;&gt;02</title>
<path fill="none" stroke="black" d="M562,-345.822C562,-335.19 562,-321.306 562,-309.204"/>
<polygon fill="black" stroke="black" points="565.5,-309.153 562,-299.153 558.5,-309.153 565.5,-309.153"/>
</g>
<!-- 03 -->
<g id="node4" class="node"><title>03</title>
<g id="a_node4"><a xlink:href="https://github.com/ROCmSoftwarePlatform/tensorflow/blob/rocm-v1/tensorflow/compiler/xla/service/gpu/llvm_gpu_backend/amdgpu_backend_lib.cc#L442" xlink:title="GPUBackendInit()">
<ellipse fill="none" stroke="black" cx="522" cy="-209" rx="77.1866" ry="18"/>
<text text-anchor="middle" x="522" y="-205.3" font-family="Times,serif" font-size="14.00">GPUBackendInit()</text>
</a>
</g>
</g>
<!-- 02&#45;&gt;03 -->
<g id="edge3" class="edge"><title>02&#45;&gt;03</title>
<path fill="none" stroke="black" d="M552.317,-263.055C547.718,-255.007 542.117,-245.205 536.986,-236.226"/>
<polygon fill="black" stroke="black" points="539.872,-234.221 531.872,-227.275 533.794,-237.694 539.872,-234.221"/>
</g>
<!-- 05 -->
<g id="node6" class="node"><title>05</title>
<g id="a_node6"><a xlink:href="https://github.com/ROCmSoftwarePlatform/tensorflow/blob/rocm-v1/tensorflow/compiler/xla/service/gpu/llvm_gpu_backend/amdgpu_backend_lib.cc#L359" xlink:title="CompileModuleToHsaco()">
<ellipse fill="none" stroke="black" cx="1105" cy="-209" rx="106.681" ry="18"/>
<text text-anchor="middle" x="1105" y="-205.3" font-family="Times,serif" font-size="14.00">CompileModuleToHsaco()</text>
</a>
</g>
</g>
<!-- 02&#45;&gt;05 -->
<g id="edge5" class="edge"><title>02&#45;&gt;05</title>
<path fill="none" stroke="black" d="M646.546,-269.101C745.926,-256.289 910.274,-235.103 1012.84,-221.881"/>
<polygon fill="black" stroke="black" points="1013.41,-225.337 1022.88,-220.587 1012.51,-218.394 1013.41,-225.337"/>
</g>
<!-- 04 -->
<g id="node5" class="node"><title>04</title>
<g id="a_node5"><a xlink:href="https://github.com/ROCmSoftwarePlatform/tensorflow/blob/rocm-v1/tensorflow/compiler/xla/service/gpu/llvm_gpu_backend/amdgpu_backend_lib.cc#L105" xlink:title="InitializePasses()">
<ellipse fill="none" stroke="black" cx="95" cy="-137" rx="70.6878" ry="18"/>
<text text-anchor="middle" x="95" y="-133.3" font-family="Times,serif" font-size="14.00">InitializePasses()</text>
</a>
</g>
</g>
<!-- 03&#45;&gt;04 -->
<g id="edge4" class="edge"><title>03&#45;&gt;04</title>
<path fill="none" stroke="black" d="M456.702,-199.264C386.62,-189.605 272.128,-173.013 174,-155 168.254,-153.945 162.287,-152.784 156.324,-151.578"/>
<polygon fill="black" stroke="black" points="156.83,-148.109 146.329,-149.519 155.417,-154.965 156.83,-148.109"/>
</g>
<!-- 06 -->
<g id="node7" class="node"><title>06</title>
<g id="a_node7"><a xlink:href="https://github.com/ROCmSoftwarePlatform/tensorflow/blob/rocm-v1/tensorflow/compiler/xla/service/gpu/llvm_gpu_backend/amdgpu_backend_lib.cc#L326" xlink:title="LinkROCDLIfNecessary()">
<ellipse fill="none" stroke="black" cx="288" cy="-137" rx="104.782" ry="18"/>
<text text-anchor="middle" x="288" y="-133.3" font-family="Times,serif" font-size="14.00">LinkROCDLIfNecessary()</text>
</a>
</g>
</g>
<!-- 05&#45;&gt;06 -->
<g id="edge6" class="edge"><title>05&#45;&gt;06</title>
<path fill="none" stroke="black" d="M1004.96,-202.755C868.432,-195.073 616.226,-179.016 402,-155 392.231,-153.905 382.013,-152.604 371.879,-151.217"/>
<polygon fill="black" stroke="black" points="372.181,-147.725 361.792,-149.805 371.21,-154.657 372.181,-147.725"/>
</g>
<!-- 10 -->
<g id="node11" class="node"><title>10</title>
<g id="a_node11"><a xlink:href="https://github.com/ROCmSoftwarePlatform/tensorflow/blob/rocm-v1/tensorflow/compiler/xla/service/gpu/llvm_gpu_backend/amdgpu_backend_lib.cc#L121" xlink:title="GetTargetMachine()">
<ellipse fill="none" stroke="black" cx="494" cy="-137" rx="83.3857" ry="18"/>
<text text-anchor="middle" x="494" y="-133.3" font-family="Times,serif" font-size="14.00">GetTargetMachine()</text>
</a>
</g>
</g>
<!-- 05&#45;&gt;10 -->
<g id="edge10" class="edge"><title>05&#45;&gt;10</title>
<path fill="none" stroke="black" d="M1010.68,-200.598C906.651,-191.912 734.448,-175.986 587,-155 579.459,-153.927 571.596,-152.684 563.776,-151.368"/>
<polygon fill="black" stroke="black" points="564.369,-147.919 553.92,-149.67 563.181,-154.817 564.369,-147.919"/>
</g>
<!-- 11 -->
<g id="node13" class="node"><title>11</title>
<g id="a_node13"><a xlink:href="https://github.com/ROCmSoftwarePlatform/tensorflow/blob/rocm-v1/tensorflow/compiler/xla/service/gpu/llvm_gpu_backend/amdgpu_backend_lib.cc#L169" xlink:title="AddOptimizationPasses()">
<ellipse fill="none" stroke="black" cx="697" cy="-137" rx="101.282" ry="18"/>
<text text-anchor="middle" x="697" y="-133.3" font-family="Times,serif" font-size="14.00">AddOptimizationPasses()</text>
</a>
</g>
</g>
<!-- 05&#45;&gt;11 -->
<g id="edge12" class="edge"><title>05&#45;&gt;11</title>
<path fill="none" stroke="black" d="M1033,-195.647C961.441,-183.37 851.915,-164.579 777.517,-151.814"/>
<polygon fill="black" stroke="black" points="777.708,-148.296 767.26,-150.054 776.524,-155.195 777.708,-148.296"/>
</g>
<!-- 12 -->
<g id="node14" class="node"><title>12</title>
<ellipse fill="none" stroke="black" cx="972" cy="-137" rx="155.173" ry="18"/>
<text text-anchor="start" x="860.5" y="-133.3" font-family="Times,serif" font-size="14.00"> Execute LLVM IR optimization passes </text>
</g>
<!-- 05&#45;&gt;12 -->
<g id="edge13" class="edge"><title>05&#45;&gt;12</title>
<path fill="none" stroke="black" d="M1074.15,-191.765C1055.87,-182.142 1032.48,-169.832 1012.7,-159.419"/>
<polygon fill="black" stroke="black" points="1014.08,-156.194 1003.6,-154.633 1010.82,-162.388 1014.08,-156.194"/>
</g>
<!-- 13 -->
<g id="node15" class="node"><title>13</title>
<g id="a_node15"><a xlink:href="https://github.com/ROCmSoftwarePlatform/tensorflow/blob/rocm-v1/tensorflow/compiler/xla/service/gpu/llvm_gpu_backend/amdgpu_backend_lib.cc#L210" xlink:title="EmitModuleToHsaco()">
<ellipse fill="none" stroke="black" cx="1239" cy="-137" rx="93.6835" ry="18"/>
<text text-anchor="middle" x="1239" y="-133.3" font-family="Times,serif" font-size="14.00">EmitModuleToHsaco()</text>
</a>
</g>
</g>
<!-- 05&#45;&gt;13 -->
<g id="edge14" class="edge"><title>05&#45;&gt;13</title>
<path fill="none" stroke="black" d="M1136.08,-191.765C1154.85,-181.958 1178.97,-169.361 1199.13,-158.825"/>
<polygon fill="black" stroke="black" points="1200.85,-161.88 1208.09,-154.147 1197.61,-155.675 1200.85,-161.88"/>
</g>
<!-- 14 -->
<g id="node16" class="node"><title>14</title>
<ellipse fill="none" stroke="black" cx="1428" cy="-137" rx="77.1866" ry="18"/>
<text text-anchor="start" x="1376.5" y="-133.3" font-family="Times,serif" font-size="14.00"> Dump LLVM IR </text>
</g>
<!-- 05&#45;&gt;14 -->
<g id="edge15" class="edge"><title>05&#45;&gt;14</title>
<path fill="none" stroke="black" d="M1167.66,-194.42C1224.08,-182.193 1306.65,-164.299 1363.6,-151.957"/>
<polygon fill="black" stroke="black" points="1364.54,-155.335 1373.57,-149.796 1363.05,-148.494 1364.54,-155.335"/>
</g>
<!-- 15 -->
<g id="node17" class="node"><title>15</title>
<ellipse fill="none" stroke="black" cx="1722" cy="-137" rx="198.465" ry="18"/>
<text text-anchor="start" x="1577.5" y="-133.3" font-family="Times,serif" font-size="14.00"> Emit GCN ISA invokg AMDGPU LLVM backend </text>
</g>
<!-- 05&#45;&gt;15 -->
<g id="edge16" class="edge"><title>05&#45;&gt;15</title>
<path fill="none" stroke="black" d="M1190.79,-198.267C1295.22,-186.419 1472.56,-166.3 1593.36,-152.595"/>
<polygon fill="black" stroke="black" points="1593.87,-156.06 1603.41,-151.455 1593.08,-149.104 1593.87,-156.06"/>
</g>
<!-- 16 -->
<g id="node18" class="node"><title>16</title>
<ellipse fill="none" stroke="black" cx="2014" cy="-137" rx="75.2868" ry="18"/>
<text text-anchor="start" x="1964" y="-133.3" font-family="Times,serif" font-size="14.00"> Dump GCN ISA </text>
</g>
<!-- 05&#45;&gt;16 -->
<g id="edge17" class="edge"><title>05&#45;&gt;16</title>
<path fill="none" stroke="black" d="M1209.82,-205.724C1366.78,-201.308 1671.93,-188.822 1929,-155 1936.08,-154.069 1943.45,-152.899 1950.77,-151.611"/>
<polygon fill="black" stroke="black" points="1951.47,-155.04 1960.68,-149.793 1950.21,-148.155 1951.47,-155.04"/>
</g>
<!-- 17 -->
<g id="node19" class="node"><title>17</title>
<ellipse fill="none" stroke="black" cx="2266" cy="-137" rx="158.672" ry="18"/>
<text text-anchor="start" x="2152" y="-133.3" font-family="Times,serif" font-size="14.00"> Invoke ld.ldd to create HSA code object </text>
</g>
<!-- 05&#45;&gt;17 -->
<g id="edge18" class="edge"><title>05&#45;&gt;17</title>
<path fill="none" stroke="black" d="M1207.67,-204.13C1388,-196.974 1773.32,-180.077 2098,-155 2113.23,-153.824 2129.21,-152.423 2145.01,-150.937"/>
<polygon fill="black" stroke="black" points="2145.74,-154.383 2155.37,-149.949 2145.08,-147.415 2145.74,-154.383"/>
</g>
<!-- 07 -->
<g id="node8" class="node"><title>07</title>
<g id="a_node8"><a xlink:href="https://github.com/ROCmSoftwarePlatform/tensorflow/blob/rocm-v1/tensorflow/compiler/xla/service/gpu/llvm_gpu_backend/amdgpu_backend_lib.cc#L314" xlink:title="CouldNeedROCDL()">
<ellipse fill="none" stroke="black" cx="110" cy="-65" rx="86.3847" ry="18"/>
<text text-anchor="middle" x="110" y="-61.3" font-family="Times,serif" font-size="14.00">CouldNeedROCDL()</text>
</a>
</g>
</g>
<!-- 06&#45;&gt;07 -->
<g id="edge7" class="edge"><title>06&#45;&gt;07</title>
<path fill="none" stroke="black" d="M248.053,-120.291C221.463,-109.834 186.378,-96.0362 158.232,-84.9675"/>
<polygon fill="black" stroke="black" points="159.178,-81.5788 148.591,-81.1762 156.616,-88.0932 159.178,-81.5788"/>
</g>
<!-- 08 -->
<g id="node9" class="node"><title>08</title>
<g id="a_node9"><a xlink:href="https://github.com/ROCmSoftwarePlatform/tensorflow/blob/rocm-v1/tensorflow/compiler/xla/service/gpu/llvm_gpu_backend/amdgpu_backend_lib.cc#L76" xlink:title="GetROCDLFilenames()">
<ellipse fill="none" stroke="black" cx="310" cy="-65" rx="95.5831" ry="18"/>
<text text-anchor="middle" x="310" y="-61.3" font-family="Times,serif" font-size="14.00">GetROCDLFilenames()</text>
</a>
</g>
</g>
<!-- 06&#45;&gt;08 -->
<g id="edge8" class="edge"><title>06&#45;&gt;08</title>
<path fill="none" stroke="black" d="M293.438,-118.697C295.889,-110.898 298.84,-101.509 301.568,-92.8292"/>
<polygon fill="black" stroke="black" points="304.965,-93.6937 304.624,-83.1043 298.287,-91.5949 304.965,-93.6937"/>
</g>
<!-- 09 -->
<g id="node10" class="node"><title>09</title>
<ellipse fill="none" stroke="black" cx="649" cy="-65" rx="225.56" ry="18"/>
<text text-anchor="start" x="483.5" y="-61.3" font-family="Times,serif" font-size="14.00"> Load ROCDL IR module and link with it with LLVM API </text>
</g>
<!-- 06&#45;&gt;09 -->
<g id="edge9" class="edge"><title>06&#45;&gt;09</title>
<path fill="none" stroke="black" d="M354.634,-123.079C411.682,-112.017 494.378,-95.9821 557.604,-83.7222"/>
<polygon fill="black" stroke="black" points="558.427,-87.128 567.578,-81.7883 557.094,-80.256 558.427,-87.128"/>
</g>
<!-- 100 -->
<g id="node12" class="node"><title>100</title>
<ellipse fill="none" stroke="black" cx="1032" cy="-65" rx="139.175" ry="18"/>
<text text-anchor="start" x="933" y="-61.3" font-family="Times,serif" font-size="14.00"> Create AMDGPU LLVM backend </text>
</g>
<!-- 10&#45;&gt;100 -->
<g id="edge11" class="edge"><title>10&#45;&gt;100</title>
<path fill="none" stroke="black" d="M553.942,-124.477C564.918,-122.528 576.288,-120.615 587,-119 619.34,-114.123 801.18,-92.7874 922.176,-78.718"/>
<polygon fill="black" stroke="black" points="922.702,-82.1805 932.231,-77.5492 921.894,-75.2273 922.702,-82.1805"/>
</g>
</g>
</svg>
