<?xml version="1.0" encoding="UTF-8" standalone="no"?>
<!DOCTYPE svg PUBLIC "-//W3C//DTD SVG 1.1//EN"
 "http://www.w3.org/Graphics/SVG/1.1/DTD/svg11.dtd">
<!-- Generated by graphviz version 2.38.0 (20140413.2041)
 -->
<!-- Title: overview_00 Pages: 1 -->
<svg width="797pt" height="355pt"
 viewBox="0.00 0.00 797.24 355.00" xmlns="http://www.w3.org/2000/svg" xmlns:xlink="http://www.w3.org/1999/xlink">
<g id="graph0" class="graph" transform="scale(1 1) rotate(0) translate(4 351)">
<title>overview_00</title>
<polygon fill="white" stroke="none" points="-4,4 -4,-351 793.24,-351 793.24,4 -4,4"/>
<text text-anchor="middle" x="394.62" y="-7.8" font-family="Times,serif" font-size="14.00">Very simplified TensorFlow execution model</text>
<!-- 00 -->
<g id="node1" class="node"><title>00</title>
<ellipse fill="none" stroke="black" cx="261.096" cy="-329" rx="75.2868" ry="18"/>
<text text-anchor="middle" x="261.096" y="-325.3" font-family="Times,serif" font-size="14.00">TensorFlow graph</text>
</g>
<!-- 01 -->
<g id="node4" class="node"><title>01</title>
<ellipse fill="none" stroke="black" cx="422.096" cy="-257" rx="77.1866" ry="18"/>
<text text-anchor="middle" x="422.096" y="-253.3" font-family="Times,serif" font-size="14.00">TensorFlow placer</text>
</g>
<!-- 00&#45;&gt;01 -->
<g id="edge1" class="edge"><title>00&#45;&gt;01</title>
<path fill="none" stroke="black" d="M295.634,-312.983C319.745,-302.5 352.13,-288.42 378.09,-277.133"/>
<polygon fill="black" stroke="black" points="379.562,-280.31 387.337,-273.113 376.771,-273.89 379.562,-280.31"/>
</g>
<!-- 001 -->
<g id="node2" class="node"><title>001</title>
<ellipse fill="none" stroke="black" cx="422.096" cy="-329" rx="67.6881" ry="18"/>
<text text-anchor="middle" x="422.096" y="-325.3" font-family="Times,serif" font-size="14.00">TensorFlow ops</text>
</g>
<!-- 001&#45;&gt;01 -->
<g id="edge2" class="edge"><title>001&#45;&gt;01</title>
<path fill="none" stroke="black" d="M422.096,-310.697C422.096,-302.983 422.096,-293.712 422.096,-285.112"/>
<polygon fill="black" stroke="black" points="425.596,-285.104 422.096,-275.104 418.596,-285.104 425.596,-285.104"/>
</g>
<!-- 002 -->
<g id="node3" class="node"><title>002</title>
<ellipse fill="none" stroke="black" cx="635.096" cy="-329" rx="127.277" ry="18"/>
<text text-anchor="middle" x="635.096" y="-325.3" font-family="Times,serif" font-size="14.00">TensorFlow devices (CPU/GPU)</text>
</g>
<!-- 002&#45;&gt;01 -->
<g id="edge3" class="edge"><title>002&#45;&gt;01</title>
<path fill="none" stroke="black" d="M587.294,-312.291C553.915,-301.321 509.349,-286.675 474.918,-275.359"/>
<polygon fill="black" stroke="black" points="475.631,-271.91 465.038,-272.113 473.446,-278.56 475.631,-271.91"/>
</g>
<!-- 02 -->
<g id="node5" class="node"><title>02</title>
<ellipse fill="none" stroke="black" cx="422.096" cy="-185" rx="175.469" ry="18"/>
<text text-anchor="middle" x="422.096" y="-181.3" font-family="Times,serif" font-size="14.00">TensorFlow graph (ops assigned onto devices)</text>
</g>
<!-- 01&#45;&gt;02 -->
<g id="edge4" class="edge"><title>01&#45;&gt;02</title>
<path fill="none" stroke="black" d="M422.096,-238.697C422.096,-230.983 422.096,-221.712 422.096,-213.112"/>
<polygon fill="black" stroke="black" points="425.596,-213.104 422.096,-203.104 418.596,-213.104 425.596,-213.104"/>
</g>
<!-- 03 -->
<g id="node6" class="node"><title>03</title>
<ellipse fill="none" stroke="black" cx="422.096" cy="-113" rx="227.46" ry="18"/>
<text text-anchor="middle" x="422.096" y="-109.3" font-family="Times,serif" font-size="14.00">TensorFlow executor traverses the graph, call op::Compute()</text>
</g>
<!-- 02&#45;&gt;03 -->
<g id="edge5" class="edge"><title>02&#45;&gt;03</title>
<path fill="none" stroke="black" d="M422.096,-166.697C422.096,-158.983 422.096,-149.712 422.096,-141.112"/>
<polygon fill="black" stroke="black" points="425.596,-141.104 422.096,-131.104 418.596,-141.104 425.596,-141.104"/>
</g>
<!-- 04 -->
<g id="node7" class="node"><title>04</title>
<ellipse fill="none" stroke="black" cx="48.0957" cy="-41" rx="48.1917" ry="18"/>
<text text-anchor="middle" x="48.0957" y="-37.3" font-family="Times,serif" font-size="14.00">CPU logic</text>
</g>
<!-- 03&#45;&gt;04 -->
<g id="edge6" class="edge"><title>03&#45;&gt;04</title>
<path fill="none" stroke="black" d="M313.97,-97.1206C252.644,-87.8698 174.681,-74.744 106.096,-59 102.011,-58.0624 97.7897,-57.0036 93.573,-55.8842"/>
<polygon fill="black" stroke="black" points="94.381,-52.4764 83.8103,-53.191 92.5194,-59.2244 94.381,-52.4764"/>
</g>
<!-- 05 -->
<g id="node8" class="node"><title>05</title>
<ellipse fill="none" stroke="black" cx="225.096" cy="-41" rx="110.48" ry="18"/>
<text text-anchor="middle" x="225.096" y="-37.3" font-family="Times,serif" font-size="14.00">Custom CUDA/HIP kernels</text>
</g>
<!-- 03&#45;&gt;05 -->
<g id="edge7" class="edge"><title>03&#45;&gt;05</title>
<path fill="none" stroke="black" d="M375.16,-95.3222C346.098,-84.9957 308.696,-71.7057 278.503,-60.9771"/>
<polygon fill="black" stroke="black" points="279.567,-57.6411 268.973,-57.5908 277.224,-64.2371 279.567,-57.6411"/>
</g>
<!-- 06 -->
<g id="node9" class="node"><title>06</title>
<ellipse fill="none" stroke="black" cx="422.096" cy="-41" rx="68.7879" ry="18"/>
<text text-anchor="middle" x="422.096" y="-37.3" font-family="Times,serif" font-size="14.00">MIOpen kernels</text>
</g>
<!-- 03&#45;&gt;06 -->
<g id="edge8" class="edge"><title>03&#45;&gt;06</title>
<path fill="none" stroke="black" d="M422.096,-94.6966C422.096,-86.9827 422.096,-77.7125 422.096,-69.1124"/>
<polygon fill="black" stroke="black" points="425.596,-69.1043 422.096,-59.1043 418.596,-69.1044 425.596,-69.1043"/>
</g>
<!-- 07 -->
<g id="node10" class="node"><title>07</title>
<ellipse fill="none" stroke="black" cx="581.096" cy="-41" rx="72.2875" ry="18"/>
<text text-anchor="middle" x="581.096" y="-37.3" font-family="Times,serif" font-size="14.00">rocBLAS kernels</text>
</g>
<!-- 03&#45;&gt;07 -->
<g id="edge9" class="edge"><title>03&#45;&gt;07</title>
<path fill="none" stroke="black" d="M460.18,-95.2333C483.539,-84.9496 513.515,-71.7523 537.777,-61.071"/>
<polygon fill="black" stroke="black" points="539.366,-64.1958 547.108,-56.9631 536.546,-57.7891 539.366,-64.1958"/>
</g>
<!-- 08 -->
<g id="node11" class="node"><title>08</title>
<ellipse fill="none" stroke="black" cx="730.096" cy="-41" rx="59.2899" ry="18"/>
<text text-anchor="middle" x="730.096" y="-37.3" font-family="Times,serif" font-size="14.00">Eigen kernels</text>
</g>
<!-- 03&#45;&gt;08 -->
<g id="edge10" class="edge"><title>03&#45;&gt;08</title>
<path fill="none" stroke="black" d="M497.078,-95.9988C544.468,-85.7479 606.957,-71.9779 662.096,-59 666.738,-57.9075 671.552,-56.751 676.377,-55.5759"/>
<polygon fill="black" stroke="black" points="677.367,-58.9367 686.244,-53.152 675.697,-52.1388 677.367,-58.9367"/>
</g>
</g>
</svg>
