<?xml version="1.0" encoding="UTF-8" standalone="no"?>
<!DOCTYPE svg PUBLIC "-//W3C//DTD SVG 1.1//EN"
 "http://www.w3.org/Graphics/SVG/1.1/DTD/svg11.dtd">
<!-- Generated by graphviz version 2.38.0 (20140413.2041)
 -->
<!-- Title: overview_00 Pages: 1 -->
<svg width="752pt" height="499pt"
 viewBox="0.00 0.00 752.24 499.00" xmlns="http://www.w3.org/2000/svg" xmlns:xlink="http://www.w3.org/1999/xlink">
<g id="graph0" class="graph" transform="scale(1 1) rotate(0) translate(4 495)">
<title>overview_00</title>
<polygon fill="white" stroke="none" points="-4,4 -4,-495 748.24,-495 748.24,4 -4,4"/>
<text text-anchor="middle" x="372.12" y="-7.8" font-family="Times,serif" font-size="14.00">Very simplified TensorRT execution model</text>
<!-- 00 -->
<g id="node1" class="node"><title>00</title>
<ellipse fill="none" stroke="black" cx="193.096" cy="-473" rx="75.2868" ry="18"/>
<text text-anchor="middle" x="193.096" y="-469.3" font-family="Times,serif" font-size="14.00">TensorFlow graph</text>
</g>
<!-- 003 -->
<g id="node2" class="node"><title>003</title>
<ellipse fill="none" stroke="black" cx="193.096" cy="-401" rx="105.881" ry="18"/>
<text text-anchor="middle" x="193.096" y="-397.3" font-family="Times,serif" font-size="14.00">TensorRT convert routines</text>
</g>
<!-- 00&#45;&gt;003 -->
<g id="edge1" class="edge"><title>00&#45;&gt;003</title>
<path fill="none" stroke="black" d="M193.096,-454.697C193.096,-446.983 193.096,-437.712 193.096,-429.112"/>
<polygon fill="black" stroke="black" points="196.596,-429.104 193.096,-419.104 189.596,-429.104 196.596,-429.104"/>
</g>
<!-- 004 -->
<g id="node3" class="node"><title>004</title>
<ellipse fill="none" stroke="black" cx="193.096" cy="-329" rx="106.681" ry="18"/>
<text text-anchor="middle" x="193.096" y="-325.3" font-family="Times,serif" font-size="14.00">TensorRT optimized graph</text>
</g>
<!-- 003&#45;&gt;004 -->
<g id="edge2" class="edge"><title>003&#45;&gt;004</title>
<path fill="none" stroke="black" d="M193.096,-382.697C193.096,-374.983 193.096,-365.712 193.096,-357.112"/>
<polygon fill="black" stroke="black" points="196.596,-357.104 193.096,-347.104 189.596,-357.104 196.596,-357.104"/>
</g>
<!-- 01 -->
<g id="node6" class="node"><title>01</title>
<ellipse fill="none" stroke="black" cx="385.096" cy="-257" rx="77.1866" ry="18"/>
<text text-anchor="middle" x="385.096" y="-253.3" font-family="Times,serif" font-size="14.00">TensorFlow placer</text>
</g>
<!-- 004&#45;&gt;01 -->
<g id="edge3" class="edge"><title>004&#45;&gt;01</title>
<path fill="none" stroke="black" d="M235.707,-312.465C265.215,-301.707 304.59,-287.351 335.508,-276.079"/>
<polygon fill="black" stroke="black" points="337.03,-279.25 345.226,-272.536 334.632,-272.673 337.03,-279.25"/>
</g>
<!-- 001 -->
<g id="node4" class="node"><title>001</title>
<ellipse fill="none" stroke="black" cx="385.096" cy="-329" rx="67.6881" ry="18"/>
<text text-anchor="middle" x="385.096" y="-325.3" font-family="Times,serif" font-size="14.00">TensorFlow ops</text>
</g>
<!-- 001&#45;&gt;01 -->
<g id="edge4" class="edge"><title>001&#45;&gt;01</title>
<path fill="none" stroke="black" d="M385.096,-310.697C385.096,-302.983 385.096,-293.712 385.096,-285.112"/>
<polygon fill="black" stroke="black" points="388.596,-285.104 385.096,-275.104 381.596,-285.104 388.596,-285.104"/>
</g>
<!-- 002 -->
<g id="node5" class="node"><title>002</title>
<ellipse fill="none" stroke="black" cx="598.096" cy="-329" rx="127.277" ry="18"/>
<text text-anchor="middle" x="598.096" y="-325.3" font-family="Times,serif" font-size="14.00">TensorFlow devices (CPU/GPU)</text>
</g>
<!-- 002&#45;&gt;01 -->
<g id="edge5" class="edge"><title>002&#45;&gt;01</title>
<path fill="none" stroke="black" d="M550.294,-312.291C516.915,-301.321 472.349,-286.675 437.918,-275.359"/>
<polygon fill="black" stroke="black" points="438.631,-271.91 428.038,-272.113 436.446,-278.56 438.631,-271.91"/>
</g>
<!-- 02 -->
<g id="node7" class="node"><title>02</title>
<ellipse fill="none" stroke="black" cx="385.096" cy="-185" rx="175.469" ry="18"/>
<text text-anchor="middle" x="385.096" y="-181.3" font-family="Times,serif" font-size="14.00">TensorFlow graph (ops assigned onto devices)</text>
</g>
<!-- 01&#45;&gt;02 -->
<g id="edge6" class="edge"><title>01&#45;&gt;02</title>
<path fill="none" stroke="black" d="M385.096,-238.697C385.096,-230.983 385.096,-221.712 385.096,-213.112"/>
<polygon fill="black" stroke="black" points="388.596,-213.104 385.096,-203.104 381.596,-213.104 388.596,-213.104"/>
</g>
<!-- 03 -->
<g id="node8" class="node"><title>03</title>
<ellipse fill="none" stroke="black" cx="385.096" cy="-113" rx="227.46" ry="18"/>
<text text-anchor="middle" x="385.096" y="-109.3" font-family="Times,serif" font-size="14.00">TensorFlow executor traverses the graph, call op::Compute()</text>
</g>
<!-- 02&#45;&gt;03 -->
<g id="edge7" class="edge"><title>02&#45;&gt;03</title>
<path fill="none" stroke="black" d="M385.096,-166.697C385.096,-158.983 385.096,-149.712 385.096,-141.112"/>
<polygon fill="black" stroke="black" points="388.596,-141.104 385.096,-131.104 381.596,-141.104 388.596,-141.104"/>
</g>
<!-- 04 -->
<g id="node9" class="node"><title>04</title>
<ellipse fill="none" stroke="black" cx="48.0957" cy="-41" rx="48.1917" ry="18"/>
<text text-anchor="middle" x="48.0957" y="-37.3" font-family="Times,serif" font-size="14.00">CPU logic</text>
</g>
<!-- 03&#45;&gt;04 -->
<g id="edge8" class="edge"><title>03&#45;&gt;04</title>
<path fill="none" stroke="black" d="M290.606,-96.6071C236.084,-87.1047 166.39,-73.8998 105.096,-59 101.254,-58.0662 97.2874,-57.0316 93.3181,-55.9471"/>
<polygon fill="black" stroke="black" points="94.0921,-52.5289 83.5172,-53.1779 92.1888,-59.2652 94.0921,-52.5289"/>
</g>
<!-- 05 -->
<g id="node10" class="node"><title>05</title>
<ellipse fill="none" stroke="black" cx="208.096" cy="-41" rx="93.6835" ry="18"/>
<text text-anchor="middle" x="208.096" y="-37.3" font-family="Times,serif" font-size="14.00">Custom CUDA kernels</text>
</g>
<!-- 03&#45;&gt;05 -->
<g id="edge9" class="edge"><title>03&#45;&gt;05</title>
<path fill="none" stroke="black" d="M342.7,-95.2333C316.831,-85.0027 283.671,-71.8885 256.737,-61.2366"/>
<polygon fill="black" stroke="black" points="257.707,-57.8565 247.121,-57.4335 255.133,-64.366 257.707,-57.8565"/>
</g>
<!-- 06 -->
<g id="node11" class="node"><title>06</title>
<ellipse fill="none" stroke="black" cx="385.096" cy="-41" rx="65.7887" ry="18"/>
<text text-anchor="middle" x="385.096" y="-37.3" font-family="Times,serif" font-size="14.00">cuDNN kernels</text>
</g>
<!-- 03&#45;&gt;06 -->
<g id="edge10" class="edge"><title>03&#45;&gt;06</title>
<path fill="none" stroke="black" d="M385.096,-94.6966C385.096,-86.9827 385.096,-77.7125 385.096,-69.1124"/>
<polygon fill="black" stroke="black" points="388.596,-69.1043 385.096,-59.1043 381.596,-69.1044 388.596,-69.1043"/>
</g>
<!-- 07 -->
<g id="node12" class="node"><title>07</title>
<ellipse fill="none" stroke="black" cx="538.096" cy="-41" rx="69.5877" ry="18"/>
<text text-anchor="middle" x="538.096" y="-37.3" font-family="Times,serif" font-size="14.00">cuBLAS kernels</text>
</g>
<!-- 03&#45;&gt;07 -->
<g id="edge11" class="edge"><title>03&#45;&gt;07</title>
<path fill="none" stroke="black" d="M421.743,-95.2333C444.121,-84.9951 472.811,-71.869 496.102,-61.2129"/>
<polygon fill="black" stroke="black" points="497.753,-64.3063 505.391,-56.9631 494.841,-57.9408 497.753,-64.3063"/>
</g>
<!-- 08 -->
<g id="node13" class="node"><title>08</title>
<ellipse fill="none" stroke="black" cx="685.096" cy="-41" rx="59.2899" ry="18"/>
<text text-anchor="middle" x="685.096" y="-37.3" font-family="Times,serif" font-size="14.00">Eigen kernels</text>
</g>
<!-- 03&#45;&gt;08 -->
<g id="edge12" class="edge"><title>03&#45;&gt;08</title>
<path fill="none" stroke="black" d="M457.291,-95.905C503.122,-85.5892 563.654,-71.7832 617.096,-59 621.734,-57.8906 626.545,-56.7226 631.368,-55.5397"/>
<polygon fill="black" stroke="black" points="632.363,-58.8994 641.233,-53.1052 630.685,-52.1033 632.363,-58.8994"/>
</g>
</g>
</svg>
