<?xml version="1.0" encoding="UTF-8" standalone="no"?>
<!DOCTYPE svg PUBLIC "-//W3C//DTD SVG 1.1//EN"
 "http://www.w3.org/Graphics/SVG/1.1/DTD/svg11.dtd">
<!-- Generated by graphviz version 2.38.0 (20140413.2041)
 -->
<!-- Title: overview_00 Pages: 1 -->
<svg width="1276pt" height="984pt"
 viewBox="0.00 0.00 1275.58 984.22" xmlns="http://www.w3.org/2000/svg" xmlns:xlink="http://www.w3.org/1999/xlink">
<g id="graph0" class="graph" transform="scale(1 1) rotate(0) translate(4 980.22)">
<title>overview_00</title>
<polygon fill="white" stroke="none" points="-4,4 -4,-980.22 1271.58,-980.22 1271.58,4 -4,4"/>
<text text-anchor="middle" x="633.788" y="-7.8" font-family="Times,serif" font-size="14.00">Very simplified TensorFlow XLA execution model</text>
<!-- 00 -->
<g id="node1" class="node"><title>00</title>
<ellipse fill="none" stroke="black" cx="75.3933" cy="-958.22" rx="75.2868" ry="18"/>
<text text-anchor="middle" x="75.3933" y="-954.52" font-family="Times,serif" font-size="14.00">TensorFlow graph</text>
</g>
<!-- 01 -->
<g id="node6" class="node"><title>01</title>
<ellipse fill="none" stroke="black" cx="449.393" cy="-886.22" rx="77.1866" ry="18"/>
<text text-anchor="middle" x="449.393" y="-882.52" font-family="Times,serif" font-size="14.00">TensorFlow placer</text>
</g>
<!-- 00&#45;&gt;01 -->
<g id="edge1" class="edge"><title>00&#45;&gt;01</title>
<path fill="none" stroke="black" d="M130.489,-945.915C140.117,-943.984 150.043,-942.021 159.393,-940.22 234.696,-925.721 321.193,-910.038 379.985,-899.525"/>
<polygon fill="black" stroke="black" points="380.674,-902.957 389.903,-897.753 379.443,-896.066 380.674,-902.957"/>
</g>
<!-- 001 -->
<g id="node2" class="node"><title>001</title>
<ellipse fill="none" stroke="black" cx="236.393" cy="-958.22" rx="67.6881" ry="18"/>
<text text-anchor="middle" x="236.393" y="-954.52" font-family="Times,serif" font-size="14.00">TensorFlow ops</text>
</g>
<!-- 001&#45;&gt;01 -->
<g id="edge2" class="edge"><title>001&#45;&gt;01</title>
<path fill="none" stroke="black" d="M277.21,-943.806C311.252,-932.619 359.985,-916.603 396.922,-904.464"/>
<polygon fill="black" stroke="black" points="398.116,-907.756 406.523,-901.309 395.93,-901.106 398.116,-907.756"/>
</g>
<!-- 002 -->
<g id="node3" class="node"><title>002</title>
<ellipse fill="none" stroke="black" cx="449.393" cy="-958.22" rx="127.277" ry="18"/>
<text text-anchor="middle" x="449.393" y="-954.52" font-family="Times,serif" font-size="14.00">TensorFlow devices (CPU/GPU)</text>
</g>
<!-- 002&#45;&gt;01 -->
<g id="edge3" class="edge"><title>002&#45;&gt;01</title>
<path fill="none" stroke="black" d="M449.393,-939.917C449.393,-932.203 449.393,-922.933 449.393,-914.333"/>
<polygon fill="black" stroke="black" points="452.893,-914.325 449.393,-904.325 445.893,-914.325 452.893,-914.325"/>
</g>
<!-- 003 -->
<g id="node4" class="node"><title>003</title>
<ellipse fill="none" stroke="black" cx="683.393" cy="-958.22" rx="88.2844" ry="18"/>
<text text-anchor="middle" x="683.393" y="-954.52" font-family="Times,serif" font-size="14.00">TensorFlow XLA ops</text>
</g>
<!-- 003&#45;&gt;01 -->
<g id="edge4" class="edge"><title>003&#45;&gt;01</title>
<path fill="none" stroke="black" d="M635.758,-942.97C597.816,-931.62 544.641,-915.713 504.798,-903.794"/>
<polygon fill="black" stroke="black" points="505.557,-900.368 494.973,-900.855 503.55,-907.074 505.557,-900.368"/>
</g>
<!-- 004 -->
<g id="node5" class="node"><title>004</title>
<ellipse fill="none" stroke="black" cx="925.393" cy="-958.22" rx="135.676" ry="18"/>
<text text-anchor="middle" x="925.393" y="-954.52" font-family="Times,serif" font-size="14.00">TensorFlow XLA execution device</text>
</g>
<!-- 004&#45;&gt;01 -->
<g id="edge5" class="edge"><title>004&#45;&gt;01</title>
<path fill="none" stroke="black" d="M838.088,-944.381C747.691,-931.088 608.022,-910.548 523.024,-898.048"/>
<polygon fill="black" stroke="black" points="523.34,-894.557 512.937,-896.565 522.321,-901.483 523.34,-894.557"/>
</g>
<!-- 02 -->
<g id="node7" class="node"><title>02</title>
<ellipse fill="none" stroke="black" cx="449.393" cy="-814.22" rx="278.351" ry="18"/>
<text text-anchor="middle" x="449.393" y="-810.52" font-family="Times,serif" font-size="14.00">TensorFlow graph (XLA&#45;compatible ops placed on XLA execution device)</text>
</g>
<!-- 01&#45;&gt;02 -->
<g id="edge6" class="edge"><title>01&#45;&gt;02</title>
<path fill="none" stroke="black" d="M449.393,-867.917C449.393,-860.203 449.393,-850.933 449.393,-842.333"/>
<polygon fill="black" stroke="black" points="452.893,-842.325 449.393,-832.325 445.893,-842.325 452.893,-842.325"/>
</g>
<!-- 03 -->
<g id="node9" class="node"><title>03</title>
<ellipse fill="none" stroke="black" cx="654.393" cy="-733.35" rx="231.448" ry="26.7407"/>
<text text-anchor="start" x="547.393" y="-737.15" font-family="Times,serif" font-size="14.00"> TensorFlow XLA graph optimizations</text>
<text text-anchor="start" x="498.893" y="-722.15" font-family="Times,serif" font-size="14.00">Collapse XLA subgraphs (cluster) with XLA Launch op </text>
</g>
<!-- 02&#45;&gt;03 -->
<g id="edge7" class="edge"><title>02&#45;&gt;03</title>
<path fill="none" stroke="black" d="M493.12,-796.397C518.479,-786.641 551.088,-774.095 580.34,-762.841"/>
<polygon fill="black" stroke="black" points="581.63,-766.095 589.706,-759.237 579.117,-759.562 581.63,-766.095"/>
</g>
<!-- 005 -->
<g id="node8" class="node"><title>005</title>
<ellipse fill="none" stroke="black" cx="859.393" cy="-814.22" rx="113.98" ry="18"/>
<text text-anchor="middle" x="859.393" y="-810.52" font-family="Times,serif" font-size="14.00">TensorFlow XLA Launch op</text>
</g>
<!-- 005&#45;&gt;03 -->
<g id="edge8" class="edge"><title>005&#45;&gt;03</title>
<path fill="none" stroke="black" d="M817.909,-797.26C792.361,-787.431 758.861,-774.542 728.841,-762.993"/>
<polygon fill="black" stroke="black" points="729.82,-759.619 719.23,-759.295 727.307,-766.152 729.82,-759.619"/>
</g>
<!-- 04 -->
<g id="node10" class="node"><title>04</title>
<ellipse fill="none" stroke="black" cx="654.393" cy="-652.48" rx="227.46" ry="18"/>
<text text-anchor="middle" x="654.393" y="-648.78" font-family="Times,serif" font-size="14.00">TensorFlow executor traverses the graph, call op::Compute()</text>
</g>
<!-- 03&#45;&gt;04 -->
<g id="edge9" class="edge"><title>03&#45;&gt;04</title>
<path fill="none" stroke="black" d="M654.393,-706.088C654.393,-697.987 654.393,-689.048 654.393,-680.873"/>
<polygon fill="black" stroke="black" points="657.893,-680.7 654.393,-670.7 650.893,-680.7 657.893,-680.7"/>
</g>
<!-- 05 -->
<g id="node11" class="node"><title>05</title>
<ellipse fill="none" stroke="black" cx="559.393" cy="-580.48" rx="103.982" ry="18"/>
<text text-anchor="middle" x="559.393" y="-576.78" font-family="Times,serif" font-size="14.00">convention execution path</text>
</g>
<!-- 04&#45;&gt;05 -->
<g id="edge10" class="edge"><title>04&#45;&gt;05</title>
<path fill="none" stroke="black" d="M631.396,-634.535C619.144,-625.507 603.896,-614.272 590.591,-604.468"/>
<polygon fill="black" stroke="black" points="592.305,-601.384 582.178,-598.269 588.153,-607.019 592.305,-601.384"/>
</g>
<!-- 06 -->
<g id="node12" class="node"><title>06</title>
<ellipse fill="none" stroke="black" cx="750.393" cy="-580.48" rx="68.7879" ry="18"/>
<text text-anchor="middle" x="750.393" y="-576.78" font-family="Times,serif" font-size="14.00">XLA Launch op</text>
</g>
<!-- 04&#45;&gt;06 -->
<g id="edge11" class="edge"><title>04&#45;&gt;06</title>
<path fill="none" stroke="black" d="M677.632,-634.535C690.407,-625.22 706.405,-613.555 720.144,-603.537"/>
<polygon fill="black" stroke="black" points="722.34,-606.268 728.358,-597.548 718.215,-600.612 722.34,-606.268"/>
</g>
<!-- 07 -->
<g id="node14" class="node"><title>07</title>
<ellipse fill="none" stroke="black" cx="865.393" cy="-499.61" rx="247.475" ry="26.7407"/>
<text text-anchor="start" x="803.893" y="-503.41" font-family="Times,serif" font-size="14.00"> Traverse XLA cluster</text>
<text text-anchor="start" x="698.393" y="-488.41" font-family="Times,serif" font-size="14.00">Build XLA UserComputation with XLA compilation device </text>
</g>
<!-- 06&#45;&gt;07 -->
<g id="edge13" class="edge"><title>06&#45;&gt;07</title>
<path fill="none" stroke="black" d="M773.665,-563.52C786.734,-554.557 803.512,-543.05 819.137,-532.334"/>
<polygon fill="black" stroke="black" points="821.401,-535.025 827.668,-526.483 817.442,-529.253 821.401,-535.025"/>
</g>
<!-- 006 -->
<g id="node13" class="node"><title>006</title>
<ellipse fill="none" stroke="black" cx="981.393" cy="-580.48" rx="143.775" ry="18"/>
<text text-anchor="middle" x="981.393" y="-576.78" font-family="Times,serif" font-size="14.00">TensorFlow XLA compilation device</text>
</g>
<!-- 006&#45;&gt;07 -->
<g id="edge12" class="edge"><title>006&#45;&gt;07</title>
<path fill="none" stroke="black" d="M956.508,-562.561C943.365,-553.624 926.809,-542.367 911.427,-531.909"/>
<polygon fill="black" stroke="black" points="913.269,-528.929 903.031,-526.201 909.333,-534.718 913.269,-528.929"/>
</g>
<!-- 08 -->
<g id="node15" class="node"><title>08</title>
<ellipse fill="none" stroke="black" cx="664.393" cy="-409.87" rx="184.61" ry="26.7407"/>
<text text-anchor="start" x="541.893" y="-413.67" font-family="Times,serif" font-size="14.00"> TensorFlow XLA op::Compute()/Compile()</text>
<text text-anchor="start" x="569.393" y="-398.67" font-family="Times,serif" font-size="14.00">Augument XLA UserCompuation </text>
</g>
<!-- 07&#45;&gt;08 -->
<g id="edge14" class="edge"><title>07&#45;&gt;08</title>
<path fill="none" stroke="black" d="M807.795,-473.467C783.622,-462.915 755.372,-450.584 730.368,-439.669"/>
<polygon fill="black" stroke="black" points="731.524,-436.355 720.959,-435.562 728.723,-442.77 731.524,-436.355"/>
</g>
<!-- 09 -->
<g id="node16" class="node"><title>09</title>
<ellipse fill="none" stroke="black" cx="1067.39" cy="-409.87" rx="200.365" ry="18"/>
<text text-anchor="middle" x="1067.39" y="-406.17" font-family="Times,serif" font-size="14.00">Traverse XLA UserComputation, build HLO module</text>
</g>
<!-- 07&#45;&gt;09 -->
<g id="edge15" class="edge"><title>07&#45;&gt;09</title>
<path fill="none" stroke="black" d="M923.278,-473.467C953.759,-460.228 990.688,-444.188 1019.53,-431.659"/>
<polygon fill="black" stroke="black" points="1021.21,-434.748 1028.98,-427.554 1018.42,-428.327 1021.21,-434.748"/>
</g>
<!-- 10 -->
<g id="node17" class="node"><title>10</title>
<ellipse fill="none" stroke="black" cx="1067.39" cy="-329" rx="93.6835" ry="18"/>
<text text-anchor="middle" x="1067.39" y="-325.3" font-family="Times,serif" font-size="14.00">Optimize HLO module</text>
</g>
<!-- 09&#45;&gt;10 -->
<g id="edge16" class="edge"><title>09&#45;&gt;10</title>
<path fill="none" stroke="black" d="M1067.39,-391.756C1067.39,-381.731 1067.39,-368.836 1067.39,-357.425"/>
<polygon fill="black" stroke="black" points="1070.89,-357.08 1067.39,-347.08 1063.89,-357.08 1070.89,-357.08"/>
</g>
<!-- 11 -->
<g id="node18" class="node"><title>11</title>
<ellipse fill="none" stroke="black" cx="1067.39" cy="-257" rx="137.276" ry="18"/>
<text text-anchor="middle" x="1067.39" y="-253.3" font-family="Times,serif" font-size="14.00">Emit LLVM IR from HLO module</text>
</g>
<!-- 10&#45;&gt;11 -->
<g id="edge17" class="edge"><title>10&#45;&gt;11</title>
<path fill="none" stroke="black" d="M1067.39,-310.697C1067.39,-302.983 1067.39,-293.712 1067.39,-285.112"/>
<polygon fill="black" stroke="black" points="1070.89,-285.104 1067.39,-275.104 1063.89,-285.104 1070.89,-285.104"/>
</g>
<!-- 12 -->
<g id="node19" class="node"><title>12</title>
<ellipse fill="none" stroke="black" cx="1067.39" cy="-185" rx="83.3857" ry="18"/>
<text text-anchor="middle" x="1067.39" y="-181.3" font-family="Times,serif" font-size="14.00">Optimize LLVM IR</text>
</g>
<!-- 11&#45;&gt;12 -->
<g id="edge18" class="edge"><title>11&#45;&gt;12</title>
<path fill="none" stroke="black" d="M1067.39,-238.697C1067.39,-230.983 1067.39,-221.712 1067.39,-213.112"/>
<polygon fill="black" stroke="black" points="1070.89,-213.104 1067.39,-203.104 1063.89,-213.104 1070.89,-213.104"/>
</g>
<!-- 13 -->
<g id="node20" class="node"><title>13</title>
<ellipse fill="none" stroke="black" cx="1067.39" cy="-113" rx="150.273" ry="18"/>
<text text-anchor="middle" x="1067.39" y="-109.3" font-family="Times,serif" font-size="14.00">Emit HSA code object from LLVM IR</text>
</g>
<!-- 12&#45;&gt;13 -->
<g id="edge19" class="edge"><title>12&#45;&gt;13</title>
<path fill="none" stroke="black" d="M1067.39,-166.697C1067.39,-158.983 1067.39,-149.712 1067.39,-141.112"/>
<polygon fill="black" stroke="black" points="1070.89,-141.104 1067.39,-131.104 1063.89,-141.104 1070.89,-141.104"/>
</g>
<!-- 14 -->
<g id="node21" class="node"><title>14</title>
<ellipse fill="none" stroke="black" cx="1067.39" cy="-41" rx="132.677" ry="18"/>
<text text-anchor="middle" x="1067.39" y="-37.3" font-family="Times,serif" font-size="14.00">Load and launch HSA code object</text>
</g>
<!-- 13&#45;&gt;14 -->
<g id="edge20" class="edge"><title>13&#45;&gt;14</title>
<path fill="none" stroke="black" d="M1067.39,-94.6966C1067.39,-86.9827 1067.39,-77.7125 1067.39,-69.1124"/>
<polygon fill="black" stroke="black" points="1070.89,-69.1043 1067.39,-59.1043 1063.89,-69.1044 1070.89,-69.1043"/>
</g>
</g>
</svg>
